{
.appVersion = "118";
DisplayStrings = (
"IJ/idotless/jdotless",
"/acutecomb",
"/Ecaron",
"#"
);
copyright = "Copyright 2025 The SimplexSans Project Authors (https://github.com/popp3000/SimplexSans)";
customParameters = (
{
name = license;
value = "SIL Open Font License";
}
);
date = "2023-06-13 18:45:02 +0000";
designer = "Markus Popp";
designerURL = "http://markuspopp.com";
familyName = "Simplex Sans";
featurePrefixes = (
{
automatic = 1;
code = "languagesystem DFLT dflt;\012languagesystem latn dflt;\012languagesystem latn ROM;\012languagesystem latn CRT;\012languagesystem latn MOL;\012languagesystem latn TAT;\012languagesystem latn KAZ;\012languagesystem latn AZE;\012languagesystem latn TRK;\012";
name = Languagesystems;
}
);
features = (
{
automatic = 1;
code = "feature locl;\012feature frac;\012feature ordn;\012";
name = aalt;
},
{
automatic = 1;
code = "script latn;\012language ROM;\012sub Scedilla by Scommaaccent;\012sub scedilla by scommaaccent;\012language CRT;\012sub i by idotaccent;\012language MOL;\012sub Scedilla by Scommaaccent;\012sub scedilla by scommaaccent;\012language TAT;\012sub i by idotaccent;\012language KAZ;\012sub i by idotaccent;\012language AZE;\012sub i by idotaccent;\012language TRK;\012sub i by idotaccent;\012";
name = locl;
},
{
automatic = 1;
code = "sub one slash four by onequarter;\012sub one slash two by onehalf;\012sub three slash four by threequarters;\012";
name = frac;
},
{
automatic = 1;
code = "sub [zero one two three four five six seven eight nine] [A a]' by ordfeminine;\012sub [zero one two three four five six seven eight nine] [O o]' by ordmasculine;\012";
name = ordn;
},
{
automatic = 1;
code = "sub f i by fi;\012sub f l by fl;\012";
name = liga;
}
);
fontMaster = (
{
ascender = 935;
capHeight = 818;
custom = Medium;
descender = -220;
horizontalStems = (
90
);
id = "A5D64CBF-1778-47FF-82B6-0C31E83264E6";
userData = {
GSCornerRadius = 15;
};
verticalStems = (
90
);
weightValue = 500;
widthValue = 5;
xHeight = 545;
}
);
glyphs = (
{
color = 4;
glyphname = A;
lastChange = "2025-05-06 20:11:14 +0000";
layers = (
{
anchors = (
{
name = bottom;
position = "{241, 0}";
},
{
name = ogonek;
position = "{371, 0}";
},
{
name = top;
position = "{241, 818}";
}
);
hints = (
{
horizontal = 1;
place = "{0, 20}";
type = Stem;
},
{
horizontal = 1;
place = "{182, 91}";
type = Stem;
},
{
horizontal = 1;
place = "{818, -20}";
target = down;
type = TopGhost;
}
);
layerId = "A5D64CBF-1778-47FF-82B6-0C31E83264E6";
paths = (
{
closed = 1;
nodes = (
"169 273 LINE",
"241 716 LINE",
"313 273 LINE"
);
},
{
closed = 1;
nodes = (
"121 0 LINE",
"153 182 LINE",
"329 182 LINE",
"361 0 LINE",
"458 0 LINE",
"306 818 LINE",
"176 818 LINE",
"24 0 LINE"
);
}
);
width = 480;
}
);
note = A;
unicode = 0041;
},
{
color = 4;
glyphname = Aacute;
lastChange = "2025-05-06 20:11:14 +0000";
layers = (
{
hints = (
{
horizontal = 1;
place = "{0, 20}";
type = Stem;
},
{
horizontal = 1;
place = "{182, 91}";
type = Stem;
}
);
layerId = "A5D64CBF-1778-47FF-82B6-0C31E83264E6";
paths = (
{
closed = 1;
nodes = (
"129 895 LINE",
"152 855 LINE",
"309 945 LINE",
"286 985 LINE"
);
},
{
closed = 1;
nodes = (
"101 0 LINE",
"133 182 LINE",
"319 182 LINE",
"351 0 LINE",
"448 0 LINE",
"296 818 LINE",
"156 818 LINE",
"4 0 LINE"
);
},
{
closed = 1;
nodes = (
"226 716 LINE",
"303 273 LINE",
"149 273 LINE"
);
}
);
width = 480;
}
);
note = Aacute;
unicode = 00C1;
},
{
color = 4;
glyphname = Abreve;
lastChange = "2025-05-06 20:11:14 +0000";
layers = (
{
layerId = "A5D64CBF-1778-47FF-82B6-0C31E83264E6";
paths = (
{
closed = 1;
nodes = (
"169 273 LINE",
"241 716 LINE",
"313 273 LINE"
);
},
{
closed = 1;
nodes = (
"121 0 LINE",
"153 182 LINE",
"329 182 LINE",
"361 0 LINE",
"458 0 LINE",
"306 818 LINE",
"176 818 LINE",
"24 0 LINE"
);
},
{
closed = 1;
nodes = (
"151 901 OFFCURVE",
"191 861 OFFCURVE",
"241 861 CURVE SMOOTH",
"291 861 OFFCURVE",
"332 901 OFFCURVE",
"332 951 CURVE",
"287 951 LINE",
"287 926 OFFCURVE",
"267 906 OFFCURVE",
"241 906 CURVE SMOOTH",
"217 906 OFFCURVE",
"197 926 OFFCURVE",
"197 951 CURVE",
"151 951 LINE"
);
}
);
width = 480;
}
);
unicode = 0102;
},
{
color = 4;
glyphname = Acircumflex;
lastChange = "2025-05-06 20:11:14 +0000";
layers = (
{
hints = (
{
horizontal = 1;
place = "{0, 20}";
type = Stem;
},
{
horizontal = 1;
place = "{182, 91}";
type = Stem;
}
);
layerId = "A5D64CBF-1778-47FF-82B6-0C31E83264E6";
paths = (
{
closed = 1;
nodes = (
"225 1005 LINE",
"106 886 LINE",
"138 855 LINE",
"225 941 LINE",
"312 855 LINE",
"344 886 LINE"
);
},
{
closed = 1;
nodes = (
"101 0 LINE",
"133 182 LINE",
"319 182 LINE",
"351 0 LINE",
"448 0 LINE",
"296 818 LINE",
"156 818 LINE",
"4 0 LINE"
);
},
{
closed = 1;
nodes = (
"226 716 LINE",
"303 273 LINE",
"149 273 LINE"
);
}
);
width = 480;
}
);
note = Acircumflex;
unicode = 00C2;
},
{
color = 4;
glyphname = Adieresis;
lastChange = "2025-05-06 20:11:14 +0000";
layers = (
{
hints = (
{
horizontal = 1;
place = "{0, 20}";
type = Stem;
},
{
horizontal = 1;
place = "{182, 91}";
type = Stem;
},
{
horizontal = 1;
place = "{864, 100}";
type = Stem;
},
{
place = "{45, 101}";
type = Stem;
},
{
place = "{246, 101}";
type = Stem;
}
);
layerId = "A5D64CBF-1778-47FF-82B6-0C31E83264E6";
paths = (
{
closed = 1;
nodes = (
"149 273 LINE",
"226 716 LINE",
"303 273 LINE"
);
},
{
closed = 1;
nodes = (
"101 0 LINE",
"133 182 LINE",
"319 182 LINE",
"351 0 LINE",
"448 0 LINE",
"296 818 LINE",
"156 818 LINE",
"4 0 LINE"
);
},
{
closed = 1;
nodes = (
"83 882 OFFCURVE",
"109 856 OFFCURVE",
"141 856 CURVE SMOOTH",
"172 856 OFFCURVE",
"198 882 OFFCURVE",
"198 914 CURVE SMOOTH",
"198 945 OFFCURVE",
"172 971 OFFCURVE",
"141 971 CURVE SMOOTH",
"109 971 OFFCURVE",
"83 945 OFFCURVE",
"83 914 CURVE SMOOTH"
);
},
{
closed = 1;
nodes = (
"254 882 OFFCURVE",
"280 856 OFFCURVE",
"312 856 CURVE SMOOTH",
"343 856 OFFCURVE",
"369 882 OFFCURVE",
"369 914 CURVE SMOOTH",
"369 945 OFFCURVE",
"343 971 OFFCURVE",
"312 971 CURVE SMOOTH",
"280 971 OFFCURVE",
"254 945 OFFCURVE",
"254 914 CURVE SMOOTH"
);
}
);
width = 480;
}
);
note = Adieresis;
unicode = 00C4;
},
{
color = 4;
glyphname = Agrave;
lastChange = "2025-05-06 20:11:14 +0000";
layers = (
{
hints = (
{
horizontal = 1;
place = "{0, 20}";
type = Stem;
},
{
horizontal = 1;
place = "{182, 91}";
type = Stem;
}
);
layerId = "A5D64CBF-1778-47FF-82B6-0C31E83264E6";
paths = (
{
closed = 1;
nodes = (
"300 855 LINE",
"324 895 LINE",
"165 985 LINE",
"144 945 LINE"
);
},
{
closed = 1;
nodes = (
"101 0 LINE",
"133 182 LINE",
"319 182 LINE",
"351 0 LINE",
"448 0 LINE",
"296 818 LINE",
"156 818 LINE",
"4 0 LINE"
);
},
{
closed = 1;
nodes = (
"226 716 LINE",
"303 273 LINE",
"149 273 LINE"
);
}
);
width = 480;
}
);
note = Agrave;
unicode = 00C0;
},
{
color = 4;
glyphname = Amacron;
lastChange = "2025-05-06 20:11:14 +0000";
layers = (
{
layerId = "A5D64CBF-1778-47FF-82B6-0C31E83264E6";
paths = (
{
closed = 1;
nodes = (
"149 273 LINE",
"226 716 LINE",
"303 273 LINE"
);
},
{
closed = 1;
nodes = (
"101 0 LINE",
"133 182 LINE",
"319 182 LINE",
"351 0 LINE",
"448 0 LINE",
"296 818 LINE",
"156 818 LINE",
"4 0 LINE"
);
},
{
closed = 1;
nodes = (
"317 894 LINE",
"317 940 LINE",
"135 940 LINE",
"135 894 LINE"
);
}
);
width = 480;
}
);
unicode = 0100;
},
{
color = 5;
glyphname = Aogonek;
lastChange = "2025-05-06 20:11:14 +0000";
layers = (
{
layerId = "A5D64CBF-1778-47FF-82B6-0C31E83264E6";
paths = (
{
closed = 1;
nodes = (
"149 273 LINE",
"226 716 LINE",
"303 273 LINE"
);
},
{
closed = 1;
nodes = (
"101 0 LINE",
"133 182 LINE",
"319 182 LINE",
"351 0 LINE",
"330 -17 OFFCURVE",
"316 -43 OFFCURVE",
"316 -72 CURVE SMOOTH",
"316 -122 OFFCURVE",
"356 -163 OFFCURVE",
"406 -163 CURVE SMOOTH",
"429 -163 OFFCURVE",
"452 -154 OFFCURVE",
"470 -136 CURVE",
"438 -104 LINE",
"421 -122 OFFCURVE",
"393 -122 OFFCURVE",
"375 -104 CURVE",
"366 -96 OFFCURVE",
"361 -84 OFFCURVE",
"361 -72 CURVE SMOOTH",
"361 -63 OFFCURVE",
"364 -54 OFFCURVE",
"369 -46 CURVE",
"374 -40 LINE SMOOTH",
"382 -31 OFFCURVE",
"393 -26 OFFCURVE",
"406 -26 CURVE",
"406 0 LINE",
"448 0 LINE",
"296 818 LINE",
"156 818 LINE",
"4 0 LINE"
);
}
);
width = 480;
}
);
unicode = 0104;
},
{
color = 4;
glyphname = Aring;
lastChange = "2025-05-06 20:11:14 +0000";
layers = (
{
hints = (
{
horizontal = 1;
place = "{0, 20}";
type = Stem;
},
{
horizontal = 1;
place = "{182, 91}";
type = Stem;
},
{
horizontal = 1;
place = "{846, 45}";
type = Stem;
},
{
horizontal = 1;
place = "{981, 45}";
type = Stem;
},
{
place = "{110, 45}";
type = Stem;
},
{
place = "{246, 45}";
type = Stem;
}
);
layerId = "A5D64CBF-1778-47FF-82B6-0C31E83264E6";
paths = (
{
closed = 1;
nodes = (
"137 885 OFFCURVE",
"177 845 OFFCURVE",
"227 845 CURVE SMOOTH",
"277 845 OFFCURVE",
"318 885 OFFCURVE",
"318 935 CURVE SMOOTH",
"318 985 OFFCURVE",
"277 1026 OFFCURVE",
"227 1026 CURVE SMOOTH",
"177 1026 OFFCURVE",
"137 985 OFFCURVE",
"137 935 CURVE SMOOTH"
);
},
{
closed = 1;
nodes = (
"101 0 LINE",
"133 182 LINE",
"319 182 LINE",
"351 0 LINE",
"448 0 LINE",
"296 818 LINE",
"156 818 LINE",
"4 0 LINE"
);
},
{
closed = 1;
nodes = (
"226 716 LINE",
"303 273 LINE",
"149 273 LINE"
);
},
{
closed = 1;
nodes = (
"182 961 OFFCURVE",
"202 981 OFFCURVE",
"227 981 CURVE SMOOTH",
"252 981 OFFCURVE",
"272 961 OFFCURVE",
"272 935 CURVE SMOOTH",
"272 911 OFFCURVE",
"252 891 OFFCURVE",
"227 891 CURVE SMOOTH",
"202 891 OFFCURVE",
"182 911 OFFCURVE",
"182 935 CURVE SMOOTH"
);
}
);
width = 480;
}
);
note = Aring;
unicode = 00C5;
},
{
color = 4;
glyphname = Atilde;
lastChange = "2025-05-06 20:11:14 +0000";
layers = (
{
hints = (
{
horizontal = 1;
place = "{0, 20}";
type = Stem;
},
{
horizontal = 1;
place = "{182, 91}";
type = Stem;
}
);
layerId = "A5D64CBF-1778-47FF-82B6-0C31E83264E6";
paths = (
{
closed = 1;
nodes = (
"192 932 OFFCURVE",
"127 930 OFFCURVE",
"73 906 CURVE",
"90 864 LINE",
"143 887 OFFCURVE",
"188 884 OFFCURVE",
"224 869 CURVE SMOOTH",
"264 853 OFFCURVE",
"330 855 OFFCURVE",
"383 878 CURVE",
"367 921 LINE",
"313 897 OFFCURVE",
"266 900 OFFCURVE",
"232 915 CURVE SMOOTH"
);
},
{
closed = 1;
nodes = (
"101 0 LINE",
"133 182 LINE",
"319 182 LINE",
"351 0 LINE",
"448 0 LINE",
"296 818 LINE",
"156 818 LINE",
"4 0 LINE"
);
},
{
closed = 1;
nodes = (
"226 716 LINE",
"303 273 LINE",
"149 273 LINE"
);
}
);
width = 480;
}
);
note = Atilde;
unicode = 00C3;
},
{
color = 4;
glyphname = AE;
lastChange = "2025-05-06 20:11:14 +0000";
layers = (
{
hints = (
{
horizontal = 1;
place = "{0, 20}";
type = Stem;
},
{
horizontal = 1;
place = "{818, -20}";
target = down;
type = TopGhost;
}
);
layerId = "A5D64CBF-1778-47FF-82B6-0C31E83264E6";
paths = (
{
closed = 1;
nodes = (
"169 273 LINE",
"241 716 LINE",
"313 273 LINE"
);
},
{
closed = 1;
nodes = (
"121 0 LINE",
"153 182 LINE",
"329 182 LINE",
"361 0 LINE",
"659 0 LINE",
"659 90 LINE",
"441.276 90 LINE",
"388.504 374 LINE",
"588 374 LINE",
"588 464 LINE",
"371.78 464 LINE",
"322.724 728 LINE",
"659 728 LINE",
"659 818 LINE",
"176 818 LINE",
"24 0 LINE"
);
}
);
width = 720;
}
);
note = AE;
unicode = 00C6;
},
{
color = 4;
glyphname = B;
lastChange = "2025-05-06 20:11:14 +0000";
layers = (
{
background = {
paths = (
{
closed = 1;
nodes = (
"136 731 LINE",
"227 731 LINE SMOOTH",
"277 731 OFFCURVE",
"318 686 OFFCURVE",
"318 636 CURVE SMOOTH",
"318 574 LINE SMOOTH",
"318 524 OFFCURVE",
"277 480 OFFCURVE",
"227 480 CURVE SMOOTH",
"136 480 LINE"
);
},
{
closed = 1;
nodes = (
"136 393 LINE",
"227 393 LINE SMOOTH",
"277 393 OFFCURVE",
"327 351 OFFCURVE",
"327 301 CURVE SMOOTH",
"327 182 LINE SMOOTH",
"327 132 OFFCURVE",
"277 87 OFFCURVE",
"227 87 CURVE SMOOTH",
"136 87 LINE"
);
},
{
closed = 1;
nodes = (
"382 471 OFFCURVE",
"409 519 OFFCURVE",
"409 574 CURVE SMOOTH",
"409 636 LINE SMOOTH",
"409 736 OFFCURVE",
"327 818 OFFCURVE",
"227 818 CURVE SMOOTH",
"45 818 LINE",
"45 0 LINE",
"227 0 LINE SMOOTH",
"327 0 OFFCURVE",
"418 82 OFFCURVE",
"418 182 CURVE SMOOTH",
"418 301 LINE SMOOTH",
"418 355 OFFCURVE",
"382 404 OFFCURVE",
"344 437 CURVE"
);
}
);
};
hints = (
{
horizontal = 1;
place = "{0, 91}";
type = Stem;
},
{
horizontal = 1;
place = "{382, 91}";
type = Stem;
},
{
horizontal = 1;
place = "{727, 91}";
type = Stem;
},
{
place = "{45, 91}";
type = Stem;
},
{
place = "{318, 91}";
type = Stem;
}
);
layerId = "A5D64CBF-1778-47FF-82B6-0C31E83264E6";
paths = (
{
closed = 1;
nodes = (
"136 731 LINE",
"222 731 LINE SMOOTH",
"272 731 OFFCURVE",
"313 686 OFFCURVE",
"313 636 CURVE SMOOTH",
"313 574 LINE SMOOTH",
"313 524 OFFCURVE",
"267 480 OFFCURVE",
"217 480 CURVE SMOOTH",
"136 480 LINE"
);
},
{
closed = 1;
nodes = (
"227 0 LINE SMOOTH",
"327 0 OFFCURVE",
"418 82 OFFCURVE",
"418 182 CURVE SMOOTH",
"418 301 LINE SMOOTH",
"418 355 OFFCURVE",
"380 409 OFFCURVE",
"342 442 CURVE",
"380 476 OFFCURVE",
"404 519 OFFCURVE",
"404 574 CURVE SMOOTH",
"404 636 LINE SMOOTH",
"404 736 OFFCURVE",
"322 818 OFFCURVE",
"222 818 CURVE SMOOTH",
"45 818 LINE",
"45 0 LINE"
);
},
{
closed = 1;
nodes = (
"136 393 LINE",
"227 393 LINE SMOOTH",
"277 393 OFFCURVE",
"327 351 OFFCURVE",
"327 301 CURVE SMOOTH",
"327 182 LINE SMOOTH",
"327 132 OFFCURVE",
"277 87 OFFCURVE",
"227 87 CURVE SMOOTH",
"136 87 LINE"
);
}
);
width = 480;
}
);
note = B;
unicode = 0042;
},
{
color = 4;
glyphname = C;
lastChange = "2025-05-06 20:11:14 +0000";
layers = (
{
anchors = (
{
name = bottom;
position = "{227, 0}";
},
{
name = ogonek;
position = "{337, 0}";
},
{
name = top;
position = "{227, 818}";
}
);
hints = (
{
horizontal = 1;
place = "{-9, 20}";
type = Stem;
},
{
horizontal = 1;
place = "{827, -20}";
target = down;
type = TopGhost;
},
{
place = "{136, 182}";
type = Stem;
}
);
layerId = "A5D64CBF-1778-47FF-82B6-0C31E83264E6";
paths = (
{
closed = 1;
nodes = (
"45 73 OFFCURVE",
"127 -9 OFFCURVE",
"227 -9 CURVE SMOOTH",
"327 -9 OFFCURVE",
"409 73 OFFCURVE",
"409 173 CURVE SMOOTH",
"409 200 LINE",
"318 200 LINE",
"318 173 LINE SMOOTH",
"318 127 OFFCURVE",
"277 77 OFFCURVE",
"227 77 CURVE SMOOTH",
"177 77 OFFCURVE",
"136 127 OFFCURVE",
"136 173 CURVE SMOOTH",
"136 645 LINE SMOOTH",
"136 691 OFFCURVE",
"177 741 OFFCURVE",
"227 741 CURVE SMOOTH",
"277 741 OFFCURVE",
"318 695 OFFCURVE",
"318 645 CURVE SMOOTH",
"318 618 LINE",
"409 618 LINE",
"409 645 LINE SMOOTH",
"409 745 OFFCURVE",
"327 827 OFFCURVE",
"227 827 CURVE SMOOTH",
"127 827 OFFCURVE",
"45 740 OFFCURVE",
"45 645 CURVE SMOOTH",
"45 173 LINE SMOOTH"
);
}
);
width = 480;
}
);
note = C;
unicode = 0043;
},
{
color = 4;
glyphname = Cacute;
lastChange = "2025-05-06 20:11:14 +0000";
layers = (
{
layerId = "A5D64CBF-1778-47FF-82B6-0C31E83264E6";
paths = (
{
closed = 1;
nodes = (
"45 73 OFFCURVE",
"127 -9 OFFCURVE",
"227 -9 CURVE SMOOTH",
"327 -9 OFFCURVE",
"409 73 OFFCURVE",
"409 173 CURVE SMOOTH",
"409 200 LINE",
"318 200 LINE",
"318 173 LINE SMOOTH",
"318 127 OFFCURVE",
"277 77 OFFCURVE",
"227 77 CURVE SMOOTH",
"177 77 OFFCURVE",
"136 127 OFFCURVE",
"136 173 CURVE SMOOTH",
"136 645 LINE SMOOTH",
"136 691 OFFCURVE",
"177 741 OFFCURVE",
"227 741 CURVE SMOOTH",
"277 741 OFFCURVE",
"318 695 OFFCURVE",
"318 645 CURVE SMOOTH",
"318 618 LINE",
"409 618 LINE",
"409 645 LINE SMOOTH",
"409 745 OFFCURVE",
"327 827 OFFCURVE",
"227 827 CURVE SMOOTH",
"127 827 OFFCURVE",
"45 740 OFFCURVE",
"45 645 CURVE SMOOTH",
"45 173 LINE SMOOTH"
);
},
{
closed = 1;
nodes = (
"152 855 LINE",
"309 945 LINE",
"286 985 LINE",
"129 895 LINE"
);
}
);
width = 480;
}
);
unicode = 0106;
},
{
color = 4;
glyphname = Ccaron;
lastChange = "2025-05-06 20:11:14 +0000";
layers = (
{
layerId = "A5D64CBF-1778-47FF-82B6-0C31E83264E6";
paths = (
{
closed = 1;
nodes = (
"108 974 LINE",
"139 1005 LINE",
"227 919 LINE",
"314 1005 LINE",
"346 974 LINE",
"227 855 LINE"
);
},
{
closed = 1;
nodes = (
"45 73 OFFCURVE",
"127 -9 OFFCURVE",
"227 -9 CURVE SMOOTH",
"327 -9 OFFCURVE",
"409 73 OFFCURVE",
"409 173 CURVE SMOOTH",
"409 200 LINE",
"318 200 LINE",
"318 173 LINE SMOOTH",
"318 127 OFFCURVE",
"277 77 OFFCURVE",
"227 77 CURVE SMOOTH",
"177 77 OFFCURVE",
"136 127 OFFCURVE",
"136 173 CURVE SMOOTH",
"136 645 LINE SMOOTH",
"136 691 OFFCURVE",
"177 741 OFFCURVE",
"227 741 CURVE SMOOTH",
"277 741 OFFCURVE",
"318 695 OFFCURVE",
"318 645 CURVE SMOOTH",
"318 618 LINE",
"409 618 LINE",
"409 645 LINE SMOOTH",
"409 745 OFFCURVE",
"327 827 OFFCURVE",
"227 827 CURVE SMOOTH",
"127 827 OFFCURVE",
"45 740 OFFCURVE",
"45 645 CURVE SMOOTH",
"45 173 LINE SMOOTH"
);
}
);
width = 480;
}
);
unicode = 010C;
},
{
color = 4;
glyphname = Ccedilla;
lastChange = "2025-05-06 20:11:14 +0000";
layers = (
{
hints = (
{
horizontal = 1;
place = "{-215, 91}";
type = Stem;
},
{
horizontal = 1;
place = "{736, 91}";
type = Stem;
},
{
place = "{45, 91}";
type = Stem;
},
{
place = "{250, 45}";
type = Stem;
},
{
place = "{318, 91}";
type = Stem;
}
);
layerId = "A5D64CBF-1778-47FF-82B6-0C31E83264E6";
paths = (
{
closed = 1;
nodes = (
"205 -79 LINE",
"229 -79 OFFCURVE",
"250 -102 OFFCURVE",
"250 -125 CURVE SMOOTH",
"250 -147 OFFCURVE",
"229 -170 OFFCURVE",
"205 -170 CURVE SMOOTH",
"179 -170 OFFCURVE",
"159 -147 OFFCURVE",
"159 -125 CURVE",
"114 -125 LINE",
"114 -172 OFFCURVE",
"155 -215 OFFCURVE",
"205 -215 CURVE SMOOTH",
"264 -215 OFFCURVE",
"295 -159 OFFCURVE",
"295 -125 CURVE SMOOTH",
"295 -93 OFFCURVE",
"277 -63 OFFCURVE",
"250 -46 CURVE",
"250 -7 LINE",
"339 4 OFFCURVE",
"409 73 OFFCURVE",
"409 173 CURVE SMOOTH",
"409 200 LINE",
"318 200 LINE",
"318 173 LINE SMOOTH",
"318 124 OFFCURVE",
"277 82 OFFCURVE",
"227 82 CURVE SMOOTH",
"177 82 OFFCURVE",
"136 127 OFFCURVE",
"136 173 CURVE SMOOTH",
"136 645 LINE SMOOTH",
"136 691 OFFCURVE",
"177 736 OFFCURVE",
"227 736 CURVE SMOOTH",
"277 736 OFFCURVE",
"318 695 OFFCURVE",
"318 645 CURVE SMOOTH",
"318 618 LINE",
"409 618 LINE",
"409 645 LINE SMOOTH",
"409 745 OFFCURVE",
"327 827 OFFCURVE",
"227 827 CURVE SMOOTH",
"127 827 OFFCURVE",
"45 740 OFFCURVE",
"45 645 CURVE SMOOTH",
"45 173 LINE SMOOTH",
"45 80 OFFCURVE",
"115 4 OFFCURVE",
"205 -7 CURVE"
);
}
);
width = 480;
}
);
note = Ccedilla;
unicode = 00C7;
},
{
color = 4;
glyphname = Cdotaccent;
lastChange = "2025-05-06 20:11:14 +0000";
layers = (
{
layerId = "A5D64CBF-1778-47FF-82B6-0C31E83264E6";
paths = (
{
closed = 1;
nodes = (
"45 73 OFFCURVE",
"127 -9 OFFCURVE",
"227 -9 CURVE SMOOTH",
"327 -9 OFFCURVE",
"409 73 OFFCURVE",
"409 173 CURVE SMOOTH",
"409 200 LINE",
"318 200 LINE",
"318 173 LINE SMOOTH",
"318 127 OFFCURVE",
"277 77 OFFCURVE",
"227 77 CURVE SMOOTH",
"177 77 OFFCURVE",
"136 127 OFFCURVE",
"136 173 CURVE SMOOTH",
"136 645 LINE SMOOTH",
"136 691 OFFCURVE",
"177 741 OFFCURVE",
"227 741 CURVE SMOOTH",
"277 741 OFFCURVE",
"318 695 OFFCURVE",
"318 645 CURVE SMOOTH",
"318 618 LINE",
"409 618 LINE",
"409 645 LINE SMOOTH",
"409 745 OFFCURVE",
"327 827 OFFCURVE",
"227 827 CURVE SMOOTH",
"127 827 OFFCURVE",
"45 740 OFFCURVE",
"45 645 CURVE SMOOTH",
"45 173 LINE SMOOTH"
);
},
{
closed = 1;
nodes = (
"169 882 OFFCURVE",
"195 856 OFFCURVE",
"227 856 CURVE SMOOTH",
"258 856 OFFCURVE",
"284 882 OFFCURVE",
"284 914 CURVE SMOOTH",
"284 945 OFFCURVE",
"258 971 OFFCURVE",
"227 971 CURVE SMOOTH",
"195 971 OFFCURVE",
"169 945 OFFCURVE",
"169 914 CURVE SMOOTH"
);
}
);
width = 480;
}
);
unicode = 010A;
},
{
color = 4;
glyphname = D;
lastChange = "2025-05-06 20:11:14 +0000";
layers = (
{
anchors = (
{
name = bottom;
position = "{231, 0}";
},
{
name = ogonek;
position = "{341, 0}";
},
{
name = top;
position = "{231, 818}";
}
);
hints = (
{
horizontal = 1;
place = "{0, 91}";
type = Stem;
},
{
horizontal = 1;
place = "{727, 91}";
type = Stem;
},
{
place = "{45, 91}";
type = Stem;
},
{
place = "{318, 91}";
type = Stem;
}
);
layerId = "A5D64CBF-1778-47FF-82B6-0C31E83264E6";
paths = (
{
closed = 1;
nodes = (
"409 636 LINE SMOOTH",
"409 736 OFFCURVE",
"327 818 OFFCURVE",
"227 818 CURVE SMOOTH",
"45 818 LINE",
"45 0 LINE",
"227 0 LINE SMOOTH",
"327 0 OFFCURVE",
"409 82 OFFCURVE",
"409 182 CURVE SMOOTH"
);
},
{
closed = 1;
nodes = (
"136 727 LINE",
"227 727 LINE SMOOTH",
"277 727 OFFCURVE",
"318 686 OFFCURVE",
"318 636 CURVE SMOOTH",
"318 182 LINE SMOOTH",
"318 132 OFFCURVE",
"277 91 OFFCURVE",
"227 91 CURVE SMOOTH",
"136 91 LINE"
);
}
);
width = 480;
}
);
note = D;
unicode = 0044;
},
{
color = 4;
glyphname = Eth;
lastChange = "2025-05-06 20:11:14 +0000";
layers = (
{
hints = (
{
horizontal = 1;
place = "{0, 91}";
type = Stem;
},
{
horizontal = 1;
place = "{386, 45}";
type = Stem;
},
{
horizontal = 1;
place = "{727, 91}";
type = Stem;
},
{
place = "{136, 91}";
type = Stem;
},
{
place = "{409, 91}";
type = Stem;
}
);
layerId = "A5D64CBF-1778-47FF-82B6-0C31E83264E6";
paths = (
{
closed = 1;
nodes = (
"66 386 LINE",
"66 0 LINE",
"248 0 LINE SMOOTH",
"348 0 OFFCURVE",
"430 82 OFFCURVE",
"430 182 CURVE SMOOTH",
"430 636 LINE SMOOTH",
"430 736 OFFCURVE",
"348 818 OFFCURVE",
"248 818 CURVE SMOOTH",
"66 818 LINE",
"66 432 LINE",
"5 432 LINE",
"5 386 LINE"
);
},
{
closed = 1;
nodes = (
"157 386 LINE",
"218 386 LINE",
"218 432 LINE",
"157 432 LINE",
"157 727 LINE",
"248 727 LINE SMOOTH",
"298 727 OFFCURVE",
"339 686 OFFCURVE",
"339 636 CURVE SMOOTH",
"339 182 LINE SMOOTH",
"339 132 OFFCURVE",
"298 91 OFFCURVE",
"248 91 CURVE SMOOTH",
"157 91 LINE"
);
}
);
width = 480;
}
);
note = Eth;
unicode = 00D0;
},
{
color = 4;
glyphname = Dcaron;
lastChange = "2025-05-06 20:11:14 +0000";
layers = (
{
layerId = "A5D64CBF-1778-47FF-82B6-0C31E83264E6";
paths = (
{
closed = 1;
nodes = (
"409 636 LINE SMOOTH",
"409 736 OFFCURVE",
"327 818 OFFCURVE",
"227 818 CURVE SMOOTH",
"45 818 LINE",
"45 0 LINE",
"227 0 LINE SMOOTH",
"327 0 OFFCURVE",
"409 82 OFFCURVE",
"409 182 CURVE SMOOTH"
);
},
{
closed = 1;
nodes = (
"119 1005 LINE",
"207 919 LINE",
"294 1005 LINE",
"326 974 LINE",
"207 855 LINE",
"88 974 LINE"
);
},
{
closed = 1;
nodes = (
"136 727 LINE",
"227 727 LINE SMOOTH",
"277 727 OFFCURVE",
"318 686 OFFCURVE",
"318 636 CURVE SMOOTH",
"318 182 LINE SMOOTH",
"318 132 OFFCURVE",
"277 91 OFFCURVE",
"227 91 CURVE SMOOTH",
"136 91 LINE"
);
}
);
width = 480;
}
);
unicode = 010E;
},
{
color = 4;
glyphname = Dcroat;
lastChange = "2025-05-06 20:11:14 +0000";
layers = (
{
layerId = "A5D64CBF-1778-47FF-82B6-0C31E83264E6";
paths = (
{
closed = 1;
nodes = (
"66 386 LINE",
"66 0 LINE",
"248 0 LINE SMOOTH",
"348 0 OFFCURVE",
"430 82 OFFCURVE",
"430 182 CURVE SMOOTH",
"430 636 LINE SMOOTH",
"430 736 OFFCURVE",
"348 818 OFFCURVE",
"248 818 CURVE SMOOTH",
"66 818 LINE",
"66 432 LINE",
"5 432 LINE",
"5 386 LINE"
);
},
{
closed = 1;
nodes = (
"157 386 LINE",
"218 386 LINE",
"218 432 LINE",
"157 432 LINE",
"157 727 LINE",
"248 727 LINE SMOOTH",
"298 727 OFFCURVE",
"339 686 OFFCURVE",
"339 636 CURVE SMOOTH",
"339 182 LINE SMOOTH",
"339 132 OFFCURVE",
"298 91 OFFCURVE",
"248 91 CURVE SMOOTH",
"157 91 LINE"
);
}
);
width = 480;
}
);
unicode = 0110;
},
{
color = 4;
glyphname = E;
lastChange = "2025-05-06 20:11:14 +0000";
layers = (
{
anchors = (
{
name = bottom;
position = "{231, 0}";
},
{
name = ogonek;
position = "{393, 0}";
},
{
name = top;
position = "{231, 818}";
}
);
hints = (
{
horizontal = 1;
place = "{0, 20}";
type = Stem;
},
{
horizontal = 1;
place = "{91, 273}";
type = Stem;
},
{
horizontal = 1;
place = "{454, 273}";
type = Stem;
},
{
horizontal = 1;
place = "{818, -20}";
target = down;
type = TopGhost;
}
);
layerId = "A5D64CBF-1778-47FF-82B6-0C31E83264E6";
paths = (
{
closed = 1;
nodes = (
"45 818 LINE",
"45 0 LINE",
"393 0 LINE",
"393 91 LINE",
"136 91 LINE",
"136 374 LINE",
"321 374 LINE",
"321 465 LINE",
"136 465 LINE",
"136 727 LINE",
"393 727 LINE",
"393 818 LINE"
);
}
);
width = 480;
}
);
note = E;
unicode = 0045;
},
{
color = 4;
glyphname = Eacute;
lastChange = "2025-05-06 20:11:14 +0000";
layers = (
{
hints = (
{
horizontal = 1;
place = "{0, 20}";
type = Stem;
},
{
horizontal = 1;
place = "{91, 273}";
type = Stem;
},
{
horizontal = 1;
place = "{454, 273}";
type = Stem;
}
);
layerId = "A5D64CBF-1778-47FF-82B6-0C31E83264E6";
paths = (
{
closed = 1;
nodes = (
"298 985 LINE",
"321 945 LINE",
"164 855 LINE",
"141 895 LINE"
);
},
{
closed = 1;
nodes = (
"393 0 LINE",
"393 91 LINE",
"136 91 LINE",
"136 374 LINE",
"321 374 LINE",
"321 465 LINE",
"136 465 LINE",
"136 727 LINE",
"393 727 LINE",
"393 818 LINE",
"45 818 LINE",
"45 0 LINE"
);
}
);
width = 480;
}
);
note = Eacute;
unicode = 00C9;
},
{
color = 4;
glyphname = Ecaron;
lastChange = "2025-05-06 20:11:14 +0000";
layers = (
{
layerId = "A5D64CBF-1778-47FF-82B6-0C31E83264E6";
paths = (
{
closed = 1;
nodes = (
"108 974 LINE",
"139 1005 LINE",
"227 919 LINE",
"314 1005 LINE",
"346 974 LINE",
"227 855 LINE"
);
},
{
closed = 1;
nodes = (
"393 0 LINE",
"393 91 LINE",
"136 91 LINE",
"136 374 LINE",
"321 374 LINE",
"321 465 LINE",
"136 465 LINE",
"136 727 LINE",
"393 727 LINE",
"393 818 LINE",
"45 818 LINE",
"45 0 LINE"
);
}
);
width = 480;
}
);
unicode = 011A;
},
{
color = 4;
glyphname = Ecircumflex;
lastChange = "2025-05-06 20:11:14 +0000";
layers = (
{
hints = (
{
horizontal = 1;
place = "{0, 20}";
type = Stem;
},
{
horizontal = 1;
place = "{91, 273}";
type = Stem;
},
{
horizontal = 1;
place = "{454, 273}";
type = Stem;
}
);
layerId = "A5D64CBF-1778-47FF-82B6-0C31E83264E6";
paths = (
{
closed = 1;
nodes = (
"346 886 LINE",
"315 855 LINE",
"227 941 LINE",
"140 855 LINE",
"108 886 LINE",
"227 1005 LINE"
);
},
{
closed = 1;
nodes = (
"393 0 LINE",
"393 91 LINE",
"136 91 LINE",
"136 374 LINE",
"321 374 LINE",
"321 465 LINE",
"136 465 LINE",
"136 727 LINE",
"393 727 LINE",
"393 818 LINE",
"45 818 LINE",
"45 0 LINE"
);
}
);
width = 480;
}
);
note = Ecircumflex;
unicode = 00CA;
},
{
color = 4;
glyphname = Edieresis;
lastChange = "2025-05-06 20:11:14 +0000";
layers = (
{
hints = (
{
horizontal = 1;
place = "{0, 20}";
type = Stem;
},
{
horizontal = 1;
place = "{91, 273}";
type = Stem;
},
{
horizontal = 1;
place = "{454, 273}";
type = Stem;
},
{
horizontal = 1;
place = "{864, 100}";
type = Stem;
},
{
place = "{77, 101}";
type = Stem;
},
{
place = "{278, 101}";
type = Stem;
}
);
layerId = "A5D64CBF-1778-47FF-82B6-0C31E83264E6";
paths = (
{
closed = 1;
nodes = (
"99 864 OFFCURVE",
"77 886 OFFCURVE",
"77 914 CURVE SMOOTH",
"77 941 OFFCURVE",
"100 964 OFFCURVE",
"127 964 CURVE SMOOTH",
"155 964 OFFCURVE",
"178 941 OFFCURVE",
"178 914 CURVE SMOOTH",
"178 886 OFFCURVE",
"155 864 OFFCURVE",
"127 864 CURVE SMOOTH"
);
},
{
closed = 1;
nodes = (
"393 0 LINE",
"393 91 LINE",
"136 91 LINE",
"136 374 LINE",
"321 374 LINE",
"321 465 LINE",
"136 465 LINE",
"136 727 LINE",
"393 727 LINE",
"393 818 LINE",
"45 818 LINE",
"45 0 LINE"
);
},
{
closed = 1;
nodes = (
"278 941 OFFCURVE",
"301 964 OFFCURVE",
"328 964 CURVE SMOOTH",
"355 964 OFFCURVE",
"379 941 OFFCURVE",
"379 914 CURVE SMOOTH",
"379 886 OFFCURVE",
"356 864 OFFCURVE",
"328 864 CURVE SMOOTH",
"300 864 OFFCURVE",
"278 886 OFFCURVE",
"278 914 CURVE SMOOTH"
);
}
);
width = 480;
}
);
note = Edieresis;
unicode = 00CB;
},
{
color = 4;
glyphname = Edotaccent;
lastChange = "2025-05-06 20:11:14 +0000";
layers = (
{
layerId = "A5D64CBF-1778-47FF-82B6-0C31E83264E6";
paths = (
{
closed = 1;
nodes = (
"192 864 OFFCURVE",
"170 886 OFFCURVE",
"170 914 CURVE SMOOTH",
"170 941 OFFCURVE",
"193 964 OFFCURVE",
"220 964 CURVE SMOOTH",
"247 964 OFFCURVE",
"271 941 OFFCURVE",
"271 914 CURVE SMOOTH",
"271 886 OFFCURVE",
"248 864 OFFCURVE",
"220 864 CURVE SMOOTH"
);
},
{
closed = 1;
nodes = (
"393 0 LINE",
"393 91 LINE",
"136 91 LINE",
"136 374 LINE",
"321 374 LINE",
"321 465 LINE",
"136 465 LINE",
"136 727 LINE",
"393 727 LINE",
"393 818 LINE",
"45 818 LINE",
"45 0 LINE"
);
}
);
width = 480;
}
);
unicode = 0116;
},
{
color = 4;
glyphname = Egrave;
lastChange = "2025-05-06 20:11:14 +0000";
layers = (
{
hints = (
{
horizontal = 1;
place = "{0, 20}";
type = Stem;
},
{
horizontal = 1;
place = "{91, 273}";
type = Stem;
},
{
horizontal = 1;
place = "{454, 273}";
type = Stem;
}
);
layerId = "A5D64CBF-1778-47FF-82B6-0C31E83264E6";
paths = (
{
closed = 1;
nodes = (
"141 945 LINE",
"163 985 LINE",
"321 895 LINE",
"297 855 LINE"
);
},
{
closed = 1;
nodes = (
"393 0 LINE",
"393 91 LINE",
"136 91 LINE",
"136 374 LINE",
"321 374 LINE",
"321 465 LINE",
"136 465 LINE",
"136 727 LINE",
"393 727 LINE",
"393 818 LINE",
"45 818 LINE",
"45 0 LINE"
);
}
);
width = 480;
}
);
note = Egrave;
unicode = 00C8;
},
{
color = 4;
glyphname = Emacron;
lastChange = "2025-05-06 20:11:14 +0000";
layers = (
{
layerId = "A5D64CBF-1778-47FF-82B6-0C31E83264E6";
paths = (
{
closed = 1;
nodes = (
"323 886 LINE",
"323 932 LINE",
"141 932 LINE",
"141 886 LINE"
);
},
{
closed = 1;
nodes = (
"393 0 LINE",
"393 91 LINE",
"136 91 LINE",
"136 374 LINE",
"321 374 LINE",
"321 465 LINE",
"136 465 LINE",
"136 727 LINE",
"393 727 LINE",
"393 818 LINE",
"45 818 LINE",
"45 0 LINE"
);
}
);
width = 480;
}
);
unicode = 0112;
},
{
color = 4;
glyphname = Eogonek;
lastChange = "2025-05-06 20:11:14 +0000";
layers = (
{
layerId = "A5D64CBF-1778-47FF-82B6-0C31E83264E6";
paths = (
{
closed = 1;
nodes = (
"369 -31 OFFCURVE",
"380 -26 OFFCURVE",
"393 -26 CURVE",
"393 91 LINE",
"136 91 LINE",
"136 374 LINE",
"321 374 LINE",
"321 465 LINE",
"136 465 LINE",
"136 727 LINE",
"393 727 LINE",
"393 818 LINE",
"45 818 LINE",
"45 0 LINE",
"337.154 0 LINE",
"316.302 -16.993 OFFCURVE",
"303 -43.166 OFFCURVE",
"303 -72 CURVE SMOOTH",
"303 -122 OFFCURVE",
"343 -163 OFFCURVE",
"393 -163 CURVE SMOOTH",
"416 -163 OFFCURVE",
"439 -154 OFFCURVE",
"457 -136 CURVE",
"425 -104 LINE",
"408 -122 OFFCURVE",
"380 -122 OFFCURVE",
"362 -104 CURVE",
"353 -96 OFFCURVE",
"348 -84 OFFCURVE",
"348 -72 CURVE SMOOTH",
"348 -63 OFFCURVE",
"351 -54 OFFCURVE",
"356 -46 CURVE",
"361 -40 LINE SMOOTH"
);
}
);
width = 480;
}
);
unicode = 0118;
},
{
color = 4;
glyphname = F;
lastChange = "2025-05-06 20:11:14 +0000";
layers = (
{
background = {
paths = (
{
closed = 1;
nodes = (
"136 0 LINE",
"136 364 LINE",
"318 364 LINE",
"318 455 LINE",
"136 455 LINE",
"136 727 LINE",
"409 727 LINE",
"409 818 LINE",
"45 818 LINE",
"45 0 LINE"
);
}
);
};
hints = (
{
horizontal = 1;
place = "{0, 20}";
type = Stem;
},
{
horizontal = 1;
place = "{454, 273}";
type = Stem;
},
{
horizontal = 1;
place = "{818, -20}";
target = down;
type = TopGhost;
}
);
layerId = "A5D64CBF-1778-47FF-82B6-0C31E83264E6";
paths = (
{
closed = 1;
nodes = (
"136 0 LINE",
"136 374 LINE",
"411 374 LINE",
"411 465 LINE",
"136 465 LINE",
"136 727 LINE",
"452 727 LINE",
"452 818 LINE",
"45 818 LINE",
"45 0 LINE"
);
}
);
width = 480;
}
);
note = F;
unicode = 0046;
},
{
color = 4;
glyphname = G;
lastChange = "2025-05-06 20:11:14 +0000";
layers = (
{
anchors = (
{
name = bottom;
position = "{231, 0}";
},
{
name = ogonek;
position = "{341, 0}";
},
{
name = top;
position = "{231, 818}";
}
);
hints = (
{
horizontal = 1;
place = "{-9, 20}";
type = Stem;
},
{
horizontal = 1;
place = "{82, 282}";
type = Stem;
},
{
horizontal = 1;
place = "{455, 159}";
type = Stem;
},
{
horizontal = 1;
place = "{827, -20}";
target = down;
type = TopGhost;
},
{
place = "{136, 91}";
type = Stem;
}
);
layerId = "A5D64CBF-1778-47FF-82B6-0C31E83264E6";
paths = (
{
closed = 1;
nodes = (
"50 84.208 OFFCURVE",
"114.649 9.607 OFFCURVE",
"199.145 -6 CURVE SMOOTH",
"209.81 -7.97 OFFCURVE",
"220.792 -9 OFFCURVE",
"232 -9 CURVE SMOOTH",
"243.208 -9 OFFCURVE",
"254.19 -7.97 OFFCURVE",
"264.855 -6 CURVE SMOOTH",
"349.351 9.607 OFFCURVE",
"414 84.208 OFFCURVE",
"414 173 CURVE SMOOTH",
"414 465 LINE",
"232 465 LINE",
"232 374 LINE",
"323 374 LINE",
"323 173 LINE SMOOTH",
"323 123 OFFCURVE",
"282 82 OFFCURVE",
"232 82 CURVE SMOOTH",
"182 82 OFFCURVE",
"141 123 OFFCURVE",
"141 173 CURVE SMOOTH",
"141 645 LINE SMOOTH",
"141 691 OFFCURVE",
"182 741 OFFCURVE",
"232 741 CURVE SMOOTH",
"282 741 OFFCURVE",
"323 695 OFFCURVE",
"323 645 CURVE SMOOTH",
"323 618 LINE",
"414 618 LINE",
"414 645 LINE SMOOTH",
"414 745 OFFCURVE",
"332 827 OFFCURVE",
"232 827 CURVE SMOOTH",
"132 827 OFFCURVE",
"50 740 OFFCURVE",
"50 645 CURVE SMOOTH",
"50 173 LINE SMOOTH"
);
}
);
width = 480;
}
);
note = G;
unicode = 0047;
},
{
color = 4;
glyphname = Gbreve;
lastChange = "2025-05-06 20:11:14 +0000";
layers = (
{
layerId = "A5D64CBF-1778-47FF-82B6-0C31E83264E6";
paths = (
{
closed = 1;
nodes = (
"151 901 OFFCURVE",
"191 861 OFFCURVE",
"241 861 CURVE SMOOTH",
"291 861 OFFCURVE",
"332 901 OFFCURVE",
"332 951 CURVE",
"287 951 LINE",
"287 926 OFFCURVE",
"267 906 OFFCURVE",
"241 906 CURVE SMOOTH",
"217 906 OFFCURVE",
"197 926 OFFCURVE",
"197 951 CURVE",
"151 951 LINE"
);
},
{
closed = 1;
nodes = (
"50 84.208 OFFCURVE",
"114.649 9.607 OFFCURVE",
"199.145 -6 CURVE SMOOTH",
"209.81 -7.97 OFFCURVE",
"220.792 -9 OFFCURVE",
"232 -9 CURVE SMOOTH",
"243.208 -9 OFFCURVE",
"254.19 -7.97 OFFCURVE",
"264.855 -6 CURVE SMOOTH",
"349.351 9.607 OFFCURVE",
"414 84.208 OFFCURVE",
"414 173 CURVE SMOOTH",
"414 465 LINE",
"232 465 LINE",
"232 374 LINE",
"323 374 LINE",
"323 173 LINE SMOOTH",
"323 123 OFFCURVE",
"282 82 OFFCURVE",
"232 82 CURVE SMOOTH",
"182 82 OFFCURVE",
"141 123 OFFCURVE",
"141 173 CURVE SMOOTH",
"141 645 LINE SMOOTH",
"141 691 OFFCURVE",
"182 741 OFFCURVE",
"232 741 CURVE SMOOTH",
"282 741 OFFCURVE",
"323 695 OFFCURVE",
"323 645 CURVE SMOOTH",
"323 618 LINE",
"414 618 LINE",
"414 645 LINE SMOOTH",
"414 745 OFFCURVE",
"332 827 OFFCURVE",
"232 827 CURVE SMOOTH",
"132 827 OFFCURVE",
"50 740 OFFCURVE",
"50 645 CURVE SMOOTH",
"50 173 LINE SMOOTH"
);
}
);
width = 480;
}
);
unicode = 011E;
},
{
color = 4;
glyphname = Gcommaaccent;
lastChange = "2025-05-06 20:11:14 +0000";
layers = (
{
layerId = "A5D64CBF-1778-47FF-82B6-0C31E83264E6";
paths = (
{
closed = 1;
nodes = (
"149 -188 LINE",
"191 -210 LINE",
"274 -48 LINE",
"233 -27 LINE"
);
},
{
closed = 1;
nodes = (
"50 84.208 OFFCURVE",
"114.649 9.607 OFFCURVE",
"199.145 -6 CURVE SMOOTH",
"209.81 -7.97 OFFCURVE",
"220.792 -9 OFFCURVE",
"232 -9 CURVE SMOOTH",
"243.208 -9 OFFCURVE",
"254.19 -7.97 OFFCURVE",
"264.855 -6 CURVE SMOOTH",
"349.351 9.607 OFFCURVE",
"414 84.208 OFFCURVE",
"414 173 CURVE SMOOTH",
"414 465 LINE",
"232 465 LINE",
"232 374 LINE",
"323 374 LINE",
"323 173 LINE SMOOTH",
"323 123 OFFCURVE",
"282 82 OFFCURVE",
"232 82 CURVE SMOOTH",
"182 82 OFFCURVE",
"141 123 OFFCURVE",
"141 173 CURVE SMOOTH",
"141 645 LINE SMOOTH",
"141 691 OFFCURVE",
"182 741 OFFCURVE",
"232 741 CURVE SMOOTH",
"282 741 OFFCURVE",
"323 695 OFFCURVE",
"323 645 CURVE SMOOTH",
"323 618 LINE",
"414 618 LINE",
"414 645 LINE SMOOTH",
"414 745 OFFCURVE",
"332 827 OFFCURVE",
"232 827 CURVE SMOOTH",
"132 827 OFFCURVE",
"50 740 OFFCURVE",
"50 645 CURVE SMOOTH",
"50 173 LINE SMOOTH"
);
}
);
width = 480;
}
);
unicode = 0122;
},
{
color = 4;
glyphname = Gdotaccent;
lastChange = "2025-05-06 20:11:14 +0000";
layers = (
{
layerId = "A5D64CBF-1778-47FF-82B6-0C31E83264E6";
paths = (
{
closed = 1;
nodes = (
"202 864 OFFCURVE",
"180 886 OFFCURVE",
"180 914 CURVE SMOOTH",
"180 941 OFFCURVE",
"203 964 OFFCURVE",
"230 964 CURVE SMOOTH",
"257 964 OFFCURVE",
"281 941 OFFCURVE",
"281 914 CURVE SMOOTH",
"281 886 OFFCURVE",
"258 864 OFFCURVE",
"230 864 CURVE SMOOTH"
);
},
{
closed = 1;
nodes = (
"50 84.208 OFFCURVE",
"114.649 9.607 OFFCURVE",
"199.145 -6 CURVE SMOOTH",
"209.81 -7.97 OFFCURVE",
"220.792 -9 OFFCURVE",
"232 -9 CURVE SMOOTH",
"243.208 -9 OFFCURVE",
"254.19 -7.97 OFFCURVE",
"264.855 -6 CURVE SMOOTH",
"349.351 9.607 OFFCURVE",
"414 84.208 OFFCURVE",
"414 173 CURVE SMOOTH",
"414 465 LINE",
"232 465 LINE",
"232 374 LINE",
"323 374 LINE",
"323 173 LINE SMOOTH",
"323 123 OFFCURVE",
"282 82 OFFCURVE",
"232 82 CURVE SMOOTH",
"182 82 OFFCURVE",
"141 123 OFFCURVE",
"141 173 CURVE SMOOTH",
"141 645 LINE SMOOTH",
"141 691 OFFCURVE",
"182 741 OFFCURVE",
"232 741 CURVE SMOOTH",
"282 741 OFFCURVE",
"323 695 OFFCURVE",
"323 645 CURVE SMOOTH",
"323 618 LINE",
"414 618 LINE",
"414 645 LINE SMOOTH",
"414 745 OFFCURVE",
"332 827 OFFCURVE",
"232 827 CURVE SMOOTH",
"132 827 OFFCURVE",
"50 740 OFFCURVE",
"50 645 CURVE SMOOTH",
"50 173 LINE SMOOTH"
);
}
);
width = 480;
}
);
unicode = 0120;
},
{
color = 4;
glyphname = H;
lastChange = "2025-05-06 20:11:14 +0000";
layers = (
{
hints = (
{
horizontal = 1;
place = "{0, 20}";
type = Stem;
},
{
horizontal = 1;
place = "{364, 91}";
type = Stem;
},
{
horizontal = 1;
place = "{817, 25}";
type = Stem;
},
{
place = "{45, 91}";
type = Stem;
},
{
place = "{318, 91}";
type = Stem;
},
{
place = "{8, 45}";
type = Stem;
}
);
layerId = "A5D64CBF-1778-47FF-82B6-0C31E83264E6";
paths = (
{
closed = 1;
nodes = (
"45 0 LINE",
"136 0 LINE",
"136 374 LINE",
"318 374 LINE",
"318 0 LINE",
"409 0 LINE",
"409 818 LINE",
"318 818 LINE",
"318 465 LINE",
"136 465 LINE",
"136 818 LINE",
"45 818 LINE"
);
}
);
width = 480;
}
);
note = H;
unicode = 0048;
},
{
color = 4;
glyphname = Hbar;
lastChange = "2025-05-06 20:11:14 +0000";
layers = (
{
layerId = "A5D64CBF-1778-47FF-82B6-0C31E83264E6";
paths = (
{
closed = 1;
nodes = (
"45 623 LINE",
"9 623 LINE",
"9 578 LINE",
"45 578 LINE",
"45 0 LINE",
"136 0 LINE",
"136 374 LINE",
"318 374 LINE",
"318 0 LINE",
"409 0 LINE",
"409 578 LINE",
"445 578 LINE",
"445 623 LINE",
"409 623 LINE",
"409 818 LINE",
"318 818 LINE",
"318 623 LINE",
"136 623 LINE",
"136 818 LINE",
"45 818 LINE"
);
},
{
closed = 1;
nodes = (
"136 578 LINE",
"318 578 LINE",
"318 465 LINE",
"136 465 LINE"
);
}
);
width = 480;
}
);
unicode = 0126;
},
{
color = 4;
glyphname = I;
lastChange = "2025-05-06 20:11:14 +0000";
layers = (
{
anchors = (
{
name = bottom;
position = "{112, 0}";
},
{
name = ogonek;
position = "{156, 0}";
},
{
name = top;
position = "{112, 818}";
}
);
hints = (
{
horizontal = 1;
place = "{0, 20}";
type = Stem;
},
{
horizontal = 1;
place = "{818, -20}";
target = down;
type = TopGhost;
},
{
place = "{45, 91}";
type = Stem;
}
);
layerId = "A5D64CBF-1778-47FF-82B6-0C31E83264E6";
paths = (
{
closed = 1;
nodes = (
"65 0 LINE",
"156 0 LINE",
"156 818 LINE",
"65 818 LINE"
);
}
);
width = 240;
}
);
note = I;
unicode = 0049;
},
{
color = 4;
glyphname = Iacute;
lastChange = "2025-05-06 20:11:14 +0000";
layers = (
{
anchors = (
{
name = "new anchor";
position = "{97, -79}";
}
);
hints = (
{
horizontal = 1;
place = "{0, 20}";
type = Stem;
}
);
layerId = "A5D64CBF-1778-47FF-82B6-0C31E83264E6";
paths = (
{
closed = 1;
nodes = (
"156 0 LINE",
"156 818 LINE",
"65 818 LINE",
"65 0 LINE"
);
},
{
closed = 1;
nodes = (
"217 1045 LINE",
"240 1005 LINE",
"83 915 LINE",
"60 955 LINE"
);
}
);
width = 240;
}
);
note = Iacute;
unicode = 00CD;
},
{
color = 4;
glyphname = Icircumflex;
lastChange = "2025-05-06 20:11:14 +0000";
layers = (
{
hints = (
{
horizontal = 1;
place = "{0, 20}";
type = Stem;
}
);
layerId = "A5D64CBF-1778-47FF-82B6-0C31E83264E6";
paths = (
{
closed = 1;
nodes = (
"156 0 LINE",
"156 818 LINE",
"65 818 LINE",
"65 0 LINE"
);
},
{
closed = 1;
nodes = (
"110 1005 LINE",
"229 885 LINE",
"197 854 LINE",
"110 940 LINE",
"23 854 LINE",
"-9 885 LINE"
);
}
);
width = 240;
}
);
note = Icircumflex;
unicode = 00CE;
},
{
color = 4;
glyphname = Idieresis;
lastChange = "2025-05-06 20:11:14 +0000";
layers = (
{
hints = (
{
horizontal = 1;
place = "{0, 20}";
type = Stem;
},
{
horizontal = 1;
place = "{905, 100}";
type = Stem;
},
{
place = "{-24, 101}";
type = Stem;
},
{
place = "{104, 101}";
type = Stem;
}
);
layerId = "A5D64CBF-1778-47FF-82B6-0C31E83264E6";
paths = (
{
closed = 1;
nodes = (
"156 0 LINE",
"156 818 LINE",
"65 818 LINE",
"65 0 LINE"
);
},
{
closed = 1;
nodes = (
"-4 982 OFFCURVE",
"18 1005 OFFCURVE",
"46 1005 CURVE SMOOTH",
"75 1005 OFFCURVE",
"97 982 OFFCURVE",
"97 955 CURVE SMOOTH",
"97 927 OFFCURVE",
"75 905 OFFCURVE",
"46 905 CURVE SMOOTH",
"18 905 OFFCURVE",
"-4 927 OFFCURVE",
"-4 955 CURVE SMOOTH"
);
},
{
closed = 1;
nodes = (
"125 982 OFFCURVE",
"147 1005 OFFCURVE",
"175 1005 CURVE SMOOTH",
"202 1005 OFFCURVE",
"225 982 OFFCURVE",
"225 955 CURVE SMOOTH",
"225 927 OFFCURVE",
"203 905 OFFCURVE",
"175 905 CURVE SMOOTH",
"146 905 OFFCURVE",
"125 927 OFFCURVE",
"125 955 CURVE SMOOTH"
);
}
);
width = 240;
}
);
note = Idieresis;
unicode = 00CF;
},
{
color = 4;
glyphname = Idotaccent;
lastChange = "2025-05-06 20:11:14 +0000";
layers = (
{
layerId = "A5D64CBF-1778-47FF-82B6-0C31E83264E6";
paths = (
{
closed = 1;
nodes = (
"84 864 OFFCURVE",
"62 886 OFFCURVE",
"62 914 CURVE SMOOTH",
"62 941 OFFCURVE",
"85 964 OFFCURVE",
"112 964 CURVE SMOOTH",
"139 964 OFFCURVE",
"163 941 OFFCURVE",
"163 914 CURVE SMOOTH",
"163 886 OFFCURVE",
"140 864 OFFCURVE",
"112 864 CURVE SMOOTH"
);
},
{
closed = 1;
nodes = (
"156 0 LINE",
"156 818 LINE",
"65 818 LINE",
"65 0 LINE"
);
}
);
width = 240;
}
);
unicode = 0130;
},
{
color = 4;
glyphname = Igrave;
lastChange = "2025-05-06 20:11:14 +0000";
layers = (
{
hints = (
{
horizontal = 1;
place = "{0, 20}";
type = Stem;
}
);
layerId = "A5D64CBF-1778-47FF-82B6-0C31E83264E6";
paths = (
{
closed = 1;
nodes = (
"156 0 LINE",
"156 818 LINE",
"65 818 LINE",
"65 0 LINE"
);
},
{
closed = 1;
nodes = (
"3 1045 LINE",
"161 955 LINE",
"137 915 LINE",
"-19 1005 LINE"
);
}
);
width = 240;
}
);
note = Igrave;
unicode = 00CC;
},
{
color = 4;
glyphname = Imacron;
lastChange = "2025-05-06 20:11:14 +0000";
layers = (
{
layerId = "A5D64CBF-1778-47FF-82B6-0C31E83264E6";
paths = (
{
closed = 1;
nodes = (
"200 886 LINE",
"200 932 LINE",
"18 932 LINE",
"18 886 LINE"
);
},
{
closed = 1;
nodes = (
"156 0 LINE",
"156 818 LINE",
"65 818 LINE",
"65 0 LINE"
);
}
);
width = 240;
}
);
unicode = 012A;
},
{
color = 4;
glyphname = Iogonek;
lastChange = "2025-05-06 20:11:14 +0000";
layers = (
{
layerId = "A5D64CBF-1778-47FF-82B6-0C31E83264E6";
paths = (
{
closed = 1;
nodes = (
"65 0 LINE",
"100.154 0 LINE",
"79.302 -16.993 OFFCURVE",
"66 -43.166 OFFCURVE",
"66 -72 CURVE SMOOTH",
"66 -122 OFFCURVE",
"106 -163 OFFCURVE",
"156 -163 CURVE SMOOTH",
"179 -163 OFFCURVE",
"202 -154 OFFCURVE",
"220 -136 CURVE",
"188 -104 LINE",
"171 -122 OFFCURVE",
"143 -122 OFFCURVE",
"125 -104 CURVE",
"116 -96 OFFCURVE",
"111 -84 OFFCURVE",
"111 -72 CURVE SMOOTH",
"111 -63 OFFCURVE",
"114 -54 OFFCURVE",
"119 -46 CURVE",
"124 -40 LINE SMOOTH",
"132 -31 OFFCURVE",
"143 -26 OFFCURVE",
"156 -26 CURVE",
"156 818 LINE",
"65 818 LINE"
);
}
);
width = 240;
}
);
unicode = 012E;
},
{
color = 4;
glyphname = J;
lastChange = "2025-05-06 20:11:14 +0000";
layers = (
{
anchors = (
{
name = top;
position = "{359, 818}";
}
);
hints = (
{
horizontal = 1;
place = "{-182, 91}";
type = Stem;
},
{
horizontal = 1;
place = "{818, -20}";
target = down;
type = TopGhost;
},
{
place = "{45, 91}";
type = Stem;
}
);
layerId = "A5D64CBF-1778-47FF-82B6-0C31E83264E6";
paths = (
{
closed = 1;
nodes = (
"45 67 OFFCURVE",
"127 -15 OFFCURVE",
"227 -15 CURVE SMOOTH",
"327 -15 OFFCURVE",
"409 67 OFFCURVE",
"409 167 CURVE SMOOTH",
"409 818 LINE",
"318 818 LINE",
"318 167 LINE SMOOTH",
"318 117 OFFCURVE",
"277 76 OFFCURVE",
"227 76 CURVE SMOOTH",
"177 76 OFFCURVE",
"136 117 OFFCURVE",
"136 167 CURVE SMOOTH",
"136 212 LINE",
"45 212 LINE",
"45 167 LINE SMOOTH"
);
}
);
width = 480;
}
);
note = J;
unicode = 004A;
},
{
color = 5;
glyphname = K;
lastChange = "2025-05-06 20:11:14 +0000";
layers = (
{
anchors = (
{
name = bottom;
position = "{231, 0}";
},
{
name = ogonek;
position = "{341, 0}";
},
{
name = top;
position = "{231, 818}";
}
);
hints = (
{
horizontal = 1;
place = "{0, 20}";
type = Stem;
},
{
horizontal = 1;
place = "{818, -20}";
target = down;
type = TopGhost;
},
{
place = "{45, 101}";
type = Stem;
}
);
layerId = "A5D64CBF-1778-47FF-82B6-0C31E83264E6";
paths = (
{
closed = 1;
nodes = (
"45 0 LINE",
"136 0 LINE",
"136 297.745 LINE",
"189.872 381.911 LINE",
"379 0 LINE",
"478 0 LINE",
"244.428 467.145 LINE",
"469 818 LINE",
"367 818 LINE",
"136 459.469 LINE",
"136 818 LINE",
"45 818 LINE"
);
}
);
width = 480;
}
);
note = K;
unicode = 004B;
},
{
color = 4;
glyphname = Kcommaaccent;
lastChange = "2025-05-06 20:11:14 +0000";
layers = (
{
layerId = "A5D64CBF-1778-47FF-82B6-0C31E83264E6";
paths = (
{
closed = 1;
nodes = (
"149 -188 LINE",
"191 -210 LINE",
"274 -48 LINE",
"233 -27 LINE"
);
},
{
closed = 1;
nodes = (
"136 0 LINE",
"136 297.745 LINE",
"189.848 381.873 LINE",
"379 -1 LINE",
"478 0 LINE",
"244.428 467.145 LINE",
"469 818 LINE",
"367 818 LINE",
"136 459.469 LINE",
"136 818 LINE",
"45 818 LINE",
"45 0 LINE"
);
}
);
width = 480;
}
);
unicode = 0136;
},
{
color = 4;
glyphname = L;
lastChange = "2025-05-06 20:11:14 +0000";
layers = (
{
anchors = (
{
name = bottom;
position = "{231, 0}";
},
{
name = ogonek;
position = "{341, 0}";
},
{
name = top;
position = "{90, 818}";
}
);
hints = (
{
horizontal = 1;
place = "{0, 20}";
type = Stem;
},
{
horizontal = 1;
place = "{818, -20}";
target = down;
type = TopGhost;
}
);
layerId = "A5D64CBF-1778-47FF-82B6-0C31E83264E6";
paths = (
{
closed = 1;
nodes = (
"440 0 LINE",
"440 91 LINE",
"136 91 LINE",
"136 818 LINE",
"45 818 LINE",
"45 0 LINE"
);
}
);
width = 480;
}
);
note = L;
unicode = 004C;
},
{
color = 4;
glyphname = Lacute;
lastChange = "2025-05-06 20:11:14 +0000";
layers = (
{
layerId = "A5D64CBF-1778-47FF-82B6-0C31E83264E6";
paths = (
{
closed = 1;
nodes = (
"124 893 LINE",
"147 853 LINE",
"304 944 LINE",
"281 984 LINE"
);
},
{
closed = 1;
nodes = (
"440 0 LINE",
"440 91 LINE",
"136 91 LINE",
"136 818 LINE",
"45 818 LINE",
"45 0 LINE"
);
}
);
width = 480;
}
);
unicode = 0139;
},
{
color = 4;
glyphname = Lcaron;
lastChange = "2025-05-06 20:11:14 +0000";
layers = (
{
layerId = "A5D64CBF-1778-47FF-82B6-0C31E83264E6";
paths = (
{
closed = 1;
nodes = (
"440 0 LINE",
"440 91 LINE",
"136 91 LINE",
"136 818 LINE",
"45 818 LINE",
"45 0 LINE"
);
},
{
closed = 1;
nodes = (
"211 635 LINE",
"294 797 LINE",
"253 818 LINE",
"169 657 LINE"
);
}
);
width = 480;
}
);
unicode = 013D;
},
{
color = 4;
glyphname = Lcommaaccent;
lastChange = "2025-05-06 20:11:14 +0000";
layers = (
{
layerId = "A5D64CBF-1778-47FF-82B6-0C31E83264E6";
paths = (
{
closed = 1;
nodes = (
"149 -188 LINE",
"191 -210 LINE",
"274 -48 LINE",
"233 -27 LINE"
);
},
{
closed = 1;
nodes = (
"440 0 LINE",
"440 91 LINE",
"136 91 LINE",
"136 818 LINE",
"45 818 LINE",
"45 0 LINE"
);
}
);
width = 480;
}
);
unicode = 013B;
},
{
color = 4;
glyphname = Lslash;
lastChange = "2025-05-06 20:11:14 +0000";
layers = (
{
hints = (
{
horizontal = 1;
place = "{0, 20}";
type = Stem;
},
{
horizontal = 1;
place = "{818, -20}";
target = down;
type = TopGhost;
}
);
layerId = "A5D64CBF-1778-47FF-82B6-0C31E83264E6";
paths = (
{
closed = 1;
nodes = (
"45 0 LINE",
"440 0 LINE",
"440 91 LINE",
"136 91 LINE",
"136 387 LINE",
"203 454 LINE",
"170 486 LINE",
"136 453 LINE",
"136 818 LINE",
"45 818 LINE",
"45 362 LINE",
"-23 294 LINE",
"10 261 LINE",
"45 296 LINE"
);
}
);
width = 480;
}
);
note = Lslash;
unicode = 0141;
},
{
color = 4;
glyphname = M;
lastChange = "2025-05-06 20:11:14 +0000";
layers = (
{
hints = (
{
horizontal = 1;
place = "{0, 20}";
type = Stem;
},
{
horizontal = 1;
place = "{818, -20}";
target = down;
type = TopGhost;
},
{
place = "{136, 273}";
type = Stem;
}
);
layerId = "A5D64CBF-1778-47FF-82B6-0C31E83264E6";
paths = (
{
closed = 1;
nodes = (
"146 0 LINE",
"146 605 LINE",
"310 182 LINE",
"382 182 LINE",
"546 605 LINE",
"546 0 LINE",
"637 0 LINE",
"637 818 LINE",
"536 818 LINE",
"346 335 LINE",
"156 818 LINE",
"55 818 LINE",
"55 0 LINE"
);
}
);
width = 720;
}
);
note = M;
unicode = 004D;
},
{
color = 4;
glyphname = N;
lastChange = "2025-05-06 20:11:14 +0000";
layers = (
{
anchors = (
{
name = bottom;
position = "{231, 0}";
},
{
name = ogonek;
position = "{341, 0}";
},
{
name = top;
position = "{231, 818}";
}
);
hints = (
{
horizontal = 1;
place = "{0, 20}";
type = Stem;
},
{
horizontal = 1;
place = "{818, -20}";
target = down;
type = TopGhost;
}
);
layerId = "A5D64CBF-1778-47FF-82B6-0C31E83264E6";
paths = (
{
closed = 1;
nodes = (
"419 0 LINE",
"419 818 LINE",
"329 818 LINE",
"329 262 LINE",
"131 818 LINE",
"45 818 LINE",
"45 0 LINE",
"135 0 LINE",
"135 556 LINE",
"333 0 LINE"
);
}
);
width = 480;
}
);
note = N;
unicode = 004E;
},
{
color = 4;
glyphname = Nacute;
lastChange = "2025-05-06 20:11:14 +0000";
layers = (
{
layerId = "A5D64CBF-1778-47FF-82B6-0C31E83264E6";
paths = (
{
closed = 1;
nodes = (
"419 0 LINE",
"419 818 LINE",
"329 818 LINE",
"329 262 LINE",
"131 818 LINE",
"45 818 LINE",
"45 0 LINE",
"135 0 LINE",
"135 556 LINE",
"333 0 LINE"
);
},
{
closed = 1;
nodes = (
"164 853 LINE",
"321 944 LINE",
"298 984 LINE",
"141 893 LINE"
);
}
);
width = 480;
}
);
unicode = 0143;
},
{
color = 4;
glyphname = Ncaron;
lastChange = "2025-05-06 20:11:14 +0000";
layers = (
{
layerId = "A5D64CBF-1778-47FF-82B6-0C31E83264E6";
paths = (
{
closed = 1;
nodes = (
"108 974 LINE",
"139 1005 LINE",
"227 919 LINE",
"314 1005 LINE",
"346 974 LINE",
"227 855 LINE"
);
},
{
closed = 1;
nodes = (
"135 0 LINE",
"135 556 LINE",
"333 0 LINE",
"419 0 LINE",
"419 818 LINE",
"329 818 LINE",
"329 262 LINE",
"131 818 LINE",
"45 818 LINE",
"45 0 LINE"
);
}
);
width = 480;
}
);
unicode = 0147;
},
{
color = 4;
glyphname = Ncommaaccent;
lastChange = "2025-05-06 20:11:14 +0000";
layers = (
{
layerId = "A5D64CBF-1778-47FF-82B6-0C31E83264E6";
paths = (
{
closed = 1;
nodes = (
"149 -188 LINE",
"191 -210 LINE",
"274 -48 LINE",
"233 -27 LINE"
);
},
{
closed = 1;
nodes = (
"135 0 LINE",
"135 556 LINE",
"333 0 LINE",
"419 0 LINE",
"419 818 LINE",
"329 818 LINE",
"329 262 LINE",
"131 818 LINE",
"45 818 LINE",
"45 0 LINE"
);
}
);
width = 480;
}
);
unicode = 0145;
},
{
color = 4;
glyphname = Ntilde;
lastChange = "2025-05-06 20:11:14 +0000";
layers = (
{
hints = (
{
horizontal = 1;
place = "{0, 20}";
type = Stem;
}
);
layerId = "A5D64CBF-1778-47FF-82B6-0C31E83264E6";
paths = (
{
closed = 1;
nodes = (
"267 900 OFFCURVE",
"315 897 OFFCURVE",
"368 921 CURVE",
"385 878 LINE",
"331 855 OFFCURVE",
"265 853 OFFCURVE",
"225 869 CURVE SMOOTH",
"189 884 OFFCURVE",
"145 887 OFFCURVE",
"91 864 CURVE",
"75 906 LINE",
"128 930 OFFCURVE",
"194 932 OFFCURVE",
"234 915 CURVE SMOOTH"
);
},
{
closed = 1;
nodes = (
"135 0 LINE",
"135 556 LINE",
"333 0 LINE",
"419 0 LINE",
"419 818 LINE",
"329 818 LINE",
"329 262 LINE",
"131 818 LINE",
"45 818 LINE",
"45 0 LINE"
);
}
);
width = 480;
}
);
note = Ntilde;
unicode = 00D1;
},
{
color = 4;
glyphname = O;
lastChange = "2025-05-06 20:11:14 +0000";
layers = (
{
anchors = (
{
name = bottom;
position = "{229, 0}";
},
{
name = ogonek;
position = "{339, 0}";
},
{
name = top;
position = "{229, 818}";
}
);
hints = (
{
horizontal = 1;
place = "{-9, 91}";
type = Stem;
},
{
horizontal = 1;
place = "{753, 74}";
type = Stem;
},
{
place = "{45, 91}";
type = Stem;
},
{
place = "{318, 91}";
type = Stem;
}
);
layerId = "A5D64CBF-1778-47FF-82B6-0C31E83264E6";
paths = (
{
closed = 1;
nodes = (
"45 167 LINE SMOOTH",
"45 67 OFFCURVE",
"127 -15 OFFCURVE",
"227 -15 CURVE SMOOTH",
"327 -15 OFFCURVE",
"409 67 OFFCURVE",
"409 167 CURVE SMOOTH",
"409 650 LINE SMOOTH",
"409 750 OFFCURVE",
"327 833 OFFCURVE",
"227 833 CURVE SMOOTH",
"127 833 OFFCURVE",
"45 750 OFFCURVE",
"45 650 CURVE SMOOTH"
);
},
{
closed = 1;
nodes = (
"136 650 LINE SMOOTH",
"136 700 OFFCURVE",
"177 746 OFFCURVE",
"227 746 CURVE SMOOTH",
"277 746 OFFCURVE",
"318 700 OFFCURVE",
"318 650 CURVE SMOOTH",
"318 167 LINE SMOOTH",
"318 117 OFFCURVE",
"277 71 OFFCURVE",
"227 71 CURVE SMOOTH",
"177 71 OFFCURVE",
"136 117 OFFCURVE",
"136 167 CURVE SMOOTH"
);
}
);
width = 480;
}
);
note = O;
unicode = 004F;
},
{
color = 4;
glyphname = Oacute;
lastChange = "2025-05-06 20:11:14 +0000";
layers = (
{
hints = (
{
horizontal = 1;
place = "{-9, 91}";
type = Stem;
},
{
horizontal = 1;
place = "{734, 91}";
type = Stem;
},
{
place = "{45, 91}";
type = Stem;
},
{
place = "{318, 91}";
type = Stem;
}
);
layerId = "A5D64CBF-1778-47FF-82B6-0C31E83264E6";
paths = (
{
closed = 1;
nodes = (
"141 893 LINE",
"164 853 LINE",
"321 944 LINE",
"298 984 LINE"
);
},
{
closed = 1;
nodes = (
"45 67 OFFCURVE",
"127 -15 OFFCURVE",
"227 -15 CURVE SMOOTH",
"327 -15 OFFCURVE",
"409 67 OFFCURVE",
"409 167 CURVE SMOOTH",
"409 650 LINE SMOOTH",
"409 750 OFFCURVE",
"327 833 OFFCURVE",
"227 833 CURVE SMOOTH",
"127 833 OFFCURVE",
"45 750 OFFCURVE",
"45 650 CURVE SMOOTH",
"45 167 LINE SMOOTH"
);
},
{
closed = 1;
nodes = (
"136 650 LINE SMOOTH",
"136 700 OFFCURVE",
"177 746 OFFCURVE",
"227 746 CURVE SMOOTH",
"277 746 OFFCURVE",
"318 700 OFFCURVE",
"318 650 CURVE SMOOTH",
"318 167 LINE SMOOTH",
"318 117 OFFCURVE",
"277 71 OFFCURVE",
"227 71 CURVE SMOOTH",
"177 71 OFFCURVE",
"136 117 OFFCURVE",
"136 167 CURVE SMOOTH"
);
}
);
width = 480;
}
);
note = Oacute;
unicode = 00D3;
},
{
color = 4;
glyphname = Ocircumflex;
lastChange = "2025-05-06 20:11:14 +0000";
layers = (
{
hints = (
{
horizontal = 1;
place = "{-9, 91}";
type = Stem;
},
{
horizontal = 1;
place = "{734, 91}";
type = Stem;
},
{
place = "{45, 91}";
type = Stem;
},
{
place = "{318, 91}";
type = Stem;
}
);
layerId = "A5D64CBF-1778-47FF-82B6-0C31E83264E6";
paths = (
{
closed = 1;
nodes = (
"227 1003 LINE",
"108 884 LINE",
"140 852 LINE",
"227 938 LINE",
"315 852 LINE",
"346 884 LINE"
);
},
{
closed = 1;
nodes = (
"45 67 OFFCURVE",
"127 -15 OFFCURVE",
"227 -15 CURVE SMOOTH",
"327 -15 OFFCURVE",
"409 67 OFFCURVE",
"409 167 CURVE SMOOTH",
"409 650 LINE SMOOTH",
"409 750 OFFCURVE",
"327 833 OFFCURVE",
"227 833 CURVE SMOOTH",
"127 833 OFFCURVE",
"45 750 OFFCURVE",
"45 650 CURVE SMOOTH",
"45 167 LINE SMOOTH"
);
},
{
closed = 1;
nodes = (
"136 650 LINE SMOOTH",
"136 700 OFFCURVE",
"177 746 OFFCURVE",
"227 746 CURVE SMOOTH",
"277 746 OFFCURVE",
"318 700 OFFCURVE",
"318 650 CURVE SMOOTH",
"318 167 LINE SMOOTH",
"318 117 OFFCURVE",
"277 71 OFFCURVE",
"227 71 CURVE SMOOTH",
"177 71 OFFCURVE",
"136 117 OFFCURVE",
"136 167 CURVE SMOOTH"
);
}
);
width = 480;
}
);
note = Ocircumflex;
unicode = 00D4;
},
{
color = 4;
glyphname = Odieresis;
lastChange = "2025-05-06 20:11:14 +0000";
layers = (
{
hints = (
{
horizontal = 1;
place = "{-9, 91}";
type = Stem;
},
{
horizontal = 1;
place = "{736, 91}";
type = Stem;
},
{
horizontal = 1;
place = "{864, 100}";
type = Stem;
},
{
place = "{45, 91}";
type = Stem;
},
{
place = "{318, 91}";
type = Stem;
}
);
layerId = "A5D64CBF-1778-47FF-82B6-0C31E83264E6";
paths = (
{
closed = 1;
nodes = (
"172 856 OFFCURVE",
"198 882 OFFCURVE",
"198 914 CURVE SMOOTH",
"198 945 OFFCURVE",
"172 971 OFFCURVE",
"141 971 CURVE SMOOTH",
"109 971 OFFCURVE",
"83 945 OFFCURVE",
"83 914 CURVE SMOOTH",
"83 882 OFFCURVE",
"109 856 OFFCURVE",
"141 856 CURVE SMOOTH"
);
},
{
closed = 1;
nodes = (
"45 67 OFFCURVE",
"127 -15 OFFCURVE",
"227 -15 CURVE SMOOTH",
"327 -15 OFFCURVE",
"409 67 OFFCURVE",
"409 167 CURVE SMOOTH",
"409 650 LINE SMOOTH",
"409 750 OFFCURVE",
"327 833 OFFCURVE",
"227 833 CURVE SMOOTH",
"127 833 OFFCURVE",
"45 750 OFFCURVE",
"45 650 CURVE SMOOTH",
"45 167 LINE SMOOTH"
);
},
{
closed = 1;
nodes = (
"136 650 LINE SMOOTH",
"136 700 OFFCURVE",
"177 746 OFFCURVE",
"227 746 CURVE SMOOTH",
"277 746 OFFCURVE",
"318 700 OFFCURVE",
"318 650 CURVE SMOOTH",
"318 167 LINE SMOOTH",
"318 117 OFFCURVE",
"277 71 OFFCURVE",
"227 71 CURVE SMOOTH",
"177 71 OFFCURVE",
"136 117 OFFCURVE",
"136 167 CURVE SMOOTH"
);
},
{
closed = 1;
nodes = (
"254 882 OFFCURVE",
"280 856 OFFCURVE",
"312 856 CURVE SMOOTH",
"343 856 OFFCURVE",
"369 882 OFFCURVE",
"369 914 CURVE SMOOTH",
"369 945 OFFCURVE",
"343 971 OFFCURVE",
"312 971 CURVE SMOOTH",
"280 971 OFFCURVE",
"254 945 OFFCURVE",
"254 914 CURVE SMOOTH"
);
}
);
width = 480;
}
);
note = Odieresis;
unicode = 00D6;
},
{
color = 4;
glyphname = Ograve;
lastChange = "2025-05-06 20:11:14 +0000";
layers = (
{
hints = (
{
horizontal = 1;
place = "{-9, 91}";
type = Stem;
},
{
horizontal = 1;
place = "{734, 91}";
type = Stem;
},
{
place = "{45, 91}";
type = Stem;
},
{
place = "{318, 91}";
type = Stem;
}
);
layerId = "A5D64CBF-1778-47FF-82B6-0C31E83264E6";
paths = (
{
closed = 1;
nodes = (
"297 853 LINE",
"321 893 LINE",
"163 984 LINE",
"141 944 LINE"
);
},
{
closed = 1;
nodes = (
"45 67 OFFCURVE",
"127 -15 OFFCURVE",
"227 -15 CURVE SMOOTH",
"327 -15 OFFCURVE",
"409 67 OFFCURVE",
"409 167 CURVE SMOOTH",
"409 650 LINE SMOOTH",
"409 750 OFFCURVE",
"327 833 OFFCURVE",
"227 833 CURVE SMOOTH",
"127 833 OFFCURVE",
"45 750 OFFCURVE",
"45 650 CURVE SMOOTH",
"45 167 LINE SMOOTH"
);
},
{
closed = 1;
nodes = (
"136 650 LINE SMOOTH",
"136 700 OFFCURVE",
"177 746 OFFCURVE",
"227 746 CURVE SMOOTH",
"277 746 OFFCURVE",
"318 700 OFFCURVE",
"318 650 CURVE SMOOTH",
"318 167 LINE SMOOTH",
"318 117 OFFCURVE",
"277 71 OFFCURVE",
"227 71 CURVE SMOOTH",
"177 71 OFFCURVE",
"136 117 OFFCURVE",
"136 167 CURVE SMOOTH"
);
}
);
width = 480;
}
);
note = Ograve;
unicode = 00D2;
},
{
color = 4;
glyphname = Ohungarumlaut;
lastChange = "2025-05-06 20:11:14 +0000";
layers = (
{
layerId = "A5D64CBF-1778-47FF-82B6-0C31E83264E6";
paths = (
{
closed = 1;
nodes = (
"146 882 LINE",
"180 850 LINE",
"272 948 LINE",
"238 980 LINE"
);
},
{
closed = 1;
nodes = (
"45 67 OFFCURVE",
"127 -15 OFFCURVE",
"227 -15 CURVE SMOOTH",
"327 -15 OFFCURVE",
"409 67 OFFCURVE",
"409 167 CURVE SMOOTH",
"409 650 LINE SMOOTH",
"409 750 OFFCURVE",
"327 833 OFFCURVE",
"227 833 CURVE SMOOTH",
"127 833 OFFCURVE",
"45 750 OFFCURVE",
"45 650 CURVE SMOOTH",
"45 167 LINE SMOOTH"
);
},
{
closed = 1;
nodes = (
"136 650 LINE SMOOTH",
"136 700 OFFCURVE",
"177 746 OFFCURVE",
"227 746 CURVE SMOOTH",
"277 746 OFFCURVE",
"318 700 OFFCURVE",
"318 650 CURVE SMOOTH",
"318 167 LINE SMOOTH",
"318 117 OFFCURVE",
"277 71 OFFCURVE",
"227 71 CURVE SMOOTH",
"177 71 OFFCURVE",
"136 117 OFFCURVE",
"136 167 CURVE SMOOTH"
);
},
{
closed = 1;
nodes = (
"279 850 LINE",
"371 948 LINE",
"337 980 LINE",
"245 882 LINE"
);
}
);
width = 480;
}
);
unicode = 0150;
},
{
color = 5;
glyphname = Oslash;
lastChange = "2025-05-06 20:11:14 +0000";
layers = (
{
hints = (
{
horizontal = 1;
place = "{-9, 91}";
type = Stem;
},
{
horizontal = 1;
place = "{736, 91}";
type = Stem;
},
{
place = "{45, 91}";
type = Stem;
},
{
place = "{318, 91}";
type = Stem;
}
);
layerId = "A5D64CBF-1778-47FF-82B6-0C31E83264E6";
paths = (
{
closed = 1;
nodes = (
"137 160 LINE",
"136 165 OFFCURVE",
"136 168 OFFCURVE",
"136 173 CURVE SMOOTH",
"136 645 LINE SMOOTH",
"136 695 OFFCURVE",
"177 736 OFFCURVE",
"227 736 CURVE SMOOTH",
"250 736 OFFCURVE",
"270 728 OFFCURVE",
"286 715 CURVE"
);
},
{
closed = 1;
nodes = (
"45 120 OFFCURVE",
"68 72 OFFCURVE",
"105 39 CURVE",
"94 0 LINE",
"136 -13 LINE",
"144 12 LINE",
"169 -2 OFFCURVE",
"197 -9 OFFCURVE",
"227 -9 CURVE SMOOTH",
"327 -9 OFFCURVE",
"409 73 OFFCURVE",
"409 173 CURVE SMOOTH",
"409 645 LINE SMOOTH",
"409 699 OFFCURVE",
"386 746 OFFCURVE",
"349 780 CURVE",
"363 830 LINE",
"320 842 LINE",
"311 807 LINE",
"285 820 OFFCURVE",
"257 827 OFFCURVE",
"227 827 CURVE SMOOTH",
"127 827 OFFCURVE",
"45 745 OFFCURVE",
"45 645 CURVE SMOOTH",
"45 173 LINE SMOOTH"
);
},
{
closed = 1;
nodes = (
"317 659 LINE",
"318 655 OFFCURVE",
"318 650 OFFCURVE",
"318 645 CURVE SMOOTH",
"318 173 LINE SMOOTH",
"318 123 OFFCURVE",
"277 82 OFFCURVE",
"227 82 CURVE SMOOTH",
"205 82 OFFCURVE",
"185 90 OFFCURVE",
"168 104 CURVE"
);
}
);
width = 480;
}
);
note = Oslash;
unicode = 00D8;
},
{
color = 4;
glyphname = Otilde;
lastChange = "2025-05-06 20:11:14 +0000";
layers = (
{
hints = (
{
horizontal = 1;
place = "{-9, 91}";
type = Stem;
},
{
horizontal = 1;
place = "{736, 91}";
type = Stem;
},
{
place = "{45, 91}";
type = Stem;
},
{
place = "{318, 91}";
type = Stem;
}
);
layerId = "A5D64CBF-1778-47FF-82B6-0C31E83264E6";
paths = (
{
closed = 1;
nodes = (
"194 932 OFFCURVE",
"128 930 OFFCURVE",
"75 906 CURVE",
"91 864 LINE",
"145 887 OFFCURVE",
"189 884 OFFCURVE",
"225 869 CURVE SMOOTH",
"265 853 OFFCURVE",
"331 855 OFFCURVE",
"385 878 CURVE",
"368 921 LINE",
"315 897 OFFCURVE",
"267 900 OFFCURVE",
"234 915 CURVE SMOOTH"
);
},
{
closed = 1;
nodes = (
"45 67 OFFCURVE",
"127 -15 OFFCURVE",
"227 -15 CURVE SMOOTH",
"327 -15 OFFCURVE",
"409 67 OFFCURVE",
"409 167 CURVE SMOOTH",
"409 650 LINE SMOOTH",
"409 750 OFFCURVE",
"327 833 OFFCURVE",
"227 833 CURVE SMOOTH",
"127 833 OFFCURVE",
"45 750 OFFCURVE",
"45 650 CURVE SMOOTH",
"45 167 LINE SMOOTH"
);
},
{
closed = 1;
nodes = (
"136 650 LINE SMOOTH",
"136 700 OFFCURVE",
"177 746 OFFCURVE",
"227 746 CURVE SMOOTH",
"277 746 OFFCURVE",
"318 700 OFFCURVE",
"318 650 CURVE SMOOTH",
"318 167 LINE SMOOTH",
"318 117 OFFCURVE",
"277 71 OFFCURVE",
"227 71 CURVE SMOOTH",
"177 71 OFFCURVE",
"136 117 OFFCURVE",
"136 167 CURVE SMOOTH"
);
}
);
width = 480;
}
);
note = Otilde;
unicode = 00D5;
},
{
color = 4;
glyphname = OE;
lastChange = "2025-05-06 20:11:14 +0000";
layers = (
{
hints = (
{
horizontal = 1;
place = "{-9, 91}";
type = Stem;
},
{
horizontal = 1;
place = "{364, 91}";
type = Stem;
},
{
horizontal = 1;
place = "{736, 91}";
type = Stem;
},
{
place = "{45, 91}";
type = Stem;
},
{
place = "{318, 91}";
type = Stem;
}
);
layerId = "A5D64CBF-1778-47FF-82B6-0C31E83264E6";
paths = (
{
closed = 1;
nodes = (
"136 645 LINE SMOOTH",
"136 695 OFFCURVE",
"177 736 OFFCURVE",
"227 736 CURVE SMOOTH",
"277 736 OFFCURVE",
"318 695 OFFCURVE",
"318 645 CURVE SMOOTH",
"318 173 LINE SMOOTH",
"318 123 OFFCURVE",
"277 82 OFFCURVE",
"227 82 CURVE SMOOTH",
"177 82 OFFCURVE",
"136 123 OFFCURVE",
"136 173 CURVE SMOOTH"
);
},
{
closed = 1;
nodes = (
"45 73 OFFCURVE",
"127 -9 OFFCURVE",
"227 -9 CURVE SMOOTH",
"682 -9 LINE",
"682 82 LINE",
"409 82 LINE",
"409 364 LINE",
"591 364 LINE",
"591 455 LINE",
"409 455 LINE",
"409 736 LINE",
"682 736 LINE",
"682 827 LINE",
"227 827 LINE SMOOTH",
"127 827 OFFCURVE",
"45 745 OFFCURVE",
"45 645 CURVE SMOOTH",
"45 173 LINE SMOOTH"
);
}
);
width = 720;
}
);
note = OE;
unicode = 0152;
},
{
color = 4;
glyphname = P;
lastChange = "2025-05-06 20:11:14 +0000";
layers = (
{
hints = (
{
horizontal = 1;
place = "{0, 20}";
type = Stem;
},
{
horizontal = 1;
place = "{364, 91}";
type = Stem;
},
{
horizontal = 1;
place = "{727, 91}";
type = Stem;
},
{
place = "{45, 91}";
type = Stem;
},
{
place = "{318, 91}";
type = Stem;
}
);
layerId = "A5D64CBF-1778-47FF-82B6-0C31E83264E6";
paths = (
{
closed = 1;
nodes = (
"252 379 LINE SMOOTH",
"352 379 OFFCURVE",
"434 460 OFFCURVE",
"434 560 CURVE SMOOTH",
"434 636 LINE SMOOTH",
"434 736 OFFCURVE",
"352 818 OFFCURVE",
"252 818 CURVE SMOOTH",
"45 818 LINE",
"45 0 LINE",
"136 0 LINE",
"136 379 LINE"
);
},
{
closed = 1;
nodes = (
"136 732 LINE",
"252 732 LINE SMOOTH",
"302 732 OFFCURVE",
"343 686 OFFCURVE",
"343 636 CURVE SMOOTH",
"343 560 LINE SMOOTH",
"343 510 OFFCURVE",
"302 465 OFFCURVE",
"252 465 CURVE SMOOTH",
"136 465 LINE"
);
}
);
width = 480;
}
);
note = P;
unicode = 0050;
},
{
color = 4;
glyphname = Thorn;
lastChange = "2025-05-06 20:11:14 +0000";
layers = (
{
layerId = "A5D64CBF-1778-47FF-82B6-0C31E83264E6";
paths = (
{
closed = 1;
nodes = (
"252 199 LINE SMOOTH",
"352 199 OFFCURVE",
"434 280 OFFCURVE",
"434 380 CURVE SMOOTH",
"434 456 LINE SMOOTH",
"434 556 OFFCURVE",
"352 638 OFFCURVE",
"252 638 CURVE SMOOTH",
"136 638 LINE",
"136 818 LINE",
"45 818 LINE",
"45 0 LINE",
"136 0 LINE",
"136 199 LINE"
);
},
{
closed = 1;
nodes = (
"136 552 LINE",
"252 552 LINE SMOOTH",
"302 552 OFFCURVE",
"343 506 OFFCURVE",
"343 456 CURVE SMOOTH",
"343 380 LINE SMOOTH",
"343 330 OFFCURVE",
"302 285 OFFCURVE",
"252 285 CURVE SMOOTH",
"136 285 LINE"
);
}
);
width = 480;
}
);
unicode = 00DE;
},
{
color = 4;
glyphname = Q;
lastChange = "2025-05-06 20:11:14 +0000";
layers = (
{
hints = (
{
horizontal = 1;
place = "{-9, 91}";
type = Stem;
},
{
horizontal = 1;
place = "{736, 91}";
type = Stem;
},
{
place = "{45, 91}";
type = Stem;
},
{
place = "{318, 91}";
type = Stem;
}
);
layerId = "A5D64CBF-1778-47FF-82B6-0C31E83264E6";
paths = (
{
closed = 1;
nodes = (
"45 167 LINE SMOOTH",
"45 67 OFFCURVE",
"127 -15 OFFCURVE",
"227 -15 CURVE SMOOTH",
"247.322 -15 OFFCURVE",
"266.901 -11.613 OFFCURVE",
"285.199 -5.378 CURVE",
"369 -148 LINE",
"446 -100 LINE",
"356.006 39.008 LINE",
"388.71 71.966 OFFCURVE",
"409 117.256 OFFCURVE",
"409 167 CURVE SMOOTH",
"409 650 LINE SMOOTH",
"409 750 OFFCURVE",
"327 833 OFFCURVE",
"227 833 CURVE SMOOTH",
"127 833 OFFCURVE",
"45 750 OFFCURVE",
"45 650 CURVE SMOOTH"
);
},
{
closed = 1;
nodes = (
"136 650 LINE SMOOTH",
"136 700 OFFCURVE",
"177 746 OFFCURVE",
"227 746 CURVE SMOOTH",
"277 746 OFFCURVE",
"318 700 OFFCURVE",
"318 650 CURVE SMOOTH",
"318 167 LINE SMOOTH",
"318 135.262 OFFCURVE",
"301.48 105.136 OFFCURVE",
"276.625 87.363 CURVE SMOOTH",
"262.324 77.137 OFFCURVE",
"245.262 71 OFFCURVE",
"227 71 CURVE SMOOTH",
"177 71 OFFCURVE",
"136 117 OFFCURVE",
"136 167 CURVE SMOOTH"
);
}
);
width = 480;
}
);
note = Q;
unicode = 0051;
},
{
color = 5;
glyphname = R;
lastChange = "2025-05-06 20:11:14 +0000";
layers = (
{
anchors = (
{
name = bottom;
position = "{231, 0}";
},
{
name = ogonek;
position = "{341, 0}";
},
{
name = top;
position = "{231, 818}";
}
);
hints = (
{
horizontal = 1;
place = "{0, 20}";
type = Stem;
},
{
horizontal = 1;
place = "{364, 91}";
type = Stem;
},
{
horizontal = 1;
place = "{727, 91}";
type = Stem;
},
{
place = "{45, 91}";
type = Stem;
},
{
place = "{318, 91}";
type = Stem;
}
);
layerId = "A5D64CBF-1778-47FF-82B6-0C31E83264E6";
paths = (
{
closed = 1;
nodes = (
"301 727 OFFCURVE",
"342 686 OFFCURVE",
"342 636 CURVE SMOOTH",
"342 555 LINE SMOOTH",
"342 505 OFFCURVE",
"301 464 OFFCURVE",
"251 464 CURVE SMOOTH",
"136 464 LINE",
"136 727 LINE",
"251 727 LINE SMOOTH"
);
},
{
closed = 1;
nodes = (
"136 0 LINE",
"136 373 LINE",
"219.216 373 LINE",
"353 0 LINE",
"451 0 LINE",
"311.015 383.252 LINE",
"381.818 408.227 OFFCURVE",
"433 475.996 OFFCURVE",
"433 555 CURVE SMOOTH",
"433 636 LINE SMOOTH",
"434 736 OFFCURVE",
"351 818 OFFCURVE",
"251 818 CURVE SMOOTH",
"45 818 LINE",
"45 0 LINE"
);
}
);
width = 480;
}
);
note = R;
unicode = 0052;
},
{
color = 5;
glyphname = Racute;
lastChange = "2025-05-06 20:11:14 +0000";
layers = (
{
layerId = "A5D64CBF-1778-47FF-82B6-0C31E83264E6";
paths = (
{
closed = 1;
nodes = (
"141 893 LINE",
"164 853 LINE",
"321 944 LINE",
"298 984 LINE"
);
},
{
closed = 1;
nodes = (
"136 0 LINE",
"136 373 LINE",
"219.216 373 LINE",
"353 0 LINE",
"451 0 LINE",
"311.015 383.252 LINE",
"381.818 408.227 OFFCURVE",
"433 475.996 OFFCURVE",
"433 555 CURVE SMOOTH",
"433 636 LINE SMOOTH",
"434 736 OFFCURVE",
"351 818 OFFCURVE",
"251 818 CURVE SMOOTH",
"45 818 LINE",
"45 0 LINE"
);
},
{
closed = 1;
nodes = (
"136 727 LINE",
"251 727 LINE SMOOTH",
"301 727 OFFCURVE",
"342 686 OFFCURVE",
"342 636 CURVE SMOOTH",
"342 555 LINE SMOOTH",
"342 505 OFFCURVE",
"301 464 OFFCURVE",
"251 464 CURVE SMOOTH",
"136 464 LINE"
);
}
);
width = 480;
}
);
unicode = 0154;
},
{
color = 5;
glyphname = Rcaron;
lastChange = "2025-05-06 20:11:14 +0000";
layers = (
{
layerId = "A5D64CBF-1778-47FF-82B6-0C31E83264E6";
paths = (
{
closed = 1;
nodes = (
"98 974 LINE",
"129 1005 LINE",
"217 919 LINE",
"304 1005 LINE",
"336 974 LINE",
"217 855 LINE"
);
},
{
closed = 1;
nodes = (
"136 0 LINE",
"136 373 LINE",
"219.216 373 LINE",
"353 0 LINE",
"451 0 LINE",
"311.015 383.252 LINE",
"381.818 408.227 OFFCURVE",
"433 475.996 OFFCURVE",
"433 555 CURVE SMOOTH",
"433 636 LINE SMOOTH",
"434 736 OFFCURVE",
"351 818 OFFCURVE",
"251 818 CURVE SMOOTH",
"45 818 LINE",
"45 0 LINE"
);
},
{
closed = 1;
nodes = (
"136 727 LINE",
"251 727 LINE SMOOTH",
"301 727 OFFCURVE",
"342 686 OFFCURVE",
"342 636 CURVE SMOOTH",
"342 555 LINE SMOOTH",
"342 505 OFFCURVE",
"301 464 OFFCURVE",
"251 464 CURVE SMOOTH",
"136 464 LINE"
);
}
);
width = 480;
}
);
unicode = 0158;
},
{
color = 4;
glyphname = S;
lastChange = "2025-05-06 20:11:14 +0000";
layers = (
{
anchors = (
{
name = bottom;
position = "{236, 0}";
},
{
name = ogonek;
position = "{346, 0}";
},
{
name = top;
position = "{236, 818}";
}
);
hints = (
{
horizontal = 1;
place = "{-9, 91}";
type = Stem;
},
{
horizontal = 1;
place = "{736, 91}";
type = Stem;
},
{
place = "{41, 91}";
type = Stem;
},
{
place = "{318, 91}";
type = Stem;
}
);
layerId = "A5D64CBF-1778-47FF-82B6-0C31E83264E6";
paths = (
{
closed = 1;
nodes = (
"427 358 OFFCURVE",
"309 412 OFFCURVE",
"247 473 CURVE SMOOTH",
"200 519 OFFCURVE",
"129 562 OFFCURVE",
"129 652 CURVE",
"132 706 OFFCURVE",
"166 748 OFFCURVE",
"235 748 CURVE SMOOTH",
"305 748 OFFCURVE",
"341 696 OFFCURVE",
"341 642 CURVE SMOOTH",
"341 596 LINE",
"432 596 LINE",
"432 642 LINE SMOOTH",
"432 742 OFFCURVE",
"352 834 OFFCURVE",
"235 834 CURVE SMOOTH",
"118 834 OFFCURVE",
"38 748 OFFCURVE",
"38 652 CURVE SMOOTH",
"38 534 OFFCURVE",
"93 490 OFFCURVE",
"199 401 CURVE SMOOTH",
"271 341 OFFCURVE",
"336 308 OFFCURVE",
"336 197 CURVE SMOOTH",
"336 147 OFFCURVE",
"305 72 OFFCURVE",
"235 72 CURVE SMOOTH",
"165 72 OFFCURVE",
"127 137 OFFCURVE",
"127 190 CURVE SMOOTH",
"127 236 LINE",
"34 236 LINE",
"34 190 LINE SMOOTH",
"34 79 OFFCURVE",
"112 -15 OFFCURVE",
"235 -15 CURVE SMOOTH",
"358 -15 OFFCURVE",
"427 97 OFFCURVE",
"427 197 CURVE SMOOTH"
);
}
);
width = 480;
}
);
note = S;
unicode = 0053;
},
{
color = 4;
glyphname = Sacute;
lastChange = "2025-05-06 20:11:14 +0000";
layers = (
{
layerId = "A5D64CBF-1778-47FF-82B6-0C31E83264E6";
paths = (
{
closed = 1;
nodes = (
"141 893 LINE",
"164 853 LINE",
"321 944 LINE",
"298 984 LINE"
);
},
{
closed = 1;
nodes = (
"34 79 OFFCURVE",
"112 -15 OFFCURVE",
"235 -15 CURVE SMOOTH",
"358 -15 OFFCURVE",
"427 97 OFFCURVE",
"427 197 CURVE SMOOTH",
"427 358 OFFCURVE",
"309 412 OFFCURVE",
"247 473 CURVE SMOOTH",
"200 519 OFFCURVE",
"129 562 OFFCURVE",
"129 652 CURVE",
"132 706 OFFCURVE",
"166 748 OFFCURVE",
"235 748 CURVE SMOOTH",
"305 748 OFFCURVE",
"341 696 OFFCURVE",
"341 642 CURVE SMOOTH",
"341 596 LINE",
"432 596 LINE",
"432 642 LINE SMOOTH",
"432 742 OFFCURVE",
"352 834 OFFCURVE",
"235 834 CURVE SMOOTH",
"118 834 OFFCURVE",
"38 748 OFFCURVE",
"38 652 CURVE SMOOTH",
"38 534 OFFCURVE",
"93 490 OFFCURVE",
"199 401 CURVE SMOOTH",
"271 341 OFFCURVE",
"336 308 OFFCURVE",
"336 197 CURVE SMOOTH",
"336 147 OFFCURVE",
"305 72 OFFCURVE",
"235 72 CURVE SMOOTH",
"165 72 OFFCURVE",
"127 137 OFFCURVE",
"127 190 CURVE SMOOTH",
"127 236 LINE",
"34 236 LINE",
"34 190 LINE SMOOTH"
);
}
);
width = 480;
}
);
unicode = 015A;
},
{
color = 4;
glyphname = Scaron;
lastChange = "2025-05-06 20:11:14 +0000";
layers = (
{
hints = (
{
horizontal = 1;
place = "{-9, 91}";
type = Stem;
},
{
horizontal = 1;
place = "{736, 91}";
type = Stem;
},
{
place = "{41, 91}";
type = Stem;
},
{
place = "{318, 91}";
type = Stem;
}
);
layerId = "A5D64CBF-1778-47FF-82B6-0C31E83264E6";
paths = (
{
closed = 1;
nodes = (
"353 974 LINE",
"321 1005 LINE",
"234 919 LINE",
"147 1005 LINE",
"115 974 LINE",
"234 855 LINE"
);
},
{
closed = 1;
nodes = (
"34 79 OFFCURVE",
"112 -15 OFFCURVE",
"235 -15 CURVE SMOOTH",
"358 -15 OFFCURVE",
"427 97 OFFCURVE",
"427 197 CURVE SMOOTH",
"427 358 OFFCURVE",
"309 412 OFFCURVE",
"247 473 CURVE SMOOTH",
"200 519 OFFCURVE",
"129 562 OFFCURVE",
"129 652 CURVE",
"132 706 OFFCURVE",
"166 748 OFFCURVE",
"235 748 CURVE SMOOTH",
"305 748 OFFCURVE",
"341 696 OFFCURVE",
"341 642 CURVE SMOOTH",
"341 596 LINE",
"432 596 LINE",
"432 642 LINE SMOOTH",
"432 742 OFFCURVE",
"352 834 OFFCURVE",
"235 834 CURVE SMOOTH",
"118 834 OFFCURVE",
"38 748 OFFCURVE",
"38 652 CURVE SMOOTH",
"38 534 OFFCURVE",
"93 490 OFFCURVE",
"199 401 CURVE SMOOTH",
"271 341 OFFCURVE",
"336 308 OFFCURVE",
"336 197 CURVE SMOOTH",
"336 147 OFFCURVE",
"305 72 OFFCURVE",
"235 72 CURVE SMOOTH",
"165 72 OFFCURVE",
"127 137 OFFCURVE",
"127 190 CURVE SMOOTH",
"127 236 LINE",
"34 236 LINE",
"34 190 LINE SMOOTH"
);
}
);
width = 480;
}
);
note = Scaron;
unicode = 0160;
},
{
color = 4;
glyphname = Scedilla;
lastChange = "2025-05-06 20:11:14 +0000";
layers = (
{
layerId = "A5D64CBF-1778-47FF-82B6-0C31E83264E6";
paths = (
{
closed = 1;
nodes = (
"427 358 OFFCURVE",
"309 412 OFFCURVE",
"247 473 CURVE SMOOTH",
"200 519 OFFCURVE",
"129 562 OFFCURVE",
"129 652 CURVE",
"132 706 OFFCURVE",
"166 748 OFFCURVE",
"235 748 CURVE SMOOTH",
"305 748 OFFCURVE",
"341 696 OFFCURVE",
"341 642 CURVE SMOOTH",
"341 596 LINE",
"432 596 LINE",
"432 642 LINE SMOOTH",
"432 742 OFFCURVE",
"352 834 OFFCURVE",
"235 834 CURVE SMOOTH",
"118 834 OFFCURVE",
"38 748 OFFCURVE",
"38 652 CURVE SMOOTH",
"38 534 OFFCURVE",
"93 490 OFFCURVE",
"199 401 CURVE SMOOTH",
"271 341 OFFCURVE",
"336 308 OFFCURVE",
"336 197 CURVE SMOOTH",
"336 147 OFFCURVE",
"305 72 OFFCURVE",
"235 72 CURVE SMOOTH",
"165 72 OFFCURVE",
"127 137 OFFCURVE",
"127 190 CURVE SMOOTH",
"127 236 LINE",
"34 236 LINE",
"34 190 LINE SMOOTH",
"34 85.142 OFFCURVE",
"103.606 -4.545 OFFCURVE",
"215 -14.15 CURVE",
"215 -79 LINE",
"238 -79 LINE SMOOTH",
"263 -79 OFFCURVE",
"284 -99 OFFCURVE",
"284 -125 CURVE SMOOTH",
"284 -150 OFFCURVE",
"263 -170 OFFCURVE",
"238 -170 CURVE SMOOTH",
"213 -170 OFFCURVE",
"193 -150 OFFCURVE",
"193 -125 CURVE",
"148 -125 LINE",
"148 -175 OFFCURVE",
"188 -215 OFFCURVE",
"238 -215 CURVE SMOOTH",
"288 -215 OFFCURVE",
"329 -175 OFFCURVE",
"329 -125 CURVE SMOOTH",
"329 -82 OFFCURVE",
"299 -46 OFFCURVE",
"260 -37 CURVE",
"260 -13.4 LINE",
"367.31 0.601 OFFCURVE",
"427 103.991 OFFCURVE",
"427 197 CURVE SMOOTH"
);
}
);
width = 480;
}
);
unicode = 015E;
},
{
color = 4;
glyphname = Scommaaccent;
lastChange = "2025-05-06 20:11:14 +0000";
layers = (
{
layerId = "A5D64CBF-1778-47FF-82B6-0C31E83264E6";
paths = (
{
closed = 1;
nodes = (
"149 -188 LINE",
"191 -210 LINE",
"274 -48 LINE",
"233 -27 LINE"
);
},
{
closed = 1;
nodes = (
"34 79 OFFCURVE",
"112 -15 OFFCURVE",
"235 -15 CURVE SMOOTH",
"358 -15 OFFCURVE",
"427 97 OFFCURVE",
"427 197 CURVE SMOOTH",
"427 358 OFFCURVE",
"309 412 OFFCURVE",
"247 473 CURVE SMOOTH",
"200 519 OFFCURVE",
"129 562 OFFCURVE",
"129 652 CURVE",
"132 706 OFFCURVE",
"166 748 OFFCURVE",
"235 748 CURVE SMOOTH",
"305 748 OFFCURVE",
"341 696 OFFCURVE",
"341 642 CURVE SMOOTH",
"341 596 LINE",
"432 596 LINE",
"432 642 LINE SMOOTH",
"432 742 OFFCURVE",
"352 834 OFFCURVE",
"235 834 CURVE SMOOTH",
"118 834 OFFCURVE",
"38 748 OFFCURVE",
"38 652 CURVE SMOOTH",
"38 534 OFFCURVE",
"93 490 OFFCURVE",
"199 401 CURVE SMOOTH",
"271 341 OFFCURVE",
"336 308 OFFCURVE",
"336 197 CURVE SMOOTH",
"336 147 OFFCURVE",
"305 72 OFFCURVE",
"235 72 CURVE SMOOTH",
"165 72 OFFCURVE",
"127 137 OFFCURVE",
"127 190 CURVE SMOOTH",
"127 236 LINE",
"34 236 LINE",
"34 190 LINE SMOOTH"
);
}
);
width = 480;
}
);
unicode = 0218;
},
{
color = 4;
glyphname = Germandbls;
lastChange = "2025-05-06 20:11:14 +0000";
layers = (
{
layerId = "A5D64CBF-1778-47FF-82B6-0C31E83264E6";
paths = (
{
closed = 1;
nodes = (
"227 -9 LINE",
"327 -9 OFFCURVE",
"409 73 OFFCURVE",
"409 173 CURVE SMOOTH",
"409 273 LINE SMOOTH",
"409 337 OFFCURVE",
"375 380 OFFCURVE",
"337 409 CURVE",
"375 438 OFFCURVE",
"409 477 OFFCURVE",
"409 545 CURVE SMOOTH",
"409 645 OFFCURVE",
"327 727 OFFCURVE",
"227 727 CURVE SMOOTH",
"127 727 OFFCURVE",
"45 645 OFFCURVE",
"45 545 CURVE SMOOTH",
"45 0 LINE",
"136 0 LINE",
"136 545 LINE SMOOTH",
"136 595 OFFCURVE",
"177 636 OFFCURVE",
"227 636 CURVE SMOOTH",
"277 636 OFFCURVE",
"318 595 OFFCURVE",
"318 545 CURVE SMOOTH",
"318 495 OFFCURVE",
"277 455 OFFCURVE",
"227 455 CURVE",
"227 364 LINE",
"277 364 OFFCURVE",
"318 323 OFFCURVE",
"318 273 CURVE SMOOTH",
"318 173 LINE SMOOTH",
"318 123 OFFCURVE",
"277 82 OFFCURVE",
"227 82 CURVE"
);
}
);
width = 480;
}
);
unicode = 1E9E;
},
{
color = 4;
glyphname = T;
lastChange = "2025-05-06 20:11:14 +0000";
layers = (
{
anchors = (
{
name = bottom;
position = "{251, 0}";
},
{
name = ogonek;
position = "{361, 0}";
},
{
name = top;
position = "{251, 818}";
}
);
hints = (
{
horizontal = 1;
place = "{0, 20}";
type = Stem;
},
{
horizontal = 1;
place = "{818, -20}";
target = down;
type = TopGhost;
}
);
layerId = "A5D64CBF-1778-47FF-82B6-0C31E83264E6";
paths = (
{
closed = 1;
nodes = (
"296 0 LINE",
"296 727 LINE",
"465 727 LINE",
"465 818 LINE",
"35 818 LINE",
"35 727 LINE",
"205 727 LINE",
"205 0 LINE"
);
}
);
width = 480;
}
);
note = T;
unicode = 0054;
},
{
color = 4;
glyphname = Tcaron;
lastChange = "2025-05-06 20:11:14 +0000";
layers = (
{
layerId = "A5D64CBF-1778-47FF-82B6-0C31E83264E6";
paths = (
{
closed = 1;
nodes = (
"129 974 LINE",
"160 1005 LINE",
"248 919 LINE",
"335 1005 LINE",
"367 974 LINE",
"248 855 LINE"
);
},
{
closed = 1;
nodes = (
"205 727 LINE",
"205 0 LINE",
"296 0 LINE",
"296 727 LINE",
"465 727 LINE",
"465 818 LINE",
"35 818 LINE",
"35 727 LINE"
);
}
);
width = 480;
}
);
unicode = 0164;
},
{
color = 4;
glyphname = Tcommaaccent;
lastChange = "2025-05-06 20:11:14 +0000";
layers = (
{
layerId = "A5D64CBF-1778-47FF-82B6-0C31E83264E6";
paths = (
{
closed = 1;
nodes = (
"167 -188 LINE",
"209 -210 LINE",
"292 -48 LINE",
"251 -27 LINE"
);
},
{
closed = 1;
nodes = (
"205 727 LINE",
"205 0 LINE",
"296 0 LINE",
"296 727 LINE",
"465 727 LINE",
"465 818 LINE",
"35 818 LINE",
"35 727 LINE"
);
}
);
width = 480;
}
);
unicode = 021A;
},
{
color = 4;
glyphname = U;
lastChange = "2025-05-06 20:11:14 +0000";
layers = (
{
anchors = (
{
name = bottom;
position = "{231, 0}";
},
{
name = ogonek;
position = "{341, 0}";
},
{
name = top;
position = "{231, 818}";
}
);
hints = (
{
horizontal = 1;
place = "{-9, 91}";
type = Stem;
},
{
horizontal = 1;
place = "{818, -20}";
target = down;
type = TopGhost;
},
{
place = "{45, 91}";
type = Stem;
},
{
place = "{318, 91}";
type = Stem;
}
);
layerId = "A5D64CBF-1778-47FF-82B6-0C31E83264E6";
paths = (
{
closed = 1;
nodes = (
"409 818 LINE",
"318 818 LINE",
"318 167 LINE SMOOTH",
"318 117 OFFCURVE",
"277 71 OFFCURVE",
"227 71 CURVE SMOOTH",
"177 71 OFFCURVE",
"136 117 OFFCURVE",
"136 167 CURVE SMOOTH",
"136 818 LINE",
"45 818 LINE",
"45 167 LINE SMOOTH",
"45 67 OFFCURVE",
"127 -15 OFFCURVE",
"227 -15 CURVE SMOOTH",
"327 -15 OFFCURVE",
"409 67 OFFCURVE",
"409 167 CURVE SMOOTH"
);
}
);
width = 480;
}
);
note = U;
unicode = 0055;
},
{
color = 4;
glyphname = Uacute;
lastChange = "2025-05-06 20:11:14 +0000";
layers = (
{
hints = (
{
horizontal = 1;
place = "{-9, 91}";
type = Stem;
},
{
place = "{45, 91}";
type = Stem;
},
{
place = "{318, 91}";
type = Stem;
}
);
layerId = "A5D64CBF-1778-47FF-82B6-0C31E83264E6";
paths = (
{
closed = 1;
nodes = (
"141 893 LINE",
"164 853 LINE",
"321 944 LINE",
"298 984 LINE"
);
},
{
closed = 1;
nodes = (
"45 67 OFFCURVE",
"127 -15 OFFCURVE",
"227 -15 CURVE SMOOTH",
"327 -15 OFFCURVE",
"409 67 OFFCURVE",
"409 167 CURVE SMOOTH",
"409 818 LINE",
"318 818 LINE",
"318 167 LINE SMOOTH",
"318 117 OFFCURVE",
"277 71 OFFCURVE",
"227 71 CURVE SMOOTH",
"177 71 OFFCURVE",
"136 117 OFFCURVE",
"136 167 CURVE SMOOTH",
"136 818 LINE",
"45 818 LINE",
"45 167 LINE SMOOTH"
);
}
);
width = 480;
}
);
note = Uacute;
unicode = 00DA;
},
{
color = 4;
glyphname = Ucircumflex;
lastChange = "2025-05-06 20:11:14 +0000";
layers = (
{
hints = (
{
horizontal = 1;
place = "{-9, 91}";
type = Stem;
},
{
place = "{45, 91}";
type = Stem;
},
{
place = "{318, 91}";
type = Stem;
}
);
layerId = "A5D64CBF-1778-47FF-82B6-0C31E83264E6";
paths = (
{
closed = 1;
nodes = (
"227 1003 LINE",
"108 884 LINE",
"140 852 LINE",
"227 938 LINE",
"315 852 LINE",
"346 884 LINE"
);
},
{
closed = 1;
nodes = (
"45 67 OFFCURVE",
"127 -15 OFFCURVE",
"227 -15 CURVE SMOOTH",
"327 -15 OFFCURVE",
"409 67 OFFCURVE",
"409 167 CURVE SMOOTH",
"409 818 LINE",
"318 818 LINE",
"318 167 LINE SMOOTH",
"318 117 OFFCURVE",
"277 71 OFFCURVE",
"227 71 CURVE SMOOTH",
"177 71 OFFCURVE",
"136 117 OFFCURVE",
"136 167 CURVE SMOOTH",
"136 818 LINE",
"45 818 LINE",
"45 167 LINE SMOOTH"
);
}
);
width = 480;
}
);
note = Ucircumflex;
unicode = 00DB;
},
{
color = 4;
glyphname = Udieresis;
lastChange = "2025-05-06 20:11:14 +0000";
layers = (
{
hints = (
{
horizontal = 1;
place = "{-9, 91}";
type = Stem;
},
{
horizontal = 1;
place = "{864, 100}";
type = Stem;
},
{
place = "{45, 91}";
type = Stem;
},
{
place = "{318, 91}";
type = Stem;
}
);
layerId = "A5D64CBF-1778-47FF-82B6-0C31E83264E6";
paths = (
{
closed = 1;
nodes = (
"409 818 LINE",
"318 818 LINE",
"318 167 LINE SMOOTH",
"318 117 OFFCURVE",
"277 76 OFFCURVE",
"227 76 CURVE SMOOTH",
"177 76 OFFCURVE",
"136 117 OFFCURVE",
"136 167 CURVE SMOOTH",
"136 818 LINE",
"45 818 LINE",
"45 167 LINE SMOOTH",
"45 67 OFFCURVE",
"127 -15 OFFCURVE",
"227 -15 CURVE SMOOTH",
"327 -15 OFFCURVE",
"409 67 OFFCURVE",
"409 167 CURVE SMOOTH"
);
},
{
closed = 1;
nodes = (
"83 882 OFFCURVE",
"109 856 OFFCURVE",
"141 856 CURVE SMOOTH",
"172 856 OFFCURVE",
"198 882 OFFCURVE",
"198 914 CURVE SMOOTH",
"198 945 OFFCURVE",
"172 971 OFFCURVE",
"141 971 CURVE SMOOTH",
"109 971 OFFCURVE",
"83 945 OFFCURVE",
"83 914 CURVE SMOOTH"
);
},
{
closed = 1;
nodes = (
"254 882 OFFCURVE",
"280 856 OFFCURVE",
"312 856 CURVE SMOOTH",
"343 856 OFFCURVE",
"369 882 OFFCURVE",
"369 914 CURVE SMOOTH",
"369 945 OFFCURVE",
"343 971 OFFCURVE",
"312 971 CURVE SMOOTH",
"280 971 OFFCURVE",
"254 945 OFFCURVE",
"254 914 CURVE SMOOTH"
);
}
);
width = 480;
}
);
note = Udieresis;
unicode = 00DC;
},
{
color = 4;
glyphname = Ugrave;
lastChange = "2025-05-06 20:11:14 +0000";
layers = (
{
hints = (
{
horizontal = 1;
place = "{-9, 91}";
type = Stem;
},
{
place = "{45, 91}";
type = Stem;
},
{
place = "{318, 91}";
type = Stem;
}
);
layerId = "A5D64CBF-1778-47FF-82B6-0C31E83264E6";
paths = (
{
closed = 1;
nodes = (
"297 853 LINE",
"321 893 LINE",
"163 984 LINE",
"141 944 LINE"
);
},
{
closed = 1;
nodes = (
"45 67 OFFCURVE",
"127 -15 OFFCURVE",
"227 -15 CURVE SMOOTH",
"327 -15 OFFCURVE",
"409 67 OFFCURVE",
"409 167 CURVE SMOOTH",
"409 818 LINE",
"318 818 LINE",
"318 167 LINE SMOOTH",
"318 117 OFFCURVE",
"277 71 OFFCURVE",
"227 71 CURVE SMOOTH",
"177 71 OFFCURVE",
"136 117 OFFCURVE",
"136 167 CURVE SMOOTH",
"136 818 LINE",
"45 818 LINE",
"45 167 LINE SMOOTH"
);
}
);
width = 480;
}
);
note = Ugrave;
unicode = 00D9;
},
{
color = 4;
glyphname = Uhungarumlaut;
lastChange = "2025-05-06 20:11:14 +0000";
layers = (
{
layerId = "A5D64CBF-1778-47FF-82B6-0C31E83264E6";
paths = (
{
closed = 1;
nodes = (
"409 818 LINE",
"318 818 LINE",
"318 167 LINE SMOOTH",
"318 117 OFFCURVE",
"277 71 OFFCURVE",
"227 71 CURVE SMOOTH",
"177 71 OFFCURVE",
"136 117 OFFCURVE",
"136 167 CURVE SMOOTH",
"136 818 LINE",
"45 818 LINE",
"45 167 LINE SMOOTH",
"45 67 OFFCURVE",
"127 -15 OFFCURVE",
"227 -15 CURVE SMOOTH",
"327 -15 OFFCURVE",
"409 67 OFFCURVE",
"409 167 CURVE SMOOTH"
);
},
{
closed = 1;
nodes = (
"180 850 LINE",
"272 948 LINE",
"238 980 LINE",
"146 882 LINE"
);
},
{
closed = 1;
nodes = (
"279 850 LINE",
"371 948 LINE",
"337 980 LINE",
"245 882 LINE"
);
}
);
width = 480;
}
);
unicode = 0170;
},
{
color = 4;
glyphname = Umacron;
lastChange = "2025-05-06 20:11:14 +0000";
layers = (
{
layerId = "A5D64CBF-1778-47FF-82B6-0C31E83264E6";
paths = (
{
closed = 1;
nodes = (
"318 886 LINE",
"318 932 LINE",
"136 932 LINE",
"136 886 LINE"
);
},
{
closed = 1;
nodes = (
"45 67 OFFCURVE",
"127 -15 OFFCURVE",
"227 -15 CURVE SMOOTH",
"327 -15 OFFCURVE",
"409 67 OFFCURVE",
"409 167 CURVE SMOOTH",
"409 818 LINE",
"318 818 LINE",
"318 167 LINE SMOOTH",
"318 117 OFFCURVE",
"277 71 OFFCURVE",
"227 71 CURVE SMOOTH",
"177 71 OFFCURVE",
"136 117 OFFCURVE",
"136 167 CURVE SMOOTH",
"136 818 LINE",
"45 818 LINE",
"45 167 LINE SMOOTH"
);
}
);
width = 480;
}
);
unicode = 016A;
},
{
color = 4;
glyphname = Uogonek;
lastChange = "2025-05-06 20:11:14 +0000";
layers = (
{
layerId = "A5D64CBF-1778-47FF-82B6-0C31E83264E6";
paths = (
{
closed = 1;
nodes = (
"409 818 LINE",
"318 818 LINE",
"318 167 LINE SMOOTH",
"318 117 OFFCURVE",
"277 71 OFFCURVE",
"227 71 CURVE SMOOTH",
"177 71 OFFCURVE",
"136 117 OFFCURVE",
"136 167 CURVE SMOOTH",
"136 818 LINE",
"45 818 LINE",
"45 167 LINE SMOOTH",
"45 67 OFFCURVE",
"127 -15 OFFCURVE",
"227 -15 CURVE SMOOTH",
"237.425 -15 OFFCURVE",
"247.654 -14.109 OFFCURVE",
"257.616 -12.399 CURVE",
"244.12 -28.569 OFFCURVE",
"236 -49.472 OFFCURVE",
"236 -72 CURVE SMOOTH",
"236 -122 OFFCURVE",
"276 -163 OFFCURVE",
"326 -163 CURVE SMOOTH",
"349 -163 OFFCURVE",
"372 -154 OFFCURVE",
"390 -136 CURVE",
"358 -104 LINE",
"341 -122 OFFCURVE",
"313 -122 OFFCURVE",
"295 -104 CURVE",
"286 -96 OFFCURVE",
"281 -84 OFFCURVE",
"281 -72 CURVE SMOOTH",
"281 -63 OFFCURVE",
"284 -54 OFFCURVE",
"289 -46 CURVE",
"294 -40 LINE SMOOTH",
"302 -31 OFFCURVE",
"313 -26 OFFCURVE",
"326 -26 CURVE",
"326 14.534 LINE",
"375.85 47.112 OFFCURVE",
"409 103.418 OFFCURVE",
"409 167 CURVE SMOOTH"
);
}
);
width = 480;
}
);
unicode = 0172;
},
{
color = 4;
glyphname = Uring;
lastChange = "2025-05-06 20:11:14 +0000";
layers = (
{
layerId = "A5D64CBF-1778-47FF-82B6-0C31E83264E6";
paths = (
{
closed = 1;
nodes = (
"137 885 OFFCURVE",
"177 845 OFFCURVE",
"227 845 CURVE SMOOTH",
"277 845 OFFCURVE",
"318 885 OFFCURVE",
"318 935 CURVE SMOOTH",
"318 985 OFFCURVE",
"277 1026 OFFCURVE",
"227 1026 CURVE SMOOTH",
"177 1026 OFFCURVE",
"137 985 OFFCURVE",
"137 935 CURVE SMOOTH"
);
},
{
closed = 1;
nodes = (
"45 67 OFFCURVE",
"127 -15 OFFCURVE",
"227 -15 CURVE SMOOTH",
"327 -15 OFFCURVE",
"409 67 OFFCURVE",
"409 167 CURVE SMOOTH",
"409 818 LINE",
"318 818 LINE",
"318 167 LINE SMOOTH",
"318 117 OFFCURVE",
"277 71 OFFCURVE",
"227 71 CURVE SMOOTH",
"177 71 OFFCURVE",
"136 117 OFFCURVE",
"136 167 CURVE SMOOTH",
"136 818 LINE",
"45 818 LINE",
"45 167 LINE SMOOTH"
);
},
{
closed = 1;
nodes = (
"182 961 OFFCURVE",
"202 981 OFFCURVE",
"227 981 CURVE SMOOTH",
"252 981 OFFCURVE",
"272 961 OFFCURVE",
"272 935 CURVE SMOOTH",
"272 911 OFFCURVE",
"252 891 OFFCURVE",
"227 891 CURVE SMOOTH",
"202 891 OFFCURVE",
"182 911 OFFCURVE",
"182 935 CURVE SMOOTH"
);
}
);
width = 480;
}
);
unicode = 016E;
},
{
color = 4;
glyphname = V;
lastChange = "2025-05-06 20:11:14 +0000";
layers = (
{
hints = (
{
horizontal = 1;
place = "{0, 20}";
type = Stem;
},
{
horizontal = 1;
place = "{818, -20}";
target = down;
type = TopGhost;
}
);
layerId = "A5D64CBF-1778-47FF-82B6-0C31E83264E6";
paths = (
{
closed = 1;
nodes = (
"185 0 LINE",
"295 0 LINE",
"442 818 LINE",
"345 818 LINE",
"240 207 LINE",
"135 818 LINE",
"38 818 LINE"
);
}
);
width = 480;
}
);
note = V;
unicode = 0056;
},
{
color = 4;
glyphname = W;
lastChange = "2025-05-06 20:11:14 +0000";
layers = (
{
anchors = (
{
name = bottom;
position = "{360, 0}";
},
{
name = top;
position = "{360, 818}";
}
);
background = {
paths = (
{
closed = 1;
nodes = (
"275 818 LINE",
"190 188 LINE",
"115 818 LINE",
"18 818 LINE",
"125 0 LINE",
"249 0 LINE",
"334 603 LINE",
"418 0 LINE",
"541 0 LINE",
"648 818 LINE",
"551 818 LINE",
"476 188 LINE",
"392 818 LINE"
);
}
);
};
hints = (
{
horizontal = 1;
place = "{0, 20}";
type = Stem;
},
{
horizontal = 1;
place = "{818, -20}";
target = down;
type = TopGhost;
}
);
layerId = "A5D64CBF-1778-47FF-82B6-0C31E83264E6";
paths = (
{
closed = 1;
nodes = (
"307 720 LINE",
"195 188 LINE",
"128 818 LINE",
"38 818 LINE",
"118 0 LINE",
"249 0 LINE",
"359 535 LINE",
"468 0 LINE",
"598 0 LINE",
"678 818 LINE",
"588 818 LINE",
"521 188 LINE",
"410 720 LINE"
);
}
);
width = 720;
}
);
note = W;
unicode = 0057;
},
{
color = 4;
glyphname = Wacute;
lastChange = "2025-05-06 20:11:14 +0000";
layers = (
{
layerId = "A5D64CBF-1778-47FF-82B6-0C31E83264E6";
paths = (
{
closed = 1;
nodes = (
"291 893 LINE",
"314 853 LINE",
"471 944 LINE",
"448 984 LINE"
);
},
{
closed = 1;
nodes = (
"118 0 LINE",
"249 0 LINE",
"359 535 LINE",
"468 0 LINE",
"598 0 LINE",
"678 818 LINE",
"588 818 LINE",
"521 188 LINE",
"410 720 LINE",
"307 720 LINE",
"195 188 LINE",
"128 818 LINE",
"38 818 LINE"
);
}
);
width = 720;
}
);
unicode = 1E82;
},
{
color = 4;
glyphname = Wcircumflex;
lastChange = "2025-05-06 20:11:14 +0000";
layers = (
{
layerId = "A5D64CBF-1778-47FF-82B6-0C31E83264E6";
paths = (
{
closed = 1;
nodes = (
"359 1003 LINE",
"240 884 LINE",
"272 852 LINE",
"359 938 LINE",
"447 852 LINE",
"478 884 LINE"
);
},
{
closed = 1;
nodes = (
"118 0 LINE",
"249 0 LINE",
"359 535 LINE",
"468 0 LINE",
"598 0 LINE",
"678 818 LINE",
"588 818 LINE",
"521 188 LINE",
"410 720 LINE",
"307 720 LINE",
"195 188 LINE",
"128 818 LINE",
"38 818 LINE"
);
}
);
width = 720;
}
);
unicode = 0174;
},
{
color = 4;
glyphname = Wdieresis;
lastChange = "2025-05-06 20:11:14 +0000";
layers = (
{
layerId = "A5D64CBF-1778-47FF-82B6-0C31E83264E6";
paths = (
{
closed = 1;
nodes = (
"307 720 LINE",
"195 188 LINE",
"128 818 LINE",
"38 818 LINE",
"118 0 LINE",
"249 0 LINE",
"359 535 LINE",
"468 0 LINE",
"598 0 LINE",
"678 818 LINE",
"588 818 LINE",
"521 188 LINE",
"410 720 LINE"
);
},
{
closed = 1;
nodes = (
"208 941 OFFCURVE",
"231 964 OFFCURVE",
"258 964 CURVE SMOOTH",
"286 964 OFFCURVE",
"309 941 OFFCURVE",
"309 914 CURVE SMOOTH",
"309 886 OFFCURVE",
"286 864 OFFCURVE",
"258 864 CURVE SMOOTH",
"230 864 OFFCURVE",
"208 886 OFFCURVE",
"208 914 CURVE SMOOTH"
);
},
{
closed = 1;
nodes = (
"409 941 OFFCURVE",
"432 964 OFFCURVE",
"459 964 CURVE SMOOTH",
"486 964 OFFCURVE",
"510 941 OFFCURVE",
"510 914 CURVE SMOOTH",
"510 886 OFFCURVE",
"487 864 OFFCURVE",
"459 864 CURVE SMOOTH",
"431 864 OFFCURVE",
"409 886 OFFCURVE",
"409 914 CURVE SMOOTH"
);
}
);
width = 720;
}
);
unicode = 1E84;
},
{
color = 4;
glyphname = Wgrave;
lastChange = "2025-05-06 20:11:14 +0000";
layers = (
{
layerId = "A5D64CBF-1778-47FF-82B6-0C31E83264E6";
paths = (
{
closed = 1;
nodes = (
"261 945 LINE",
"283 985 LINE",
"441 895 LINE",
"417 855 LINE"
);
},
{
closed = 1;
nodes = (
"118 0 LINE",
"249 0 LINE",
"359 535 LINE",
"468 0 LINE",
"598 0 LINE",
"678 818 LINE",
"588 818 LINE",
"521 188 LINE",
"410 720 LINE",
"307 720 LINE",
"195 188 LINE",
"128 818 LINE",
"38 818 LINE"
);
}
);
width = 720;
}
);
unicode = 1E80;
},
{
color = 4;
glyphname = X;
lastChange = "2025-05-06 20:11:14 +0000";
layers = (
{
hints = (
{
horizontal = 1;
place = "{0, 20}";
type = Stem;
},
{
horizontal = 1;
place = "{818, 20}";
type = Stem;
}
);
layerId = "A5D64CBF-1778-47FF-82B6-0C31E83264E6";
paths = (
{
closed = 1;
nodes = (
"23 0 LINE",
"120 0 LINE",
"220 319 LINE",
"319 0 LINE",
"416 0 LINE",
"280 438 LINE",
"416 818 LINE",
"319 818 LINE",
"220 541 LINE",
"120 818 LINE",
"23 818 LINE",
"159 438 LINE"
);
}
);
width = 480;
}
);
note = X;
unicode = 0058;
},
{
color = 4;
glyphname = Y;
lastChange = "2025-05-06 20:11:14 +0000";
layers = (
{
anchors = (
{
name = bottom;
position = "{225, 0}";
},
{
name = ogonek;
position = "{335, 0}";
},
{
name = top;
position = "{225, 818}";
}
);
hints = (
{
horizontal = 1;
place = "{-4, 20}";
type = Stem;
},
{
horizontal = 1;
place = "{818, -20}";
target = down;
type = TopGhost;
}
);
layerId = "A5D64CBF-1778-47FF-82B6-0C31E83264E6";
paths = (
{
closed = 1;
nodes = (
"329 818 LINE",
"225 536 LINE",
"120 818 LINE",
"23 818 LINE",
"179 386 LINE",
"179 -4 LINE",
"270 -4 LINE",
"270 386 LINE",
"426 818 LINE"
);
}
);
width = 480;
}
);
note = Y;
unicode = 0059;
},
{
color = 4;
glyphname = Yacute;
lastChange = "2025-05-06 20:11:14 +0000";
layers = (
{
hints = (
{
horizontal = 1;
place = "{-4, 20}";
type = Stem;
}
);
layerId = "A5D64CBF-1778-47FF-82B6-0C31E83264E6";
paths = (
{
closed = 1;
nodes = (
"298 985 LINE",
"321 945 LINE",
"164 855 LINE",
"141 895 LINE"
);
},
{
closed = 1;
nodes = (
"179 386 LINE",
"179 -4 LINE",
"270 -4 LINE",
"270 386 LINE",
"426 818 LINE",
"329 818 LINE",
"225 536 LINE",
"120 818 LINE",
"23 818 LINE"
);
}
);
width = 480;
}
);
note = Yacute;
unicode = 00DD;
},
{
color = 4;
glyphname = Ycircumflex;
lastChange = "2025-05-06 20:11:14 +0000";
layers = (
{
layerId = "A5D64CBF-1778-47FF-82B6-0C31E83264E6";
paths = (
{
closed = 1;
nodes = (
"227 1003 LINE",
"108 884 LINE",
"140 852 LINE",
"227 938 LINE",
"315 852 LINE",
"346 884 LINE"
);
},
{
closed = 1;
nodes = (
"179 386 LINE",
"179 -4 LINE",
"270 -4 LINE",
"270 386 LINE",
"426 818 LINE",
"329 818 LINE",
"225 536 LINE",
"120 818 LINE",
"23 818 LINE"
);
}
);
width = 480;
}
);
unicode = 0176;
},
{
color = 4;
glyphname = Ydieresis;
lastChange = "2025-05-06 20:11:14 +0000";
layers = (
{
hints = (
{
horizontal = 1;
place = "{-4, 20}";
type = Stem;
},
{
horizontal = 1;
place = "{864, 100}";
type = Stem;
},
{
place = "{55, 101}";
type = Stem;
},
{
place = "{255, 101}";
type = Stem;
}
);
layerId = "A5D64CBF-1778-47FF-82B6-0C31E83264E6";
paths = (
{
closed = 1;
nodes = (
"329 818 LINE",
"225 536 LINE",
"120 818 LINE",
"23 818 LINE",
"179 386 LINE",
"179 -4 LINE",
"270 -4 LINE",
"270 386 LINE",
"426 818 LINE"
);
},
{
closed = 1;
nodes = (
"83 882 OFFCURVE",
"109 856 OFFCURVE",
"141 856 CURVE SMOOTH",
"172 856 OFFCURVE",
"198 882 OFFCURVE",
"198 914 CURVE SMOOTH",
"198 945 OFFCURVE",
"172 971 OFFCURVE",
"141 971 CURVE SMOOTH",
"109 971 OFFCURVE",
"83 945 OFFCURVE",
"83 914 CURVE SMOOTH"
);
},
{
closed = 1;
nodes = (
"254 882 OFFCURVE",
"280 856 OFFCURVE",
"312 856 CURVE SMOOTH",
"343 856 OFFCURVE",
"369 882 OFFCURVE",
"369 914 CURVE SMOOTH",
"369 945 OFFCURVE",
"343 971 OFFCURVE",
"312 971 CURVE SMOOTH",
"280 971 OFFCURVE",
"254 945 OFFCURVE",
"254 914 CURVE SMOOTH"
);
}
);
width = 480;
}
);
note = Ydieresis;
unicode = 0178;
},
{
color = 4;
glyphname = Ygrave;
lastChange = "2025-05-06 20:11:14 +0000";
layers = (
{
layerId = "A5D64CBF-1778-47FF-82B6-0C31E83264E6";
paths = (
{
closed = 1;
nodes = (
"141 945 LINE",
"163 985 LINE",
"321 895 LINE",
"297 855 LINE"
);
},
{
closed = 1;
nodes = (
"179 386 LINE",
"179 -4 LINE",
"270 -4 LINE",
"270 386 LINE",
"426 818 LINE",
"329 818 LINE",
"225 536 LINE",
"120 818 LINE",
"23 818 LINE"
);
}
);
width = 480;
}
);
unicode = 1EF2;
},
{
color = 4;
glyphname = Z;
lastChange = "2025-05-06 20:11:14 +0000";
layers = (
{
anchors = (
{
name = bottom;
position = "{229, 0}";
},
{
name = ogonek;
position = "{339, 0}";
},
{
name = top;
position = "{229, 818}";
}
);
hints = (
{
horizontal = 1;
place = "{0, 91}";
type = Stem;
},
{
horizontal = 1;
place = "{727, 91}";
type = Stem;
}
);
layerId = "A5D64CBF-1778-47FF-82B6-0C31E83264E6";
paths = (
{
closed = 1;
nodes = (
"413 0 LINE",
"413 91 LINE",
"155 91 LINE",
"419 818 LINE",
"29 818 LINE",
"29 727 LINE",
"288 727 LINE",
"23 0 LINE"
);
}
);
width = 480;
}
);
note = Z;
unicode = 005A;
},
{
color = 4;
glyphname = Zacute;
lastChange = "2025-05-06 20:11:14 +0000";
layers = (
{
layerId = "A5D64CBF-1778-47FF-82B6-0C31E83264E6";
paths = (
{
closed = 1;
nodes = (
"181 893 LINE",
"204 853 LINE",
"361 944 LINE",
"338 984 LINE"
);
},
{
closed = 1;
nodes = (
"413 0 LINE",
"413 91 LINE",
"155 91 LINE",
"419 818 LINE",
"29 818 LINE",
"29 727 LINE",
"288 727 LINE",
"23 0 LINE"
);
}
);
width = 480;
}
);
unicode = 0179;
},
{
color = 4;
glyphname = Zcaron;
lastChange = "2025-05-06 20:11:14 +0000";
layers = (
{
hints = (
{
horizontal = 1;
place = "{0, 91}";
type = Stem;
},
{
horizontal = 1;
place = "{727, 91}";
type = Stem;
}
);
layerId = "A5D64CBF-1778-47FF-82B6-0C31E83264E6";
paths = (
{
closed = 1;
nodes = (
"347 974 LINE",
"315 1005 LINE",
"228 919 LINE",
"141 1005 LINE",
"109 974 LINE",
"228 855 LINE"
);
},
{
closed = 1;
nodes = (
"413 0 LINE",
"413 91 LINE",
"155 91 LINE",
"419 818 LINE",
"29 818 LINE",
"29 727 LINE",
"288 727 LINE",
"23 0 LINE"
);
}
);
width = 480;
}
);
note = Zcaron;
unicode = 017D;
},
{
color = 4;
glyphname = Zdotaccent;
lastChange = "2025-05-06 20:11:14 +0000";
layers = (
{
layerId = "A5D64CBF-1778-47FF-82B6-0C31E83264E6";
paths = (
{
closed = 1;
nodes = (
"196 864 OFFCURVE",
"174 886 OFFCURVE",
"174 914 CURVE SMOOTH",
"174 941 OFFCURVE",
"197 964 OFFCURVE",
"224 964 CURVE SMOOTH",
"251 964 OFFCURVE",
"275 941 OFFCURVE",
"275 914 CURVE SMOOTH",
"275 886 OFFCURVE",
"252 864 OFFCURVE",
"224 864 CURVE SMOOTH"
);
},
{
closed = 1;
nodes = (
"413 0 LINE",
"413 91 LINE",
"155 91 LINE",
"419 818 LINE",
"29 818 LINE",
"29 727 LINE",
"288 727 LINE",
"23 0 LINE"
);
}
);
width = 480;
}
);
unicode = 017B;
},
{
color = 4;
glyphname = a;
lastChange = "2025-05-06 20:11:14 +0000";
layers = (
{
anchors = (
{
name = bottom;
position = "{231, 0}";
},
{
name = top;
position = "{231, 545}";
}
);
background = {
paths = (
{
closed = 1;
nodes = (
"326 0 LINE",
"409 0 LINE",
"409 373 LINE SMOOTH",
"409 472 OFFCURVE",
"327 555 OFFCURVE",
"228 555 CURVE SMOOTH",
"128 555 OFFCURVE",
"53 468 OFFCURVE",
"53 377 CURVE",
"144 377 LINE",
"144 428 OFFCURVE",
"171 469 OFFCURVE",
"228 470 CURVE SMOOTH",
"285 471 OFFCURVE",
"318 424 OFFCURVE",
"318 373 CURVE SMOOTH",
"318 325 LINE",
"318 325 OFFCURVE",
"283 358 OFFCURVE",
"222 360 CURVE SMOOTH",
"125 363 OFFCURVE",
"32 281 OFFCURVE",
"32 173 CURVE SMOOTH",
"32 65 OFFCURVE",
"125 -9 OFFCURVE",
"225 -9 CURVE SMOOTH",
"270 -9 OFFCURVE",
"305 12 OFFCURVE",
"323 31 CURVE"
);
},
{
closed = 1;
nodes = (
"324 118 OFFCURVE",
"283 77 OFFCURVE",
"228 77 CURVE SMOOTH",
"173 77 OFFCURVE",
"123 113 OFFCURVE",
"123 173 CURVE SMOOTH",
"123 233 OFFCURVE",
"173 273 OFFCURVE",
"228 273 CURVE SMOOTH",
"283 273 OFFCURVE",
"324 228 OFFCURVE",
"324 173 CURVE SMOOTH"
);
}
);
};
hints = (
{
horizontal = 1;
place = "{-9, 91}";
type = Stem;
},
{
horizontal = 1;
place = "{269, 91}";
type = Stem;
},
{
horizontal = 1;
place = "{464, 91}";
type = Stem;
},
{
place = "{40, 91}";
type = Stem;
},
{
place = "{318, 91}";
type = Stem;
}
);
layerId = "A5D64CBF-1778-47FF-82B6-0C31E83264E6";
paths = (
{
closed = 1;
nodes = (
"319 512 LINE",
"259 552 LINE",
"249 554 OFFCURVE",
"238 555 OFFCURVE",
"228 555 CURVE SMOOTH",
"128 555 OFFCURVE",
"46 473 OFFCURVE",
"46 373 CURVE SMOOTH",
"46 173 LINE SMOOTH",
"46 73 OFFCURVE",
"128 -9 OFFCURVE",
"228 -9 CURVE SMOOTH",
"238 -9 OFFCURVE",
"249 -8 OFFCURVE",
"259 -6 CURVE",
"319 43 LINE",
"319 0 LINE",
"410 0 LINE",
"410 545 LINE",
"319 545 LINE"
);
},
{
closed = 1;
nodes = (
"137 373 LINE SMOOTH",
"137 423 OFFCURVE",
"178 464 OFFCURVE",
"228 464 CURVE SMOOTH",
"278 464 OFFCURVE",
"319 423 OFFCURVE",
"319 373 CURVE SMOOTH",
"319 173 LINE SMOOTH",
"319 123 OFFCURVE",
"278 82 OFFCURVE",
"228 82 CURVE SMOOTH",
"178 82 OFFCURVE",
"137 123 OFFCURVE",
"137 173 CURVE SMOOTH"
);
}
);
width = 480;
}
);
note = a;
unicode = 0061;
},
{
color = 4;
glyphname = aacute;
lastChange = "2025-05-06 20:11:14 +0000";
layers = (
{
anchors = (
{
name = _top;
position = "{231, 545}";
}
);
hints = (
{
horizontal = 1;
place = "{-9, 91}";
type = Stem;
},
{
horizontal = 1;
place = "{269, 91}";
type = Stem;
},
{
horizontal = 1;
place = "{464, 91}";
type = Stem;
},
{
place = "{40, 91}";
type = Stem;
},
{
place = "{318, 91}";
type = Stem;
}
);
layerId = "A5D64CBF-1778-47FF-82B6-0C31E83264E6";
paths = (
{
closed = 1;
nodes = (
"136 622 LINE",
"159 582 LINE",
"316 673 LINE",
"293 713 LINE"
);
},
{
closed = 1;
nodes = (
"46 73 OFFCURVE",
"128 -9 OFFCURVE",
"228 -9 CURVE SMOOTH",
"238 -9 OFFCURVE",
"249 -8 OFFCURVE",
"259 -6 CURVE",
"319 43 LINE",
"319 0 LINE",
"410 0 LINE",
"410 545 LINE",
"319 545 LINE",
"319 512 LINE",
"259 552 LINE",
"249 554 OFFCURVE",
"238 555 OFFCURVE",
"228 555 CURVE SMOOTH",
"128 555 OFFCURVE",
"46 473 OFFCURVE",
"46 373 CURVE SMOOTH",
"46 173 LINE SMOOTH"
);
},
{
closed = 1;
nodes = (
"137 373 LINE SMOOTH",
"137 423 OFFCURVE",
"178 464 OFFCURVE",
"228 464 CURVE SMOOTH",
"278 464 OFFCURVE",
"319 423 OFFCURVE",
"319 373 CURVE SMOOTH",
"319 173 LINE SMOOTH",
"319 123 OFFCURVE",
"278 82 OFFCURVE",
"228 82 CURVE SMOOTH",
"178 82 OFFCURVE",
"137 123 OFFCURVE",
"137 173 CURVE SMOOTH"
);
}
);
width = 480;
}
);
note = aacute;
unicode = 00E1;
},
{
color = 4;
glyphname = abreve;
lastChange = "2025-05-06 20:11:14 +0000";
layers = (
{
layerId = "A5D64CBF-1778-47FF-82B6-0C31E83264E6";
paths = (
{
closed = 1;
nodes = (
"139 631 OFFCURVE",
"179 591 OFFCURVE",
"229 591 CURVE SMOOTH",
"279 591 OFFCURVE",
"370 681 OFFCURVE",
"320 681 CURVE SMOOTH",
"275 681 LINE",
"275 656 OFFCURVE",
"255 636 OFFCURVE",
"229 636 CURVE SMOOTH",
"205 636 OFFCURVE",
"185 656 OFFCURVE",
"185 681 CURVE",
"139 681 LINE"
);
},
{
closed = 1;
nodes = (
"46 73 OFFCURVE",
"128 -9 OFFCURVE",
"228 -9 CURVE SMOOTH",
"238 -9 OFFCURVE",
"249 -8 OFFCURVE",
"259 -6 CURVE",
"319 43 LINE",
"319 0 LINE",
"410 0 LINE",
"410 545 LINE",
"319 545 LINE",
"319 512 LINE",
"259 552 LINE",
"249 554 OFFCURVE",
"238 555 OFFCURVE",
"228 555 CURVE SMOOTH",
"128 555 OFFCURVE",
"46 473 OFFCURVE",
"46 373 CURVE SMOOTH",
"46 173 LINE SMOOTH"
);
},
{
closed = 1;
nodes = (
"137 373 LINE SMOOTH",
"137 423 OFFCURVE",
"178 464 OFFCURVE",
"228 464 CURVE SMOOTH",
"278 464 OFFCURVE",
"319 423 OFFCURVE",
"319 373 CURVE SMOOTH",
"319 173 LINE SMOOTH",
"319 123 OFFCURVE",
"278 82 OFFCURVE",
"228 82 CURVE SMOOTH",
"178 82 OFFCURVE",
"137 123 OFFCURVE",
"137 173 CURVE SMOOTH"
);
}
);
width = 480;
}
);
unicode = 0103;
},
{
color = 4;
glyphname = acircumflex;
lastChange = "2025-05-06 20:11:14 +0000";
layers = (
{
hints = (
{
horizontal = 1;
place = "{-9, 91}";
type = Stem;
},
{
horizontal = 1;
place = "{269, 91}";
type = Stem;
},
{
horizontal = 1;
place = "{464, 91}";
type = Stem;
},
{
place = "{40, 91}";
type = Stem;
},
{
place = "{318, 91}";
type = Stem;
}
);
layerId = "A5D64CBF-1778-47FF-82B6-0C31E83264E6";
paths = (
{
closed = 1;
nodes = (
"222 732 LINE",
"103 613 LINE",
"135 581 LINE",
"222 667 LINE",
"310 581 LINE",
"341 613 LINE"
);
},
{
closed = 1;
nodes = (
"46 73 OFFCURVE",
"128 -9 OFFCURVE",
"228 -9 CURVE SMOOTH",
"238 -9 OFFCURVE",
"249 -8 OFFCURVE",
"259 -6 CURVE",
"319 33 LINE",
"319 0 LINE",
"410 0 LINE",
"410 545 LINE",
"319 545 LINE",
"319 502 LINE",
"259 542 LINE",
"249 544 OFFCURVE",
"238 545 OFFCURVE",
"228 545 CURVE SMOOTH",
"128 545 OFFCURVE",
"46 463 OFFCURVE",
"46 363 CURVE SMOOTH",
"46 173 LINE SMOOTH"
);
},
{
closed = 1;
nodes = (
"137 363 LINE SMOOTH",
"137 413 OFFCURVE",
"178 454 OFFCURVE",
"228 454 CURVE SMOOTH",
"278 454 OFFCURVE",
"319 413 OFFCURVE",
"319 363 CURVE SMOOTH",
"319 173 LINE SMOOTH",
"319 123 OFFCURVE",
"278 82 OFFCURVE",
"228 82 CURVE SMOOTH",
"178 82 OFFCURVE",
"137 123 OFFCURVE",
"137 173 CURVE SMOOTH"
);
}
);
width = 480;
}
);
note = acircumflex;
unicode = 00E2;
},
{
color = 4;
glyphname = adieresis;
lastChange = "2025-05-06 20:11:14 +0000";
layers = (
{
anchors = (
{
name = top;
position = "{226, 545}";
}
);
hints = (
{
horizontal = 1;
place = "{-9, 91}";
type = Stem;
},
{
horizontal = 1;
place = "{269, 91}";
type = Stem;
},
{
horizontal = 1;
place = "{464, 91}";
type = Stem;
},
{
horizontal = 1;
place = "{605, 100}";
type = Stem;
},
{
place = "{40, 91}";
type = Stem;
},
{
place = "{318, 91}";
type = Stem;
}
);
layerId = "A5D64CBF-1778-47FF-82B6-0C31E83264E6";
paths = (
{
closed = 1;
nodes = (
"172 633 OFFCURVE",
"198 659 OFFCURVE",
"198 691 CURVE SMOOTH",
"198 722 OFFCURVE",
"172 748 OFFCURVE",
"141 748 CURVE SMOOTH",
"109 748 OFFCURVE",
"83 722 OFFCURVE",
"83 691 CURVE SMOOTH",
"83 659 OFFCURVE",
"109 633 OFFCURVE",
"141 633 CURVE SMOOTH"
);
},
{
closed = 1;
nodes = (
"46 73 OFFCURVE",
"128 -9 OFFCURVE",
"228 -9 CURVE SMOOTH",
"238 -9 OFFCURVE",
"249 -8 OFFCURVE",
"259 -6 CURVE",
"319 33 LINE",
"319 0 LINE",
"410 0 LINE",
"410 545 LINE",
"319 545 LINE",
"319 502 LINE",
"259 542 LINE",
"249 544 OFFCURVE",
"238 545 OFFCURVE",
"228 545 CURVE SMOOTH",
"128 545 OFFCURVE",
"46 463 OFFCURVE",
"46 363 CURVE SMOOTH",
"46 173 LINE SMOOTH"
);
},
{
closed = 1;
nodes = (
"137 363 LINE SMOOTH",
"137 413 OFFCURVE",
"178 454 OFFCURVE",
"228 454 CURVE SMOOTH",
"278 454 OFFCURVE",
"319 413 OFFCURVE",
"319 363 CURVE SMOOTH",
"319 173 LINE SMOOTH",
"319 123 OFFCURVE",
"278 82 OFFCURVE",
"228 82 CURVE SMOOTH",
"178 82 OFFCURVE",
"137 123 OFFCURVE",
"137 173 CURVE SMOOTH"
);
},
{
closed = 1;
nodes = (
"254 659 OFFCURVE",
"280 633 OFFCURVE",
"312 633 CURVE SMOOTH",
"343 633 OFFCURVE",
"369 659 OFFCURVE",
"369 691 CURVE SMOOTH",
"369 722 OFFCURVE",
"343 748 OFFCURVE",
"312 748 CURVE SMOOTH",
"280 748 OFFCURVE",
"254 722 OFFCURVE",
"254 691 CURVE SMOOTH"
);
}
);
width = 480;
}
);
note = adieresis;
unicode = 00E4;
},
{
color = 4;
glyphname = agrave;
lastChange = "2025-05-06 20:11:14 +0000";
layers = (
{
hints = (
{
horizontal = 1;
place = "{-9, 91}";
type = Stem;
},
{
horizontal = 1;
place = "{269, 91}";
type = Stem;
},
{
horizontal = 1;
place = "{464, 91}";
type = Stem;
},
{
place = "{40, 91}";
type = Stem;
},
{
place = "{318, 91}";
type = Stem;
}
);
layerId = "A5D64CBF-1778-47FF-82B6-0C31E83264E6";
paths = (
{
closed = 1;
nodes = (
"292 582 LINE",
"316 622 LINE",
"158 713 LINE",
"136 673 LINE"
);
},
{
closed = 1;
nodes = (
"46 73 OFFCURVE",
"128 -9 OFFCURVE",
"228 -9 CURVE SMOOTH",
"238 -9 OFFCURVE",
"249 -8 OFFCURVE",
"259 -6 CURVE",
"319 33 LINE",
"319 0 LINE",
"410 0 LINE",
"410 545 LINE",
"319 545 LINE",
"319 502 LINE",
"259 542 LINE",
"249 544 OFFCURVE",
"238 545 OFFCURVE",
"228 545 CURVE SMOOTH",
"128 545 OFFCURVE",
"46 463 OFFCURVE",
"46 363 CURVE SMOOTH",
"46 173 LINE SMOOTH"
);
},
{
closed = 1;
nodes = (
"137 363 LINE SMOOTH",
"137 413 OFFCURVE",
"178 454 OFFCURVE",
"228 454 CURVE SMOOTH",
"278 454 OFFCURVE",
"319 413 OFFCURVE",
"319 363 CURVE SMOOTH",
"319 173 LINE SMOOTH",
"319 123 OFFCURVE",
"278 82 OFFCURVE",
"228 82 CURVE SMOOTH",
"178 82 OFFCURVE",
"137 123 OFFCURVE",
"137 173 CURVE SMOOTH"
);
}
);
width = 480;
}
);
note = agrave;
unicode = 00E0;
},
{
color = 4;
glyphname = amacron;
lastChange = "2025-05-06 20:11:14 +0000";
layers = (
{
layerId = "A5D64CBF-1778-47FF-82B6-0C31E83264E6";
paths = (
{
closed = 1;
nodes = (
"325 614 LINE",
"325 660 LINE",
"143 660 LINE",
"143 614 LINE"
);
},
{
closed = 1;
nodes = (
"46 73 OFFCURVE",
"128 -9 OFFCURVE",
"228 -9 CURVE SMOOTH",
"238 -9 OFFCURVE",
"249 -8 OFFCURVE",
"259 -6 CURVE",
"319 33 LINE",
"319 0 LINE",
"410 0 LINE",
"410 545 LINE",
"319 545 LINE",
"319 502 LINE",
"259 542 LINE",
"249 544 OFFCURVE",
"238 545 OFFCURVE",
"228 545 CURVE SMOOTH",
"128 545 OFFCURVE",
"46 463 OFFCURVE",
"46 363 CURVE SMOOTH",
"46 173 LINE SMOOTH"
);
},
{
closed = 1;
nodes = (
"137 363 LINE SMOOTH",
"137 413 OFFCURVE",
"178 454 OFFCURVE",
"228 454 CURVE SMOOTH",
"278 454 OFFCURVE",
"319 413 OFFCURVE",
"319 363 CURVE SMOOTH",
"319 173 LINE SMOOTH",
"319 123 OFFCURVE",
"278 82 OFFCURVE",
"228 82 CURVE SMOOTH",
"178 82 OFFCURVE",
"137 123 OFFCURVE",
"137 173 CURVE SMOOTH"
);
}
);
width = 480;
}
);
unicode = 0101;
},
{
color = 4;
glyphname = aogonek;
lastChange = "2025-05-06 20:11:14 +0000";
layers = (
{
anchors = (
{
name = _top;
position = "{231, 545}";
},
{
name = "new anchor";
position = "{328, 320}";
}
);
layerId = "A5D64CBF-1778-47FF-82B6-0C31E83264E6";
paths = (
{
closed = 1;
nodes = (
"386 -31 OFFCURVE",
"397 -26 OFFCURVE",
"410 -26 CURVE",
"410 545 LINE",
"319 545 LINE",
"319 502 LINE",
"259 542 LINE",
"249 544 OFFCURVE",
"238 545 OFFCURVE",
"228 545 CURVE SMOOTH",
"128 545 OFFCURVE",
"46 463 OFFCURVE",
"46 363 CURVE SMOOTH",
"46 173 LINE SMOOTH",
"46 73 OFFCURVE",
"128 -9 OFFCURVE",
"228 -9 CURVE SMOOTH",
"238 -9 OFFCURVE",
"249 -8 OFFCURVE",
"259 -6 CURVE",
"319 33 LINE",
"319 0 LINE",
"354.154 0 LINE",
"333.302 -16.993 OFFCURVE",
"320 -43.166 OFFCURVE",
"320 -72 CURVE SMOOTH",
"320 -122 OFFCURVE",
"360 -163 OFFCURVE",
"410 -163 CURVE SMOOTH",
"433 -163 OFFCURVE",
"456 -154 OFFCURVE",
"474 -136 CURVE",
"442 -104 LINE",
"425 -122 OFFCURVE",
"397 -122 OFFCURVE",
"379 -104 CURVE",
"370 -96 OFFCURVE",
"365 -84 OFFCURVE",
"365 -72 CURVE SMOOTH",
"365 -63 OFFCURVE",
"368 -54 OFFCURVE",
"373 -46 CURVE",
"378 -40 LINE SMOOTH"
);
},
{
closed = 1;
nodes = (
"137 363 LINE SMOOTH",
"137 413 OFFCURVE",
"178 454 OFFCURVE",
"228 454 CURVE SMOOTH",
"278 454 OFFCURVE",
"319 413 OFFCURVE",
"319 363 CURVE SMOOTH",
"319 173 LINE SMOOTH",
"319 123 OFFCURVE",
"278 82 OFFCURVE",
"228 82 CURVE SMOOTH",
"178 82 OFFCURVE",
"137 123 OFFCURVE",
"137 173 CURVE SMOOTH"
);
}
);
width = 480;
}
);
unicode = 0105;
},
{
color = 4;
glyphname = aring;
lastChange = "2025-05-06 20:11:14 +0000";
layers = (
{
hints = (
{
horizontal = 1;
place = "{-9, 91}";
type = Stem;
},
{
horizontal = 1;
place = "{269, 91}";
type = Stem;
},
{
horizontal = 1;
place = "{464, 91}";
type = Stem;
},
{
horizontal = 1;
place = "{600, 45}";
type = Stem;
},
{
horizontal = 1;
place = "{736, 45}";
type = Stem;
},
{
place = "{40, 91}";
type = Stem;
},
{
place = "{137, 45}";
type = Stem;
},
{
place = "{318, 91}";
type = Stem;
}
);
layerId = "A5D64CBF-1778-47FF-82B6-0C31E83264E6";
paths = (
{
closed = 1;
nodes = (
"132 640 OFFCURVE",
"172 600 OFFCURVE",
"222 600 CURVE SMOOTH",
"272 600 OFFCURVE",
"313 640 OFFCURVE",
"313 690 CURVE SMOOTH",
"313 740 OFFCURVE",
"272 781 OFFCURVE",
"222 781 CURVE SMOOTH",
"172 781 OFFCURVE",
"132 740 OFFCURVE",
"132 690 CURVE SMOOTH"
);
},
{
closed = 1;
nodes = (
"46 73 OFFCURVE",
"128 -9 OFFCURVE",
"228 -9 CURVE SMOOTH",
"238 -9 OFFCURVE",
"249 -8 OFFCURVE",
"259 -6 CURVE",
"319 43 LINE",
"319 0 LINE",
"410 0 LINE",
"410 545 LINE",
"319 545 LINE",
"319 512 LINE",
"259 552 LINE",
"249 554 OFFCURVE",
"238 555 OFFCURVE",
"228 555 CURVE SMOOTH",
"128 555 OFFCURVE",
"46 473 OFFCURVE",
"46 373 CURVE SMOOTH",
"46 173 LINE SMOOTH"
);
},
{
closed = 1;
nodes = (
"137 373 LINE SMOOTH",
"137 423 OFFCURVE",
"178 464 OFFCURVE",
"228 464 CURVE SMOOTH",
"278 464 OFFCURVE",
"319 423 OFFCURVE",
"319 373 CURVE SMOOTH",
"319 173 LINE SMOOTH",
"319 123 OFFCURVE",
"278 82 OFFCURVE",
"228 82 CURVE SMOOTH",
"178 82 OFFCURVE",
"137 123 OFFCURVE",
"137 173 CURVE SMOOTH"
);
},
{
closed = 1;
nodes = (
"178 715 OFFCURVE",
"198 735 OFFCURVE",
"222 735 CURVE SMOOTH",
"248 735 OFFCURVE",
"268 715 OFFCURVE",
"268 690 CURVE SMOOTH",
"268 665 OFFCURVE",
"248 645 OFFCURVE",
"222 645 CURVE SMOOTH",
"198 645 OFFCURVE",
"178 665 OFFCURVE",
"178 690 CURVE SMOOTH"
);
}
);
width = 480;
}
);
note = aring;
unicode = 00E5;
},
{
color = 4;
glyphname = atilde;
lastChange = "2025-05-06 20:11:14 +0000";
layers = (
{
hints = (
{
horizontal = 1;
place = "{-9, 91}";
type = Stem;
},
{
horizontal = 1;
place = "{269, 91}";
type = Stem;
},
{
horizontal = 1;
place = "{464, 91}";
type = Stem;
},
{
place = "{40, 91}";
type = Stem;
},
{
place = "{318, 91}";
type = Stem;
}
);
layerId = "A5D64CBF-1778-47FF-82B6-0C31E83264E6";
paths = (
{
closed = 1;
nodes = (
"187 705 OFFCURVE",
"121 703 OFFCURVE",
"68 679 CURVE",
"84 636 LINE",
"138 660 OFFCURVE",
"182 657 OFFCURVE",
"219 642 CURVE SMOOTH",
"259 626 OFFCURVE",
"325 627 OFFCURVE",
"378 651 CURVE",
"361 694 LINE",
"308 670 OFFCURVE",
"261 673 OFFCURVE",
"227 688 CURVE SMOOTH"
);
},
{
closed = 1;
nodes = (
"46 73 OFFCURVE",
"128 -9 OFFCURVE",
"228 -9 CURVE SMOOTH",
"238 -9 OFFCURVE",
"249 -8 OFFCURVE",
"259 -6 CURVE",
"319 33 LINE",
"319 0 LINE",
"410 0 LINE",
"410 545 LINE",
"319 545 LINE",
"319 502 LINE",
"259 542 LINE",
"249 544 OFFCURVE",
"238 545 OFFCURVE",
"228 545 CURVE SMOOTH",
"128 545 OFFCURVE",
"46 463 OFFCURVE",
"46 363 CURVE SMOOTH",
"46 173 LINE SMOOTH"
);
},
{
closed = 1;
nodes = (
"137 363 LINE SMOOTH",
"137 413 OFFCURVE",
"178 454 OFFCURVE",
"228 454 CURVE SMOOTH",
"278 454 OFFCURVE",
"319 413 OFFCURVE",
"319 363 CURVE SMOOTH",
"319 173 LINE SMOOTH",
"319 123 OFFCURVE",
"278 82 OFFCURVE",
"228 82 CURVE SMOOTH",
"178 82 OFFCURVE",
"137 123 OFFCURVE",
"137 173 CURVE SMOOTH"
);
}
);
width = 480;
}
);
note = atilde;
unicode = 00E3;
},
{
color = 4;
glyphname = ae;
lastChange = "2025-05-06 20:11:14 +0000";
layers = (
{
hints = (
{
horizontal = 1;
place = "{-9, 91}";
type = Stem;
},
{
horizontal = 1;
place = "{267, 91}";
type = Stem;
},
{
horizontal = 1;
place = "{464, 91}";
type = Stem;
},
{
place = "{40, 91}";
type = Stem;
},
{
place = "{318, 91}";
type = Stem;
},
{
place = "{591, 91}";
type = Stem;
},
{
place = "{370, 91}";
type = Stem;
}
);
layerId = "A5D64CBF-1778-47FF-82B6-0C31E83264E6";
paths = (
{
closed = 1;
nodes = (
"409 338 LINE",
"409 373 LINE SMOOTH",
"409 418 OFFCURVE",
"450 469 OFFCURVE",
"500 469 CURVE SMOOTH",
"550 469 OFFCURVE",
"591 418 OFFCURVE",
"591 373 CURVE SMOOTH",
"591 338 LINE"
);
},
{
closed = 1;
nodes = (
"30 65 OFFCURVE",
"124 -9 OFFCURVE",
"222 -9 CURVE SMOOTH",
"288 -9 OFFCURVE",
"329 21 OFFCURVE",
"356 56 CURVE",
"390 13 OFFCURVE",
"442 -15 OFFCURVE",
"500 -15 CURVE SMOOTH",
"600 -15 OFFCURVE",
"682 67 OFFCURVE",
"682 167 CURVE",
"591 167 LINE",
"591 121 OFFCURVE",
"550 71 OFFCURVE",
"500 71 CURVE SMOOTH",
"450 71 OFFCURVE",
"409 121 OFFCURVE",
"409 167 CURVE SMOOTH",
"409 252 LINE",
"682 252 LINE",
"682 373 LINE SMOOTH",
"682 473 OFFCURVE",
"600 555 OFFCURVE",
"500 555 CURVE SMOOTH",
"445 555 OFFCURVE",
"396 529 OFFCURVE",
"363 489 CURVE",
"329 529 OFFCURVE",
"279 555 OFFCURVE",
"223 555 CURVE SMOOTH",
"143 555 OFFCURVE",
"74 502 OFFCURVE",
"50 430 CURVE",
"136 401 LINE",
"148 439 OFFCURVE",
"183 469 OFFCURVE",
"223 469 CURVE SMOOTH",
"273 469 OFFCURVE",
"314 423 OFFCURVE",
"314 373 CURVE SMOOTH",
"313 325 LINE",
"311 329 OFFCURVE",
"278 358 OFFCURVE",
"219 360 CURVE SMOOTH",
"124 363 OFFCURVE",
"30 281 OFFCURVE",
"30 173 CURVE SMOOTH"
);
},
{
closed = 1;
nodes = (
"121 233 OFFCURVE",
"169 273 OFFCURVE",
"222 273 CURVE SMOOTH",
"274 273 OFFCURVE",
"317 225 OFFCURVE",
"317 173 CURVE SMOOTH",
"317 121 OFFCURVE",
"274 77 OFFCURVE",
"222 77 CURVE SMOOTH",
"169 77 OFFCURVE",
"121 113 OFFCURVE",
"121 173 CURVE SMOOTH"
);
}
);
width = 720;
}
);
note = ae;
unicode = 00E6;
},
{
color = 4;
glyphname = b;
lastChange = "2025-05-06 20:11:14 +0000";
layers = (
{
background = {
paths = (
{
closed = 0;
nodes = (
"137 506 LINE",
"153 534 OFFCURVE",
"190 555 OFFCURVE",
"233 555 CURVE SMOOTH"
);
},
{
closed = 0;
nodes = (
"232 -9 LINE SMOOTH",
"189 -9 OFFCURVE",
"151 19 OFFCURVE",
"137 41 CURVE",
"137 0 LINE"
);
}
);
};
hints = (
{
horizontal = 1;
place = "{-9, 91}";
type = Stem;
},
{
horizontal = 1;
place = "{464, 91}";
type = Stem;
},
{
place = "{45, 91}";
type = Stem;
},
{
place = "{318, 91}";
type = Stem;
}
);
layerId = "A5D64CBF-1778-47FF-82B6-0C31E83264E6";
paths = (
{
closed = 1;
nodes = (
"45 813 LINE",
"45 0 LINE",
"136 0 LINE",
"136 43 LINE",
"196 -6 LINE",
"206 -8 OFFCURVE",
"217 -9 OFFCURVE",
"227 -9 CURVE SMOOTH",
"327 -9 OFFCURVE",
"409 73 OFFCURVE",
"409 173 CURVE SMOOTH",
"409 373 LINE SMOOTH",
"409 473 OFFCURVE",
"327 555 OFFCURVE",
"227 555 CURVE SMOOTH",
"217 555 OFFCURVE",
"206 554 OFFCURVE",
"196 552 CURVE",
"136 512 LINE",
"136 813 LINE"
);
},
{
closed = 1;
nodes = (
"136 373 LINE SMOOTH",
"136 423 OFFCURVE",
"177 464 OFFCURVE",
"227 464 CURVE SMOOTH",
"277 464 OFFCURVE",
"318 423 OFFCURVE",
"318 373 CURVE SMOOTH",
"318 173 LINE SMOOTH",
"318 123 OFFCURVE",
"277 82 OFFCURVE",
"227 82 CURVE SMOOTH",
"177 82 OFFCURVE",
"136 123 OFFCURVE",
"136 173 CURVE SMOOTH"
);
}
);
width = 480;
}
);
note = b;
unicode = 0062;
},
{
color = 4;
glyphname = c;
lastChange = "2025-05-06 20:11:14 +0000";
layers = (
{
anchors = (
{
name = bottom;
position = "{231, 0}";
},
{
name = top;
position = "{231, 545}";
}
);
hints = (
{
horizontal = 1;
place = "{-9, 91}";
type = Stem;
},
{
horizontal = 1;
place = "{464, 91}";
type = Stem;
},
{
place = "{45, 91}";
type = Stem;
},
{
place = "{318, 91}";
type = Stem;
}
);
layerId = "A5D64CBF-1778-47FF-82B6-0C31E83264E6";
paths = (
{
closed = 1;
nodes = (
"55 173 LINE SMOOTH",
"55 73 OFFCURVE",
"137 -9 OFFCURVE",
"237 -9 CURVE SMOOTH",
"337 -9 OFFCURVE",
"419 73 OFFCURVE",
"419 173 CURVE",
"328 173 LINE",
"328 127 OFFCURVE",
"287 82 OFFCURVE",
"237 82 CURVE SMOOTH",
"187 82 OFFCURVE",
"146 127 OFFCURVE",
"146 173 CURVE SMOOTH",
"146 373 LINE SMOOTH",
"146 418 OFFCURVE",
"187 464 OFFCURVE",
"237 464 CURVE SMOOTH",
"287 464 OFFCURVE",
"328 418 OFFCURVE",
"328 373 CURVE",
"419 373 LINE",
"419 467 OFFCURVE",
"337 555 OFFCURVE",
"237 555 CURVE SMOOTH",
"137 555 OFFCURVE",
"55 467 OFFCURVE",
"55 373 CURVE SMOOTH"
);
}
);
width = 480;
}
);
note = c;
unicode = 0063;
},
{
color = 4;
glyphname = cacute;
lastChange = "2025-05-06 20:11:14 +0000";
layers = (
{
layerId = "A5D64CBF-1778-47FF-82B6-0C31E83264E6";
paths = (
{
closed = 1;
nodes = (
"55 173 LINE SMOOTH",
"55 73 OFFCURVE",
"137 -9 OFFCURVE",
"237 -9 CURVE SMOOTH",
"337 -9 OFFCURVE",
"419 73 OFFCURVE",
"419 173 CURVE",
"328 173 LINE",
"328 127 OFFCURVE",
"287 82 OFFCURVE",
"237 82 CURVE SMOOTH",
"187 82 OFFCURVE",
"146 127 OFFCURVE",
"146 173 CURVE SMOOTH",
"146 373 LINE SMOOTH",
"146 418 OFFCURVE",
"187 464 OFFCURVE",
"237 464 CURVE SMOOTH",
"287 464 OFFCURVE",
"328 418 OFFCURVE",
"328 373 CURVE",
"419 373 LINE",
"419 467 OFFCURVE",
"337 555 OFFCURVE",
"237 555 CURVE SMOOTH",
"137 555 OFFCURVE",
"55 467 OFFCURVE",
"55 373 CURVE SMOOTH"
);
},
{
closed = 1;
nodes = (
"159 582 LINE",
"316 673 LINE",
"293 713 LINE",
"136 622 LINE"
);
}
);
width = 480;
}
);
unicode = 0107;
},
{
color = 4;
glyphname = ccaron;
lastChange = "2025-05-06 20:11:14 +0000";
layers = (
{
layerId = "A5D64CBF-1778-47FF-82B6-0C31E83264E6";
paths = (
{
closed = 1;
nodes = (
"55 173 LINE SMOOTH",
"55 73 OFFCURVE",
"137 -9 OFFCURVE",
"237 -9 CURVE SMOOTH",
"337 -9 OFFCURVE",
"419 73 OFFCURVE",
"419 173 CURVE",
"328 173 LINE",
"328 127 OFFCURVE",
"287 82 OFFCURVE",
"237 82 CURVE SMOOTH",
"187 82 OFFCURVE",
"146 127 OFFCURVE",
"146 173 CURVE SMOOTH",
"146 373 LINE SMOOTH",
"146 418 OFFCURVE",
"187 464 OFFCURVE",
"237 464 CURVE SMOOTH",
"287 464 OFFCURVE",
"328 418 OFFCURVE",
"328 373 CURVE",
"419 373 LINE",
"419 467 OFFCURVE",
"337 555 OFFCURVE",
"237 555 CURVE SMOOTH",
"137 555 OFFCURVE",
"55 467 OFFCURVE",
"55 373 CURVE SMOOTH"
);
},
{
closed = 1;
nodes = (
"241 591 LINE",
"360 710 LINE",
"328 742 LINE",
"241 655 LINE",
"154 742 LINE",
"122 710 LINE"
);
}
);
width = 480;
}
);
unicode = 010D;
},
{
color = 4;
glyphname = ccedilla;
lastChange = "2025-05-06 20:11:14 +0000";
layers = (
{
background = {
paths = (
{
closed = 1;
nodes = (
"255 -215 OFFCURVE",
"296 -175 OFFCURVE",
"296 -125 CURVE SMOOTH",
"296 -74 OFFCURVE",
"255 -34 OFFCURVE",
"205 -34 CURVE SMOOTH",
"155 -34 OFFCURVE",
"115 -74 OFFCURVE",
"115 -125 CURVE SMOOTH",
"115 -175 OFFCURVE",
"155 -215 OFFCURVE",
"205 -215 CURVE SMOOTH"
);
}
);
};
hints = (
{
horizontal = 1;
place = "{-215, 91}";
type = Stem;
},
{
horizontal = 1;
place = "{464, 91}";
type = Stem;
},
{
place = "{45, 91}";
type = Stem;
},
{
place = "{250, 45}";
type = Stem;
},
{
place = "{318, 91}";
type = Stem;
}
);
layerId = "A5D64CBF-1778-47FF-82B6-0C31E83264E6";
paths = (
{
closed = 1;
nodes = (
"55 80 OFFCURVE",
"125 4 OFFCURVE",
"215 -7 CURVE",
"215 -79 LINE",
"238 -79 LINE SMOOTH",
"263 -79 OFFCURVE",
"284 -99 OFFCURVE",
"284 -125 CURVE SMOOTH",
"284 -150 OFFCURVE",
"263 -170 OFFCURVE",
"238 -170 CURVE SMOOTH",
"213 -170 OFFCURVE",
"193 -150 OFFCURVE",
"193 -125 CURVE",
"148 -125 LINE",
"148 -175 OFFCURVE",
"188 -215 OFFCURVE",
"238 -215 CURVE SMOOTH",
"288 -215 OFFCURVE",
"329 -175 OFFCURVE",
"329 -125 CURVE SMOOTH",
"329 -82 OFFCURVE",
"299 -46 OFFCURVE",
"260 -37 CURVE",
"260 -7 LINE",
"349 4 OFFCURVE",
"419 80 OFFCURVE",
"419 173 CURVE",
"328 173 LINE",
"328 127 OFFCURVE",
"287 82 OFFCURVE",
"237 82 CURVE SMOOTH",
"187 82 OFFCURVE",
"146 127 OFFCURVE",
"146 173 CURVE SMOOTH",
"146 373 LINE SMOOTH",
"146 418 OFFCURVE",
"187 464 OFFCURVE",
"237 464 CURVE SMOOTH",
"287 464 OFFCURVE",
"328 418 OFFCURVE",
"328 373 CURVE",
"419 373 LINE",
"419 467 OFFCURVE",
"337 555 OFFCURVE",
"237 555 CURVE SMOOTH",
"137 555 OFFCURVE",
"55 467 OFFCURVE",
"55 373 CURVE SMOOTH",
"55 173 LINE SMOOTH"
);
}
);
width = 480;
}
);
note = ccedilla;
unicode = 00E7;
},
{
color = 4;
glyphname = cdotaccent;
lastChange = "2025-05-06 20:11:14 +0000";
layers = (
{
layerId = "A5D64CBF-1778-47FF-82B6-0C31E83264E6";
paths = (
{
closed = 1;
nodes = (
"55 173 LINE SMOOTH",
"55 73 OFFCURVE",
"137 -9 OFFCURVE",
"237 -9 CURVE SMOOTH",
"337 -9 OFFCURVE",
"419 73 OFFCURVE",
"419 173 CURVE",
"328 173 LINE",
"328 127 OFFCURVE",
"287 82 OFFCURVE",
"237 82 CURVE SMOOTH",
"187 82 OFFCURVE",
"146 127 OFFCURVE",
"146 173 CURVE SMOOTH",
"146 373 LINE SMOOTH",
"146 418 OFFCURVE",
"187 464 OFFCURVE",
"237 464 CURVE SMOOTH",
"287 464 OFFCURVE",
"328 418 OFFCURVE",
"328 373 CURVE",
"419 373 LINE",
"419 467 OFFCURVE",
"337 555 OFFCURVE",
"237 555 CURVE SMOOTH",
"137 555 OFFCURVE",
"55 467 OFFCURVE",
"55 373 CURVE SMOOTH"
);
},
{
closed = 1;
nodes = (
"180 659 OFFCURVE",
"206 633 OFFCURVE",
"238 633 CURVE SMOOTH",
"269 633 OFFCURVE",
"295 659 OFFCURVE",
"295 691 CURVE SMOOTH",
"295 722 OFFCURVE",
"269 748 OFFCURVE",
"238 748 CURVE SMOOTH",
"206 748 OFFCURVE",
"180 722 OFFCURVE",
"180 691 CURVE SMOOTH"
);
}
);
width = 480;
}
);
unicode = 010B;
},
{
color = 4;
glyphname = d;
lastChange = "2025-05-06 20:11:14 +0000";
layers = (
{
anchors = (
{
name = bottom;
position = "{231, 0}";
},
{
name = ogonek;
position = "{351, 0}";
},
{
name = top;
position = "{231, 545}";
}
);
hints = (
{
horizontal = 1;
place = "{-9, 91}";
type = Stem;
},
{
horizontal = 1;
place = "{464, 91}";
type = Stem;
},
{
horizontal = 1;
place = "{818, -20}";
target = down;
type = TopGhost;
},
{
place = "{45, 91}";
type = Stem;
},
{
place = "{318, 91}";
type = Stem;
}
);
layerId = "A5D64CBF-1778-47FF-82B6-0C31E83264E6";
paths = (
{
closed = 1;
nodes = (
"318 512.667 LINE",
"259 552 LINE",
"249 554 OFFCURVE",
"238 555 OFFCURVE",
"228 555 CURVE SMOOTH",
"128 555 OFFCURVE",
"46 473 OFFCURVE",
"46 373 CURVE SMOOTH",
"46 173 LINE SMOOTH",
"46 73 OFFCURVE",
"128 -9 OFFCURVE",
"228 -9 CURVE SMOOTH",
"238 -9 OFFCURVE",
"249 -8 OFFCURVE",
"259 -6 CURVE",
"318 42.183 LINE",
"318 0 LINE",
"409 0 LINE",
"409 813 LINE",
"318 813 LINE"
);
},
{
closed = 1;
nodes = (
"137 373 LINE SMOOTH",
"137 423 OFFCURVE",
"178 464 OFFCURVE",
"228 464 CURVE SMOOTH",
"273.437 464 OFFCURVE",
"311.442 430.142 OFFCURVE",
"318 386.439 CURVE",
"318 159.561 LINE",
"311.442 115.858 OFFCURVE",
"273.437 82 OFFCURVE",
"228 82 CURVE SMOOTH",
"178 82 OFFCURVE",
"137 123 OFFCURVE",
"137 173 CURVE SMOOTH"
);
}
);
width = 480;
}
);
note = d;
unicode = 0064;
},
{
color = 4;
glyphname = eth;
lastChange = "2025-05-06 20:11:14 +0000";
layers = (
{
layerId = "A5D64CBF-1778-47FF-82B6-0C31E83264E6";
paths = (
{
closed = 1;
nodes = (
"198.704 681.582 OFFCURVE",
"228.165 659.865 OFFCURVE",
"252.093 633.093 CURVE",
"182 563 LINE",
"213 531 LINE",
"279.05 597.05 LINE",
"305.239 554.833 OFFCURVE",
"320 504.078 OFFCURVE",
"320 448 CURVE",
"319 448 LINE",
"259 488 LINE",
"249 490 OFFCURVE",
"238 491 OFFCURVE",
"228 491 CURVE SMOOTH",
"128 491 OFFCURVE",
"46 409 OFFCURVE",
"46 309 CURVE SMOOTH",
"46 173 LINE SMOOTH",
"46 73 OFFCURVE",
"128 -9 OFFCURVE",
"228 -9 CURVE SMOOTH",
"327 -9 OFFCURVE",
"409 73 OFFCURVE",
"409 173 CURVE SMOOTH",
"410 448 LINE SMOOTH",
"410 527.265 OFFCURVE",
"384.704 600.424 OFFCURVE",
"341.952 659.952 CURVE",
"408 726 LINE",
"377 758 LINE",
"313.647 694.647 LINE",
"281.419 729.537 OFFCURVE",
"242.485 758.011 OFFCURVE",
"199 778 CURVE",
"165 697 LINE"
);
},
{
closed = 1;
nodes = (
"137 309 LINE SMOOTH",
"138 359 OFFCURVE",
"178 400 OFFCURVE",
"228 400 CURVE SMOOTH",
"274.878 400 OFFCURVE",
"313.845 363.96 OFFCURVE",
"318.528 318.253 CURVE",
"318 173 LINE SMOOTH",
"318 127 OFFCURVE",
"277 82 OFFCURVE",
"228 82 CURVE SMOOTH",
"178 82 OFFCURVE",
"137 127 OFFCURVE",
"137 173 CURVE SMOOTH"
);
}
);
width = 480;
}
);
unicode = 00F0;
},
{
color = 4;
glyphname = dcaron;
lastChange = "2025-05-06 20:11:14 +0000";
layers = (
{
layerId = "A5D64CBF-1778-47FF-82B6-0C31E83264E6";
paths = (
{
closed = 1;
nodes = (
"420 657 LINE",
"462 635 LINE",
"545 797 LINE",
"504 818 LINE"
);
},
{
closed = 1;
nodes = (
"46 73 OFFCURVE",
"128 -9 OFFCURVE",
"228 -9 CURVE SMOOTH",
"238 -9 OFFCURVE",
"249 -8 OFFCURVE",
"259 -6 CURVE",
"318 42.183 LINE",
"318 0 LINE",
"409 0 LINE",
"409 813 LINE",
"318 813 LINE",
"318 512.667 LINE",
"259 552 LINE",
"249 554 OFFCURVE",
"238 555 OFFCURVE",
"228 555 CURVE SMOOTH",
"128 555 OFFCURVE",
"46 473 OFFCURVE",
"46 373 CURVE SMOOTH",
"46 173 LINE SMOOTH"
);
},
{
closed = 1;
nodes = (
"137 373 LINE SMOOTH",
"137 423 OFFCURVE",
"178 464 OFFCURVE",
"228 464 CURVE SMOOTH",
"273.437 464 OFFCURVE",
"311.442 430.142 OFFCURVE",
"318 386.439 CURVE",
"318 159.561 LINE",
"311.442 115.858 OFFCURVE",
"273.437 82 OFFCURVE",
"228 82 CURVE SMOOTH",
"178 82 OFFCURVE",
"137 123 OFFCURVE",
"137 173 CURVE SMOOTH"
);
}
);
width = 480;
}
);
unicode = 010F;
},
{
color = 4;
glyphname = dcroat;
lastChange = "2025-05-06 20:11:14 +0000";
layers = (
{
layerId = "A5D64CBF-1778-47FF-82B6-0C31E83264E6";
paths = (
{
closed = 1;
nodes = (
"318 614 LINE",
"318 512.667 LINE",
"259 552 LINE",
"249 554 OFFCURVE",
"238 555 OFFCURVE",
"228 555 CURVE SMOOTH",
"128 555 OFFCURVE",
"46 473 OFFCURVE",
"46 373 CURVE SMOOTH",
"46 173 LINE SMOOTH",
"46 73 OFFCURVE",
"128 -9 OFFCURVE",
"228 -9 CURVE SMOOTH",
"238 -9 OFFCURVE",
"249 -8 OFFCURVE",
"259 -6 CURVE",
"318 42.183 LINE",
"318 0 LINE",
"409 0 LINE",
"409 614 LINE",
"464 614 LINE",
"464 660 LINE",
"409 660 LINE",
"409 813 LINE",
"318 813 LINE",
"318 660 LINE",
"242 660 LINE",
"242 614 LINE"
);
},
{
closed = 1;
nodes = (
"137 373 LINE SMOOTH",
"137 423 OFFCURVE",
"178 464 OFFCURVE",
"228 464 CURVE SMOOTH",
"273.437 464 OFFCURVE",
"311.442 430.142 OFFCURVE",
"318 386.439 CURVE",
"318 159.561 LINE",
"311.442 115.858 OFFCURVE",
"273.437 82 OFFCURVE",
"228 82 CURVE SMOOTH",
"178 82 OFFCURVE",
"137 123 OFFCURVE",
"137 173 CURVE SMOOTH"
);
}
);
width = 480;
}
);
unicode = 0111;
},
{
color = 4;
glyphname = e;
lastChange = "2025-05-06 20:11:14 +0000";
layers = (
{
anchors = (
{
name = bottom;
position = "{231, 0}";
},
{
name = ogonek;
position = "{351, 0}";
},
{
name = top;
position = "{231, 545}";
}
);
hints = (
{
horizontal = 1;
place = "{-9, 91}";
type = Stem;
},
{
horizontal = 1;
place = "{267, 91}";
type = Stem;
},
{
horizontal = 1;
place = "{464, 91}";
type = Stem;
},
{
place = "{45, 91}";
type = Stem;
},
{
place = "{318, 91}";
type = Stem;
}
);
layerId = "A5D64CBF-1778-47FF-82B6-0C31E83264E6";
paths = (
{
closed = 1;
nodes = (
"136 338 LINE",
"136 373 LINE SMOOTH",
"136 418 OFFCURVE",
"177 469 OFFCURVE",
"227 469 CURVE SMOOTH",
"277 469 OFFCURVE",
"318 418 OFFCURVE",
"318 373 CURVE SMOOTH",
"318 338 LINE"
);
},
{
closed = 1;
nodes = (
"45 67 OFFCURVE",
"127 -15 OFFCURVE",
"227 -15 CURVE SMOOTH",
"327 -15 OFFCURVE",
"409 67 OFFCURVE",
"409 167 CURVE",
"318 167 LINE",
"318 121 OFFCURVE",
"277 71 OFFCURVE",
"227 71 CURVE SMOOTH",
"177 71 OFFCURVE",
"136 121 OFFCURVE",
"136 167 CURVE SMOOTH",
"136 252 LINE",
"409 252 LINE",
"409 373 LINE SMOOTH",
"409 473 OFFCURVE",
"327 555 OFFCURVE",
"227 555 CURVE SMOOTH",
"127 555 OFFCURVE",
"45 467 OFFCURVE",
"45 373 CURVE SMOOTH",
"45 167 LINE SMOOTH"
);
}
);
width = 480;
}
);
note = e;
unicode = 0065;
},
{
color = 4;
glyphname = eacute;
lastChange = "2025-05-06 20:11:14 +0000";
layers = (
{
hints = (
{
horizontal = 1;
place = "{-9, 91}";
type = Stem;
},
{
horizontal = 1;
place = "{267, 91}";
type = Stem;
},
{
horizontal = 1;
place = "{464, 91}";
type = Stem;
},
{
place = "{45, 91}";
type = Stem;
},
{
place = "{318, 91}";
type = Stem;
}
);
layerId = "A5D64CBF-1778-47FF-82B6-0C31E83264E6";
paths = (
{
closed = 1;
nodes = (
"141 622 LINE",
"164 582 LINE",
"321 673 LINE",
"298 713 LINE"
);
},
{
closed = 1;
nodes = (
"45 67 OFFCURVE",
"127 -15 OFFCURVE",
"227 -15 CURVE SMOOTH",
"327 -15 OFFCURVE",
"409 67 OFFCURVE",
"409 167 CURVE",
"318 167 LINE",
"318 121 OFFCURVE",
"277 71 OFFCURVE",
"227 71 CURVE SMOOTH",
"177 71 OFFCURVE",
"136 121 OFFCURVE",
"136 167 CURVE SMOOTH",
"136 252 LINE",
"409 252 LINE",
"409 373 LINE SMOOTH",
"409 473 OFFCURVE",
"327 555 OFFCURVE",
"227 555 CURVE SMOOTH",
"127 555 OFFCURVE",
"45 467 OFFCURVE",
"45 373 CURVE SMOOTH",
"45 167 LINE SMOOTH"
);
},
{
closed = 1;
nodes = (
"136 373 LINE SMOOTH",
"136 418 OFFCURVE",
"177 469 OFFCURVE",
"227 469 CURVE SMOOTH",
"277 469 OFFCURVE",
"318 418 OFFCURVE",
"318 373 CURVE SMOOTH",
"318 338 LINE",
"136 338 LINE"
);
}
);
width = 480;
}
);
note = eacute;
unicode = 00E9;
},
{
color = 4;
glyphname = ecaron;
lastChange = "2025-05-06 20:11:14 +0000";
layers = (
{
layerId = "A5D64CBF-1778-47FF-82B6-0C31E83264E6";
paths = (
{
closed = 1;
nodes = (
"136 338 LINE",
"136 373 LINE SMOOTH",
"136 418 OFFCURVE",
"177 469 OFFCURVE",
"227 469 CURVE SMOOTH",
"277 469 OFFCURVE",
"318 418 OFFCURVE",
"318 373 CURVE SMOOTH",
"318 338 LINE"
);
},
{
closed = 1;
nodes = (
"45 67 OFFCURVE",
"127 -15 OFFCURVE",
"227 -15 CURVE SMOOTH",
"327 -15 OFFCURVE",
"409 67 OFFCURVE",
"409 167 CURVE",
"318 167 LINE",
"318 121 OFFCURVE",
"277 71 OFFCURVE",
"227 71 CURVE SMOOTH",
"177 71 OFFCURVE",
"136 121 OFFCURVE",
"136 167 CURVE SMOOTH",
"136 252 LINE",
"409 252 LINE",
"409 373 LINE SMOOTH",
"409 473 OFFCURVE",
"327 555 OFFCURVE",
"227 555 CURVE SMOOTH",
"127 555 OFFCURVE",
"45 467 OFFCURVE",
"45 373 CURVE SMOOTH",
"45 167 LINE SMOOTH"
);
},
{
closed = 1;
nodes = (
"229 591 LINE",
"348 710 LINE",
"316 742 LINE",
"229 655 LINE",
"142 742 LINE",
"110 710 LINE"
);
}
);
width = 480;
}
);
unicode = 011B;
},
{
color = 4;
glyphname = ecircumflex;
lastChange = "2025-05-06 20:11:14 +0000";
layers = (
{
hints = (
{
horizontal = 1;
place = "{-9, 91}";
type = Stem;
},
{
horizontal = 1;
place = "{267, 91}";
type = Stem;
},
{
horizontal = 1;
place = "{464, 91}";
type = Stem;
},
{
place = "{45, 91}";
type = Stem;
},
{
place = "{318, 91}";
type = Stem;
}
);
layerId = "A5D64CBF-1778-47FF-82B6-0C31E83264E6";
paths = (
{
closed = 1;
nodes = (
"227 732 LINE",
"108 613 LINE",
"140 581 LINE",
"227 667 LINE",
"315 581 LINE",
"346 613 LINE"
);
},
{
closed = 1;
nodes = (
"45 67 OFFCURVE",
"127 -15 OFFCURVE",
"227 -15 CURVE SMOOTH",
"327 -15 OFFCURVE",
"409 67 OFFCURVE",
"409 167 CURVE",
"318 167 LINE",
"318 121 OFFCURVE",
"277 71 OFFCURVE",
"227 71 CURVE SMOOTH",
"177 71 OFFCURVE",
"136 121 OFFCURVE",
"136 167 CURVE SMOOTH",
"136 252 LINE",
"409 252 LINE",
"409 373 LINE SMOOTH",
"409 473 OFFCURVE",
"327 555 OFFCURVE",
"227 555 CURVE SMOOTH",
"127 555 OFFCURVE",
"45 467 OFFCURVE",
"45 373 CURVE SMOOTH",
"45 167 LINE SMOOTH"
);
},
{
closed = 1;
nodes = (
"136 373 LINE SMOOTH",
"136 418 OFFCURVE",
"177 469 OFFCURVE",
"227 469 CURVE SMOOTH",
"277 469 OFFCURVE",
"318 418 OFFCURVE",
"318 373 CURVE SMOOTH",
"318 338 LINE",
"136 338 LINE"
);
}
);
width = 480;
}
);
note = ecircumflex;
unicode = 00EA;
},
{
color = 4;
glyphname = edieresis;
lastChange = "2025-05-06 20:11:14 +0000";
layers = (
{
anchors = (
{
name = top;
position = "{227, 545}";
}
);
hints = (
{
horizontal = 1;
place = "{-9, 91}";
type = Stem;
},
{
horizontal = 1;
place = "{267, 91}";
type = Stem;
},
{
horizontal = 1;
place = "{464, 91}";
type = Stem;
},
{
horizontal = 1;
place = "{605, 100}";
type = Stem;
},
{
place = "{45, 91}";
type = Stem;
},
{
place = "{318, 91}";
type = Stem;
}
);
layerId = "A5D64CBF-1778-47FF-82B6-0C31E83264E6";
paths = (
{
closed = 1;
nodes = (
"136 338 LINE",
"136 373 LINE SMOOTH",
"136 418 OFFCURVE",
"177 469 OFFCURVE",
"227 469 CURVE SMOOTH",
"277 469 OFFCURVE",
"318 418 OFFCURVE",
"318 373 CURVE SMOOTH",
"318 338 LINE"
);
},
{
closed = 1;
nodes = (
"45 67 OFFCURVE",
"127 -15 OFFCURVE",
"227 -15 CURVE SMOOTH",
"327 -15 OFFCURVE",
"409 67 OFFCURVE",
"409 167 CURVE",
"318 167 LINE",
"318 121 OFFCURVE",
"277 71 OFFCURVE",
"227 71 CURVE SMOOTH",
"177 71 OFFCURVE",
"136 121 OFFCURVE",
"136 167 CURVE SMOOTH",
"136 252 LINE",
"409 252 LINE",
"409 373 LINE SMOOTH",
"409 473 OFFCURVE",
"327 555 OFFCURVE",
"227 555 CURVE SMOOTH",
"127 555 OFFCURVE",
"45 467 OFFCURVE",
"45 373 CURVE SMOOTH",
"45 167 LINE SMOOTH"
);
},
{
closed = 1;
nodes = (
"84 659 OFFCURVE",
"110 633 OFFCURVE",
"142 633 CURVE SMOOTH",
"173 633 OFFCURVE",
"199 659 OFFCURVE",
"199 691 CURVE SMOOTH",
"199 722 OFFCURVE",
"173 748 OFFCURVE",
"142 748 CURVE SMOOTH",
"110 748 OFFCURVE",
"84 722 OFFCURVE",
"84 691 CURVE SMOOTH"
);
},
{
closed = 1;
nodes = (
"255 659 OFFCURVE",
"281 633 OFFCURVE",
"313 633 CURVE SMOOTH",
"344 633 OFFCURVE",
"370 659 OFFCURVE",
"370 691 CURVE SMOOTH",
"370 722 OFFCURVE",
"344 748 OFFCURVE",
"313 748 CURVE SMOOTH",
"281 748 OFFCURVE",
"255 722 OFFCURVE",
"255 691 CURVE SMOOTH"
);
}
);
width = 480;
}
);
note = edieresis;
unicode = 00EB;
},
{
color = 4;
glyphname = edotaccent;
lastChange = "2025-05-06 20:11:14 +0000";
layers = (
{
layerId = "A5D64CBF-1778-47FF-82B6-0C31E83264E6";
paths = (
{
closed = 1;
nodes = (
"136 338 LINE",
"136 373 LINE SMOOTH",
"136 418 OFFCURVE",
"177 469 OFFCURVE",
"227 469 CURVE SMOOTH",
"277 469 OFFCURVE",
"318 418 OFFCURVE",
"318 373 CURVE SMOOTH",
"318 338 LINE"
);
},
{
closed = 1;
nodes = (
"45 67 OFFCURVE",
"127 -15 OFFCURVE",
"227 -15 CURVE SMOOTH",
"327 -15 OFFCURVE",
"409 67 OFFCURVE",
"409 167 CURVE",
"318 167 LINE",
"318 121 OFFCURVE",
"277 71 OFFCURVE",
"227 71 CURVE SMOOTH",
"177 71 OFFCURVE",
"136 121 OFFCURVE",
"136 167 CURVE SMOOTH",
"136 252 LINE",
"409 252 LINE",
"409 373 LINE SMOOTH",
"409 473 OFFCURVE",
"327 555 OFFCURVE",
"227 555 CURVE SMOOTH",
"127 555 OFFCURVE",
"45 467 OFFCURVE",
"45 373 CURVE SMOOTH",
"45 167 LINE SMOOTH"
);
},
{
closed = 1;
nodes = (
"171 659 OFFCURVE",
"197 633 OFFCURVE",
"229 633 CURVE SMOOTH",
"260 633 OFFCURVE",
"286 659 OFFCURVE",
"286 691 CURVE SMOOTH",
"286 722 OFFCURVE",
"260 748 OFFCURVE",
"229 748 CURVE SMOOTH",
"197 748 OFFCURVE",
"171 722 OFFCURVE",
"171 691 CURVE SMOOTH"
);
}
);
width = 480;
}
);
unicode = 0117;
},
{
color = 4;
glyphname = egrave;
lastChange = "2025-05-06 20:11:14 +0000";
layers = (
{
hints = (
{
horizontal = 1;
place = "{-9, 91}";
type = Stem;
},
{
horizontal = 1;
place = "{267, 91}";
type = Stem;
},
{
horizontal = 1;
place = "{464, 91}";
type = Stem;
},
{
place = "{45, 91}";
type = Stem;
},
{
place = "{318, 91}";
type = Stem;
}
);
layerId = "A5D64CBF-1778-47FF-82B6-0C31E83264E6";
paths = (
{
closed = 1;
nodes = (
"297 582 LINE",
"321 622 LINE",
"163 713 LINE",
"141 673 LINE"
);
},
{
closed = 1;
nodes = (
"45 67 OFFCURVE",
"127 -15 OFFCURVE",
"227 -15 CURVE SMOOTH",
"327 -15 OFFCURVE",
"409 67 OFFCURVE",
"409 167 CURVE",
"318 167 LINE",
"318 121 OFFCURVE",
"277 71 OFFCURVE",
"227 71 CURVE SMOOTH",
"177 71 OFFCURVE",
"136 121 OFFCURVE",
"136 167 CURVE SMOOTH",
"136 252 LINE",
"409 252 LINE",
"409 373 LINE SMOOTH",
"409 473 OFFCURVE",
"327 555 OFFCURVE",
"227 555 CURVE SMOOTH",
"127 555 OFFCURVE",
"45 467 OFFCURVE",
"45 373 CURVE SMOOTH",
"45 167 LINE SMOOTH"
);
},
{
closed = 1;
nodes = (
"136 373 LINE SMOOTH",
"136 418 OFFCURVE",
"177 469 OFFCURVE",
"227 469 CURVE SMOOTH",
"277 469 OFFCURVE",
"318 418 OFFCURVE",
"318 373 CURVE SMOOTH",
"318 338 LINE",
"136 338 LINE"
);
}
);
width = 480;
}
);
note = egrave;
unicode = 00E8;
},
{
color = 4;
glyphname = emacron;
lastChange = "2025-05-06 20:11:14 +0000";
layers = (
{
layerId = "A5D64CBF-1778-47FF-82B6-0C31E83264E6";
paths = (
{
closed = 1;
nodes = (
"325 614 LINE",
"325 660 LINE",
"143 660 LINE",
"143 614 LINE"
);
},
{
closed = 1;
nodes = (
"45 67 OFFCURVE",
"127 -15 OFFCURVE",
"227 -15 CURVE SMOOTH",
"327 -15 OFFCURVE",
"409 67 OFFCURVE",
"409 167 CURVE",
"318 167 LINE",
"318 121 OFFCURVE",
"277 71 OFFCURVE",
"227 71 CURVE SMOOTH",
"177 71 OFFCURVE",
"136 121 OFFCURVE",
"136 167 CURVE SMOOTH",
"136 252 LINE",
"409 252 LINE",
"409 373 LINE SMOOTH",
"409 473 OFFCURVE",
"327 555 OFFCURVE",
"227 555 CURVE SMOOTH",
"127 555 OFFCURVE",
"45 467 OFFCURVE",
"45 373 CURVE SMOOTH",
"45 167 LINE SMOOTH"
);
},
{
closed = 1;
nodes = (
"136 373 LINE SMOOTH",
"136 418 OFFCURVE",
"177 469 OFFCURVE",
"227 469 CURVE SMOOTH",
"277 469 OFFCURVE",
"318 418 OFFCURVE",
"318 373 CURVE SMOOTH",
"318 338 LINE",
"136 338 LINE"
);
}
);
width = 480;
}
);
unicode = 0113;
},
{
color = 4;
glyphname = eogonek;
lastChange = "2025-05-06 20:11:14 +0000";
layers = (
{
layerId = "A5D64CBF-1778-47FF-82B6-0C31E83264E6";
paths = (
{
closed = 1;
nodes = (
"307 -31 OFFCURVE",
"318 -26 OFFCURVE",
"331 -26 CURVE",
"331 17.921 LINE",
"378.054 50.929 OFFCURVE",
"409 105.568 OFFCURVE",
"409 167 CURVE",
"318 167 LINE",
"318 121 OFFCURVE",
"277 71 OFFCURVE",
"227 71 CURVE SMOOTH",
"177 71 OFFCURVE",
"136 121 OFFCURVE",
"136 167 CURVE SMOOTH",
"136 252 LINE",
"409 252 LINE",
"409 373 LINE SMOOTH",
"409 473 OFFCURVE",
"327 555 OFFCURVE",
"227 555 CURVE SMOOTH",
"127 555 OFFCURVE",
"45 467 OFFCURVE",
"45 373 CURVE SMOOTH",
"45 167 LINE SMOOTH",
"45 67 OFFCURVE",
"127 -15 OFFCURVE",
"227 -15 CURVE SMOOTH",
"239.514 -15 OFFCURVE",
"251.746 -13.716 OFFCURVE",
"263.571 -11.273 CURVE",
"249.504 -27.593 OFFCURVE",
"241 -48.946 OFFCURVE",
"241 -72 CURVE SMOOTH",
"241 -122 OFFCURVE",
"281 -163 OFFCURVE",
"331 -163 CURVE SMOOTH",
"354 -163 OFFCURVE",
"377 -154 OFFCURVE",
"395 -136 CURVE",
"363 -104 LINE",
"346 -122 OFFCURVE",
"318 -122 OFFCURVE",
"300 -104 CURVE",
"291 -96 OFFCURVE",
"286 -84 OFFCURVE",
"286 -72 CURVE SMOOTH",
"286 -63 OFFCURVE",
"289 -54 OFFCURVE",
"294 -46 CURVE",
"299 -40 LINE SMOOTH"
);
},
{
closed = 1;
nodes = (
"136 373 LINE SMOOTH",
"136 418 OFFCURVE",
"177 469 OFFCURVE",
"227 469 CURVE SMOOTH",
"277 469 OFFCURVE",
"318 418 OFFCURVE",
"318 373 CURVE SMOOTH",
"318 338 LINE",
"136 338 LINE"
);
}
);
width = 480;
}
);
unicode = 0119;
},
{
color = 4;
glyphname = f;
lastChange = "2025-05-06 20:11:14 +0000";
layers = (
{
background = {
paths = (
{
closed = 1;
nodes = (
"195 601 LINE SMOOTH",
"195 651 OFFCURVE",
"236 692 OFFCURVE",
"286 692 CURVE",
"286 783 LINE",
"186 783 OFFCURVE",
"105 701 OFFCURVE",
"105 601 CURVE SMOOTH",
"105 530 LINE",
"24 530 LINE",
"24 440 LINE",
"105 440 LINE",
"105 -1 LINE",
"195 -1 LINE",
"195 440 LINE",
"296 440 LINE",
"296 530 LINE",
"195 530 LINE"
);
}
);
};
hints = (
{
horizontal = 1;
place = "{-1, 20}";
type = Stem;
},
{
horizontal = 1;
place = "{546, 187}";
type = Stem;
},
{
horizontal = 1;
place = "{824, -20}";
target = down;
type = TopGhost;
}
);
layerId = "A5D64CBF-1778-47FF-82B6-0C31E83264E6";
paths = (
{
closed = 1;
nodes = (
"248 783 OFFCURVE",
"167 701 OFFCURVE",
"167 601 CURVE SMOOTH",
"167 515 LINE",
"39 515 LINE",
"39 425 LINE",
"167 425 LINE",
"167 -5 LINE",
"258 -5 LINE",
"258 425 LINE",
"442 425 LINE",
"442 515 LINE",
"258 515 LINE",
"258 601 LINE SMOOTH",
"258 651 OFFCURVE",
"298 692 OFFCURVE",
"348 692 CURVE SMOOTH",
"392 692 LINE",
"392 783 LINE",
"348 783 LINE SMOOTH"
);
}
);
width = 480;
}
);
note = f;
unicode = 0066;
},
{
color = 5;
glyphname = g;
lastChange = "2025-05-06 20:11:14 +0000";
layers = (
{
anchors = (
{
name = bottom;
position = "{231, 0}";
},
{
name = ogonek;
position = "{351, 0}";
},
{
name = top;
position = "{231, 545}";
}
);
hints = (
{
horizontal = 1;
place = "{-182, 91}";
type = Stem;
},
{
horizontal = 1;
place = "{91, 91}";
type = Stem;
},
{
horizontal = 1;
place = "{464, 91}";
type = Stem;
},
{
place = "{45, 91}";
type = Stem;
},
{
place = "{318, 91}";
type = Stem;
}
);
layerId = "A5D64CBF-1778-47FF-82B6-0C31E83264E6";
paths = (
{
closed = 1;
nodes = (
"79 -129 OFFCURVE",
"148 -182 OFFCURVE",
"228 -182 CURVE SMOOTH",
"328 -182 OFFCURVE",
"410 -100 OFFCURVE",
"410 0 CURVE SMOOTH",
"410 545 LINE",
"319 545 LINE",
"319 512 LINE",
"259 552 LINE",
"249 554 OFFCURVE",
"238 555 OFFCURVE",
"228 555 CURVE SMOOTH",
"128 555 OFFCURVE",
"46 473 OFFCURVE",
"46 373 CURVE SMOOTH",
"46 173 LINE SMOOTH",
"46 73 OFFCURVE",
"128 -9 OFFCURVE",
"228 -9 CURVE SMOOTH",
"238 -9 OFFCURVE",
"249 -8 OFFCURVE",
"259 -6 CURVE",
"319 43 LINE",
"319 0 LINE SMOOTH",
"320 -48 OFFCURVE",
"278 -96 OFFCURVE",
"228 -96 CURVE SMOOTH",
"188 -96 OFFCURVE",
"153 -66 OFFCURVE",
"141 -28 CURVE",
"55 -57 LINE"
);
},
{
closed = 1;
nodes = (
"137 373 LINE SMOOTH",
"137 423 OFFCURVE",
"178 464 OFFCURVE",
"228 464 CURVE SMOOTH",
"278 464 OFFCURVE",
"319 423 OFFCURVE",
"319 373 CURVE SMOOTH",
"319 173 LINE SMOOTH",
"319 123 OFFCURVE",
"278 82 OFFCURVE",
"228 82 CURVE SMOOTH",
"178 82 OFFCURVE",
"137 123 OFFCURVE",
"137 173 CURVE SMOOTH"
);
}
);
width = 480;
}
);
note = g;
unicode = 0067;
},
{
color = 4;
glyphname = gbreve;
lastChange = "2025-05-06 20:11:14 +0000";
layers = (
{
layerId = "A5D64CBF-1778-47FF-82B6-0C31E83264E6";
paths = (
{
closed = 1;
nodes = (
"137 631 OFFCURVE",
"177 591 OFFCURVE",
"227 591 CURVE SMOOTH",
"277 591 OFFCURVE",
"318 631 OFFCURVE",
"318 681 CURVE",
"273 681 LINE",
"273 656 OFFCURVE",
"253 636 OFFCURVE",
"227 636 CURVE SMOOTH",
"203 636 OFFCURVE",
"183 656 OFFCURVE",
"183 681 CURVE",
"137 681 LINE"
);
},
{
closed = 1;
nodes = (
"46 73 OFFCURVE",
"128 -9 OFFCURVE",
"228 -9 CURVE SMOOTH",
"238 -9 OFFCURVE",
"249 -8 OFFCURVE",
"259 -6 CURVE",
"318 42.183 LINE",
"318 -1 LINE SMOOTH",
"319 -49 OFFCURVE",
"277 -97 OFFCURVE",
"227 -97 CURVE SMOOTH",
"187 -97 OFFCURVE",
"152 -67 OFFCURVE",
"140 -29 CURVE",
"54 -58 LINE",
"78 -130 OFFCURVE",
"147 -183 OFFCURVE",
"227 -183 CURVE SMOOTH",
"327 -183 OFFCURVE",
"409 -101 OFFCURVE",
"409 -1 CURVE SMOOTH",
"409 0 LINE",
"410 0 LINE",
"410 545 LINE",
"319 545 LINE",
"319 544 LINE",
"318 544 LINE",
"318 512.667 LINE",
"259 552 LINE",
"249 554 OFFCURVE",
"238 555 OFFCURVE",
"228 555 CURVE SMOOTH",
"128 555 OFFCURVE",
"46 473 OFFCURVE",
"46 373 CURVE SMOOTH",
"46 173 LINE SMOOTH"
);
},
{
closed = 1;
nodes = (
"137 373 LINE SMOOTH",
"137 423 OFFCURVE",
"178 464 OFFCURVE",
"228 464 CURVE SMOOTH",
"273.437 464 OFFCURVE",
"311.442 430.142 OFFCURVE",
"318 386.439 CURVE",
"318 159.561 LINE",
"311.442 115.858 OFFCURVE",
"273.437 82 OFFCURVE",
"228 82 CURVE SMOOTH",
"178 82 OFFCURVE",
"137 123 OFFCURVE",
"137 173 CURVE SMOOTH"
);
}
);
width = 480;
}
);
unicode = 011F;
},
{
color = 4;
glyphname = gcommaaccent;
lastChange = "2025-05-06 20:11:14 +0000";
layers = (
{
layerId = "A5D64CBF-1778-47FF-82B6-0C31E83264E6";
paths = (
{
closed = 1;
nodes = (
"318 512.667 LINE",
"259 552 LINE",
"249 554 OFFCURVE",
"238 555 OFFCURVE",
"228 555 CURVE SMOOTH",
"128 555 OFFCURVE",
"46 473 OFFCURVE",
"46 373 CURVE SMOOTH",
"46 173 LINE SMOOTH",
"46 73 OFFCURVE",
"128 -9 OFFCURVE",
"228 -9 CURVE SMOOTH",
"238 -9 OFFCURVE",
"249 -8 OFFCURVE",
"259 -6 CURVE",
"318 42.183 LINE",
"318 -1 LINE SMOOTH",
"319 -49 OFFCURVE",
"277 -97 OFFCURVE",
"227 -97 CURVE SMOOTH",
"187 -97 OFFCURVE",
"152 -67 OFFCURVE",
"140 -29 CURVE",
"54 -58 LINE",
"78 -130 OFFCURVE",
"147 -183 OFFCURVE",
"227 -183 CURVE SMOOTH",
"327 -183 OFFCURVE",
"409 -101 OFFCURVE",
"409 -1 CURVE SMOOTH",
"409 0 LINE",
"410 0 LINE",
"410 545 LINE",
"319 545 LINE",
"319 544 LINE",
"318 544 LINE"
);
},
{
closed = 1;
nodes = (
"137 373 LINE SMOOTH",
"137 423 OFFCURVE",
"178 464 OFFCURVE",
"228 464 CURVE SMOOTH",
"273.437 464 OFFCURVE",
"311.442 430.142 OFFCURVE",
"318 386.439 CURVE",
"318 159.561 LINE",
"311.442 115.858 OFFCURVE",
"273.437 82 OFFCURVE",
"228 82 CURVE SMOOTH",
"178 82 OFFCURVE",
"137 123 OFFCURVE",
"137 173 CURVE SMOOTH"
);
},
{
closed = 1;
nodes = (
"298 713 LINE",
"321 673 LINE",
"164 582 LINE",
"141 622 LINE"
);
}
);
width = 480;
}
);
unicode = 0123;
},
{
color = 4;
glyphname = gdotaccent;
lastChange = "2025-05-06 20:11:14 +0000";
layers = (
{
layerId = "A5D64CBF-1778-47FF-82B6-0C31E83264E6";
paths = (
{
closed = 1;
nodes = (
"269 633 OFFCURVE",
"295 659 OFFCURVE",
"295 691 CURVE SMOOTH",
"295 722 OFFCURVE",
"269 748 OFFCURVE",
"238 748 CURVE SMOOTH",
"206 748 OFFCURVE",
"180 722 OFFCURVE",
"180 691 CURVE SMOOTH",
"180 659 OFFCURVE",
"206 633 OFFCURVE",
"238 633 CURVE SMOOTH"
);
},
{
closed = 1;
nodes = (
"46 73 OFFCURVE",
"128 -9 OFFCURVE",
"228 -9 CURVE SMOOTH",
"238 -9 OFFCURVE",
"249 -8 OFFCURVE",
"259 -6 CURVE",
"318 42.183 LINE",
"318 -1 LINE SMOOTH",
"319 -49 OFFCURVE",
"277 -97 OFFCURVE",
"227 -97 CURVE SMOOTH",
"187 -97 OFFCURVE",
"152 -67 OFFCURVE",
"140 -29 CURVE",
"54 -58 LINE",
"78 -130 OFFCURVE",
"147 -183 OFFCURVE",
"227 -183 CURVE SMOOTH",
"327 -183 OFFCURVE",
"409 -101 OFFCURVE",
"409 -1 CURVE SMOOTH",
"409 0 LINE",
"410 0 LINE",
"410 545 LINE",
"319 545 LINE",
"319 544 LINE",
"318 544 LINE",
"318 512.667 LINE",
"259 552 LINE",
"249 554 OFFCURVE",
"238 555 OFFCURVE",
"228 555 CURVE SMOOTH",
"128 555 OFFCURVE",
"46 473 OFFCURVE",
"46 373 CURVE SMOOTH",
"46 173 LINE SMOOTH"
);
},
{
closed = 1;
nodes = (
"137 373 LINE SMOOTH",
"137 423 OFFCURVE",
"178 464 OFFCURVE",
"228 464 CURVE SMOOTH",
"273.437 464 OFFCURVE",
"311.442 430.142 OFFCURVE",
"318 386.439 CURVE",
"318 159.561 LINE",
"311.442 115.858 OFFCURVE",
"273.437 82 OFFCURVE",
"228 82 CURVE SMOOTH",
"178 82 OFFCURVE",
"137 123 OFFCURVE",
"137 173 CURVE SMOOTH"
);
}
);
width = 480;
}
);
unicode = 0121;
},
{
color = 4;
glyphname = h;
lastChange = "2025-05-06 20:11:14 +0000";
layers = (
{
hints = (
{
horizontal = 1;
place = "{0, 20}";
type = Stem;
},
{
horizontal = 1;
place = "{818, -20}";
target = down;
type = TopGhost;
}
);
layerId = "A5D64CBF-1778-47FF-82B6-0C31E83264E6";
paths = (
{
closed = 1;
nodes = (
"45 813 LINE",
"45 0 LINE",
"136 0 LINE",
"136 373 LINE SMOOTH",
"136 423 OFFCURVE",
"177 464 OFFCURVE",
"227 464 CURVE SMOOTH",
"277 464 OFFCURVE",
"318 423 OFFCURVE",
"318 373 CURVE SMOOTH",
"318 0 LINE",
"409 0 LINE",
"409 373 LINE SMOOTH",
"409 473 OFFCURVE",
"327 555 OFFCURVE",
"227 555 CURVE SMOOTH",
"217 555 OFFCURVE",
"206 554 OFFCURVE",
"196 552 CURVE",
"136 512 LINE",
"136 813 LINE"
);
}
);
width = 480;
}
);
note = h;
unicode = 0068;
},
{
color = 4;
glyphname = hbar;
lastChange = "2025-05-06 20:11:14 +0000";
layers = (
{
layerId = "A5D64CBF-1778-47FF-82B6-0C31E83264E6";
paths = (
{
closed = 1;
nodes = (
"45 813 LINE",
"45 660 LINE",
"5 660 LINE",
"5 614 LINE",
"45 614 LINE",
"45 0 LINE",
"136 0 LINE",
"136 373 LINE SMOOTH",
"136 423 OFFCURVE",
"177 464 OFFCURVE",
"227 464 CURVE SMOOTH",
"277 464 OFFCURVE",
"318 423 OFFCURVE",
"318 373 CURVE SMOOTH",
"318 0 LINE",
"409 0 LINE",
"409 373 LINE SMOOTH",
"409 473 OFFCURVE",
"327 555 OFFCURVE",
"227 555 CURVE SMOOTH",
"217 555 OFFCURVE",
"206 554 OFFCURVE",
"196 552 CURVE",
"136 512 LINE",
"136 614 LINE",
"212 614 LINE",
"212 660 LINE",
"136 660 LINE",
"136 813 LINE"
);
}
);
width = 480;
}
);
unicode = 0127;
},
{
color = 4;
glyphname = i;
lastChange = "2025-05-06 20:11:14 +0000";
layers = (
{
anchors = (
{
name = bottom;
position = "{116, 0}";
},
{
name = ogonek;
position = "{151, 0}";
},
{
name = top;
position = "{116, 545}";
}
);
hints = (
{
horizontal = 1;
place = "{0, 20}";
type = Stem;
},
{
horizontal = 1;
place = "{632, 100}";
type = Stem;
},
{
place = "{40, 101}";
type = Stem;
}
);
layerId = "A5D64CBF-1778-47FF-82B6-0C31E83264E6";
paths = (
{
closed = 1;
nodes = (
"165 -2 LINE",
"165 543 LINE",
"70 543 LINE",
"70 -2 LINE"
);
},
{
closed = 1;
nodes = (
"62 659 OFFCURVE",
"88 633 OFFCURVE",
"120 633 CURVE SMOOTH",
"151 633 OFFCURVE",
"177 659 OFFCURVE",
"177 691 CURVE SMOOTH",
"177 722 OFFCURVE",
"151 748 OFFCURVE",
"120 748 CURVE SMOOTH",
"88 748 OFFCURVE",
"62 722 OFFCURVE",
"62 691 CURVE SMOOTH"
);
}
);
width = 240;
}
);
note = i;
unicode = 0069;
},
{
color = 4;
glyphname = idotless;
lastChange = "2025-05-06 20:11:14 +0000";
layers = (
{
anchors = (
{
name = bottom;
position = "{116, 0}";
},
{
name = top;
position = "{116, 545}";
}
);
hints = (
{
horizontal = 1;
place = "{0, 20}";
type = Stem;
},
{
horizontal = 1;
place = "{545, -20}";
target = down;
type = TopGhost;
}
);
layerId = "A5D64CBF-1778-47FF-82B6-0C31E83264E6";
paths = (
{
closed = 1;
nodes = (
"165 -2 LINE",
"165 543 LINE",
"70 543 LINE",
"70 -2 LINE"
);
}
);
width = 240;
}
);
note = dotlessi;
unicode = 0131;
},
{
color = 4;
glyphname = iacute;
lastChange = "2025-05-06 20:11:14 +0000";
layers = (
{
hints = (
{
horizontal = 1;
place = "{0, 20}";
type = Stem;
}
);
layerId = "A5D64CBF-1778-47FF-82B6-0C31E83264E6";
paths = (
{
closed = 1;
nodes = (
"207 773 LINE",
"230 733 LINE",
"73 642 LINE",
"50 682 LINE"
);
},
{
closed = 1;
nodes = (
"165 -2 LINE",
"165 543 LINE",
"70 543 LINE",
"70 -2 LINE"
);
}
);
width = 240;
}
);
note = iacute;
unicode = 00ED;
},
{
color = 4;
glyphname = icircumflex;
lastChange = "2025-05-06 20:11:14 +0000";
layers = (
{
hints = (
{
horizontal = 1;
place = "{0, 20}";
type = Stem;
}
);
layerId = "A5D64CBF-1778-47FF-82B6-0C31E83264E6";
paths = (
{
closed = 1;
nodes = (
"235 613 LINE",
"203 581 LINE",
"116 667 LINE",
"29 581 LINE",
"-3 613 LINE",
"116 732 LINE"
);
},
{
closed = 1;
nodes = (
"165 -2 LINE",
"165 543 LINE",
"70 543 LINE",
"70 -2 LINE"
);
}
);
width = 240;
}
);
note = icircumflex;
unicode = 00EE;
},
{
color = 4;
glyphname = idieresis;
lastChange = "2025-05-06 20:11:14 +0000";
layers = (
{
hints = (
{
horizontal = 1;
place = "{0, 20}";
type = Stem;
},
{
horizontal = 1;
place = "{632, 100}";
type = Stem;
},
{
place = "{-24, 101}";
type = Stem;
},
{
place = "{104, 101}";
type = Stem;
}
);
layerId = "A5D64CBF-1778-47FF-82B6-0C31E83264E6";
paths = (
{
closed = 1;
nodes = (
"136 0 LINE",
"136 545 LINE",
"45 545 LINE",
"45 0 LINE"
);
},
{
closed = 1;
nodes = (
"-24 718 OFFCURVE",
"-2 741 OFFCURVE",
"26 741 CURVE SMOOTH",
"55 741 OFFCURVE",
"77 718 OFFCURVE",
"77 691 CURVE SMOOTH",
"77 664 OFFCURVE",
"55 641 OFFCURVE",
"26 641 CURVE SMOOTH",
"-2 641 OFFCURVE",
"-24 664 OFFCURVE",
"-24 691 CURVE SMOOTH"
);
},
{
closed = 1;
nodes = (
"105 718 OFFCURVE",
"127 741 OFFCURVE",
"155 741 CURVE SMOOTH",
"182 741 OFFCURVE",
"205 718 OFFCURVE",
"205 691 CURVE SMOOTH",
"205 664 OFFCURVE",
"183 641 OFFCURVE",
"155 641 CURVE SMOOTH",
"126 641 OFFCURVE",
"105 664 OFFCURVE",
"105 691 CURVE SMOOTH"
);
}
);
width = 240;
}
);
note = idieresis;
unicode = 00EF;
},
{
color = 4;
glyphname = idotaccent;
lastChange = "2025-05-06 20:11:14 +0000";
layers = (
{
layerId = "A5D64CBF-1778-47FF-82B6-0C31E83264E6";
paths = (
{
closed = 1;
nodes = (
"165 -2 LINE",
"165 543 LINE",
"70 543 LINE",
"70 -2 LINE"
);
},
{
closed = 1;
nodes = (
"62 659 OFFCURVE",
"88 633 OFFCURVE",
"120 633 CURVE SMOOTH",
"151 633 OFFCURVE",
"177 659 OFFCURVE",
"177 691 CURVE SMOOTH",
"177 722 OFFCURVE",
"151 748 OFFCURVE",
"120 748 CURVE SMOOTH",
"88 748 OFFCURVE",
"62 722 OFFCURVE",
"62 691 CURVE SMOOTH"
);
}
);
width = 240;
}
);
},
{
color = 4;
glyphname = igrave;
lastChange = "2025-05-06 20:11:14 +0000";
layers = (
{
hints = (
{
horizontal = 1;
place = "{0, 20}";
type = Stem;
}
);
layerId = "A5D64CBF-1778-47FF-82B6-0C31E83264E6";
paths = (
{
closed = 1;
nodes = (
"136 0 LINE",
"136 545 LINE",
"45 545 LINE",
"45 0 LINE"
);
},
{
closed = 1;
nodes = (
"3 773 LINE",
"161 682 LINE",
"137 642 LINE",
"-19 733 LINE"
);
}
);
width = 240;
}
);
note = igrave;
unicode = 00EC;
},
{
color = 4;
glyphname = imacron;
lastChange = "2025-05-06 20:11:14 +0000";
layers = (
{
layerId = "A5D64CBF-1778-47FF-82B6-0C31E83264E6";
paths = (
{
closed = 1;
nodes = (
"165 -2 LINE",
"165 543 LINE",
"70 543 LINE",
"70 -2 LINE"
);
},
{
closed = 1;
nodes = (
"207 665 LINE",
"207 711 LINE",
"25 711 LINE",
"25 665 LINE"
);
}
);
width = 240;
}
);
unicode = 012B;
},
{
color = 4;
glyphname = iogonek;
lastChange = "2025-05-06 20:11:14 +0000";
layers = (
{
layerId = "A5D64CBF-1778-47FF-82B6-0C31E83264E6";
paths = (
{
closed = 1;
nodes = (
"109.154 -2 LINE",
"88.302 -18.993 OFFCURVE",
"75 -45.166 OFFCURVE",
"75 -74 CURVE SMOOTH",
"75 -124 OFFCURVE",
"115 -165 OFFCURVE",
"165 -165 CURVE SMOOTH",
"188 -165 OFFCURVE",
"211 -156 OFFCURVE",
"229 -138 CURVE",
"197 -106 LINE",
"180 -124 OFFCURVE",
"152 -124 OFFCURVE",
"134 -106 CURVE",
"125 -98 OFFCURVE",
"120 -86 OFFCURVE",
"120 -74 CURVE SMOOTH",
"120 -65 OFFCURVE",
"123 -56 OFFCURVE",
"128 -48 CURVE",
"133 -42 LINE SMOOTH",
"141 -33 OFFCURVE",
"152 -28 OFFCURVE",
"165 -28 CURVE",
"165 543 LINE",
"70 543 LINE",
"70 -2 LINE"
);
},
{
closed = 1;
nodes = (
"62 659 OFFCURVE",
"88 633 OFFCURVE",
"120 633 CURVE SMOOTH",
"151 633 OFFCURVE",
"177 659 OFFCURVE",
"177 691 CURVE SMOOTH",
"177 722 OFFCURVE",
"151 748 OFFCURVE",
"120 748 CURVE SMOOTH",
"88 748 OFFCURVE",
"62 722 OFFCURVE",
"62 691 CURVE SMOOTH"
);
}
);
width = 240;
}
);
unicode = 012F;
},
{
color = 4;
glyphname = j;
lastChange = "2025-05-06 20:11:14 +0000";
layers = (
{
anchors = (
{
name = "new anchor";
position = "{187, -116}";
},
{
name = top;
position = "{192, -147}";
}
);
hints = (
{
horizontal = 1;
place = "{-182, 91}";
type = Stem;
},
{
horizontal = 1;
place = "{632, 100}";
type = Stem;
},
{
place = "{45, 91}";
type = Stem;
}
);
layerId = "A5D64CBF-1778-47FF-82B6-0C31E83264E6";
paths = (
{
closed = 1;
nodes = (
"69 0 LINE SMOOTH",
"69 -50 OFFCURVE",
"29 -91 OFFCURVE",
"-21 -91 CURVE",
"-21 -182 LINE",
"79 -182 OFFCURVE",
"160 -100 OFFCURVE",
"160 0 CURVE SMOOTH",
"160 545 LINE",
"69 545 LINE"
);
},
{
closed = 1;
nodes = (
"57 659 OFFCURVE",
"83 633 OFFCURVE",
"115 633 CURVE SMOOTH",
"146 633 OFFCURVE",
"172 659 OFFCURVE",
"172 691 CURVE SMOOTH",
"172 722 OFFCURVE",
"146 748 OFFCURVE",
"115 748 CURVE SMOOTH",
"83 748 OFFCURVE",
"57 722 OFFCURVE",
"57 691 CURVE SMOOTH"
);
}
);
width = 240;
}
);
note = j;
unicode = 006A;
},
{
color = 4;
glyphname = jdotless;
lastChange = "2025-05-06 20:11:14 +0000";
layers = (
{
anchors = (
{
name = top;
position = "{116, 545}";
}
);
layerId = "A5D64CBF-1778-47FF-82B6-0C31E83264E6";
paths = (
{
closed = 1;
nodes = (
"69 0 LINE SMOOTH",
"69 -50 OFFCURVE",
"29 -91 OFFCURVE",
"-21 -91 CURVE",
"-21 -182 LINE",
"79 -182 OFFCURVE",
"160 -100 OFFCURVE",
"160 0 CURVE SMOOTH",
"160 545 LINE",
"69 545 LINE"
);
}
);
width = 240;
}
);
unicode = 0237;
},
{
color = 4;
glyphname = k;
lastChange = "2025-05-06 20:11:14 +0000";
layers = (
{
anchors = (
{
name = bottom;
position = "{231, 0}";
},
{
name = ogonek;
position = "{351, 0}";
},
{
name = top;
position = "{231, 545}";
}
);
background = {
paths = (
{
closed = 1;
nodes = (
"45 0 LINE",
"136 0 LINE",
"136 235 LINE",
"159 255 LINE",
"318 0 LINE",
"429 0 LINE",
"233 322 LINE",
"415 479 LINE",
"354 555 LINE",
"136 364 LINE",
"136 818 LINE",
"45 818 LINE"
);
}
);
};
hints = (
{
horizontal = 1;
place = "{0, 20}";
type = Stem;
},
{
horizontal = 1;
place = "{818, -20}";
target = down;
type = TopGhost;
},
{
place = "{45, 91}";
type = Stem;
}
);
layerId = "A5D64CBF-1778-47FF-82B6-0C31E83264E6";
paths = (
{
closed = 1;
nodes = (
"45 0 LINE",
"136 0 LINE",
"136 180.336 LINE",
"195.783 245.444 LINE",
"367 0 LINE",
"478 0 LINE",
"254 308 LINE",
"244.484 298.484 LINE",
"469 543 LINE",
"353 543 LINE",
"136 305.263 LINE",
"136 783 LINE",
"45 783 LINE"
);
}
);
width = 480;
}
);
note = k;
unicode = 006B;
},
{
color = 4;
glyphname = kcommaaccent;
lastChange = "2025-05-06 20:11:14 +0000";
layers = (
{
layerId = "A5D64CBF-1778-47FF-82B6-0C31E83264E6";
paths = (
{
closed = 1;
nodes = (
"149 -188 LINE",
"191 -210 LINE",
"274 -48 LINE",
"233 -27 LINE"
);
},
{
closed = 1;
nodes = (
"136 0 LINE",
"136 180.336 LINE",
"195.783 245.444 LINE",
"367 0 LINE",
"478 0 LINE",
"254 308 LINE",
"244.484 298.484 LINE",
"469 543 LINE",
"353 543 LINE",
"136 305.263 LINE",
"136 783 LINE",
"45 783 LINE",
"45 0 LINE"
);
}
);
width = 480;
}
);
unicode = 0137;
},
{
color = 4;
glyphname = l;
lastChange = "2025-05-06 20:11:14 +0000";
layers = (
{
anchors = (
{
name = bottom;
position = "{112, 0}";
},
{
name = top;
position = "{108, 783}";
}
);
hints = (
{
horizontal = 1;
place = "{0, 20}";
type = Stem;
},
{
horizontal = 1;
place = "{818, -20}";
target = down;
type = TopGhost;
},
{
place = "{45, 91}";
type = Stem;
}
);
layerId = "A5D64CBF-1778-47FF-82B6-0C31E83264E6";
paths = (
{
closed = 1;
nodes = (
"65 0 LINE",
"156 0 LINE",
"156 783 LINE",
"65 783 LINE"
);
}
);
width = 240;
}
);
note = l;
unicode = 006C;
},
{
color = 4;
glyphname = lacute;
lastChange = "2025-05-06 20:11:14 +0000";
layers = (
{
layerId = "A5D64CBF-1778-47FF-82B6-0C31E83264E6";
paths = (
{
closed = 1;
nodes = (
"42 853 LINE",
"65 813 LINE",
"222 904 LINE",
"199 944 LINE"
);
},
{
closed = 1;
nodes = (
"156 0 LINE",
"156 783 LINE",
"65 783 LINE",
"65 0 LINE"
);
}
);
width = 240;
}
);
unicode = 013A;
},
{
color = 4;
glyphname = lcaron;
lastChange = "2025-05-06 20:11:14 +0000";
layers = (
{
layerId = "A5D64CBF-1778-47FF-82B6-0C31E83264E6";
paths = (
{
closed = 1;
nodes = (
"166 606 LINE",
"212 594 LINE",
"258 770 LINE",
"213 782 LINE"
);
},
{
closed = 1;
nodes = (
"156 0 LINE",
"156 783 LINE",
"65 783 LINE",
"65 0 LINE"
);
}
);
width = 240;
}
);
unicode = 013E;
},
{
color = 4;
glyphname = lcommaaccent;
lastChange = "2025-05-06 20:11:14 +0000";
layers = (
{
layerId = "A5D64CBF-1778-47FF-82B6-0C31E83264E6";
paths = (
{
closed = 1;
nodes = (
"65 0 LINE",
"156 0 LINE",
"156 783 LINE",
"65 783 LINE"
);
},
{
closed = 1;
nodes = (
"61 -210 LINE",
"144 -48 LINE",
"103 -27 LINE",
"19 -188 LINE"
);
}
);
width = 240;
}
);
unicode = 013C;
},
{
color = 4;
glyphname = lslash;
lastChange = "2025-05-06 20:11:14 +0000";
layers = (
{
hints = (
{
horizontal = 1;
place = "{0, 20}";
type = Stem;
},
{
horizontal = 1;
place = "{818, -20}";
target = down;
type = TopGhost;
},
{
place = "{91, 91}";
type = Stem;
}
);
layerId = "A5D64CBF-1778-47FF-82B6-0C31E83264E6";
paths = (
{
closed = 1;
nodes = (
"29 261 LINE",
"65 296 LINE",
"65 0 LINE",
"156 0 LINE",
"156 387 LINE",
"222 454 LINE",
"189 486 LINE",
"156 453 LINE",
"156 783 LINE",
"65 783 LINE",
"65 362 LINE",
"-3 294 LINE"
);
}
);
width = 240;
}
);
note = lslash;
unicode = 0142;
},
{
color = 4;
glyphname = m;
lastChange = "2025-05-06 20:11:14 +0000";
layers = (
{
background = {
paths = (
{
closed = 1;
nodes = (
"45 545 LINE",
"45 0 LINE",
"136 0 LINE",
"136 377 LINE SMOOTH",
"136 427 OFFCURVE",
"177 468 OFFCURVE",
"227 468 CURVE SMOOTH",
"277 468 OFFCURVE",
"318 422 OFFCURVE",
"318 372 CURVE SMOOTH",
"318 0 LINE",
"409 0 LINE",
"409 372 LINE SMOOTH",
"409 472 OFFCURVE",
"329 554 OFFCURVE",
"232 554 CURVE SMOOTH",
"200 554 OFFCURVE",
"158 534 OFFCURVE",
"136 509 CURVE",
"136 545 LINE"
);
}
);
};
hints = (
{
horizontal = 1;
place = "{0, 20}";
type = Stem;
},
{
horizontal = 1;
place = "{555, -20}";
target = down;
type = TopGhost;
},
{
place = "{136, 182}";
type = Stem;
},
{
place = "{409, 182}";
type = Stem;
}
);
layerId = "A5D64CBF-1778-47FF-82B6-0C31E83264E6";
paths = (
{
closed = 1;
nodes = (
"45 545 LINE",
"45 0 LINE",
"136 0 LINE",
"136 373 LINE SMOOTH",
"136 423 OFFCURVE",
"172 464 OFFCURVE",
"222 464 CURVE SMOOTH",
"272 464 OFFCURVE",
"307 423 OFFCURVE",
"307 373 CURVE SMOOTH",
"307 0 LINE",
"398 0 LINE",
"398 373 LINE SMOOTH",
"398 423 OFFCURVE",
"437 464 OFFCURVE",
"482 464 CURVE SMOOTH",
"532 464 OFFCURVE",
"565 423 OFFCURVE",
"565 373 CURVE SMOOTH",
"565 0 LINE",
"656 0 LINE",
"656 373 LINE SMOOTH",
"656 473 OFFCURVE",
"582 555 OFFCURVE",
"482 555 CURVE SMOOTH",
"429.1 555 OFFCURVE",
"383.607 532.779 OFFCURVE",
"352.273 497.103 CURVE",
"320.832 532.669 OFFCURVE",
"275.229 555 OFFCURVE",
"222 555 CURVE SMOOTH",
"210 555 OFFCURVE",
"204 554 OFFCURVE",
"193 552 CURVE",
"196 552 LINE",
"136 492 LINE",
"136 545 LINE"
);
}
);
width = 720;
}
);
note = m;
unicode = 006D;
},
{
color = 4;
glyphname = n;
lastChange = "2025-05-06 20:11:14 +0000";
layers = (
{
anchors = (
{
name = bottom;
position = "{231, 0}";
},
{
name = top;
position = "{231, 545}";
}
);
hints = (
{
horizontal = 1;
place = "{0, 20}";
type = Stem;
},
{
horizontal = 1;
place = "{554, -20}";
target = down;
type = TopGhost;
},
{
place = "{136, 182}";
type = Stem;
}
);
layerId = "A5D64CBF-1778-47FF-82B6-0C31E83264E6";
paths = (
{
closed = 1;
nodes = (
"136 0 LINE",
"136 373 LINE SMOOTH",
"136 423 OFFCURVE",
"177 464 OFFCURVE",
"227 464 CURVE SMOOTH",
"277 464 OFFCURVE",
"318 423 OFFCURVE",
"318 373 CURVE SMOOTH",
"318 0 LINE",
"409 0 LINE",
"409 373 LINE SMOOTH",
"409 473 OFFCURVE",
"327 555 OFFCURVE",
"227 555 CURVE SMOOTH",
"216.559 555 OFFCURVE",
"206.366 554.011 OFFCURVE",
"196.419 552.28 CURVE",
"136 492 LINE",
"136 545 LINE",
"45 545 LINE",
"45 0 LINE"
);
}
);
width = 480;
}
);
note = n;
unicode = 006E;
},
{
color = 4;
glyphname = nacute;
lastChange = "2025-05-06 20:11:14 +0000";
layers = (
{
layerId = "A5D64CBF-1778-47FF-82B6-0C31E83264E6";
paths = (
{
closed = 1;
nodes = (
"136 0 LINE",
"136 373 LINE SMOOTH",
"136 423 OFFCURVE",
"177 464 OFFCURVE",
"227 464 CURVE SMOOTH",
"277 464 OFFCURVE",
"318 423 OFFCURVE",
"318 373 CURVE SMOOTH",
"318 0 LINE",
"409 0 LINE",
"409 373 LINE SMOOTH",
"409 473 OFFCURVE",
"327 555 OFFCURVE",
"227 555 CURVE SMOOTH",
"216.559 555 OFFCURVE",
"206.366 554.011 OFFCURVE",
"196.419 552.28 CURVE",
"136 492 LINE",
"136 545 LINE",
"45 545 LINE",
"45 0 LINE"
);
},
{
closed = 1;
nodes = (
"304 713 LINE",
"327 673 LINE",
"170 582 LINE",
"147 622 LINE"
);
}
);
width = 480;
}
);
unicode = 0144;
},
{
color = 4;
glyphname = ncaron;
lastChange = "2025-05-06 20:11:14 +0000";
layers = (
{
layerId = "A5D64CBF-1778-47FF-82B6-0C31E83264E6";
paths = (
{
closed = 1;
nodes = (
"360 710 LINE",
"328 742 LINE",
"241 655 LINE",
"154 742 LINE",
"122 710 LINE",
"241 591 LINE"
);
},
{
closed = 1;
nodes = (
"136 0 LINE",
"136 373 LINE SMOOTH",
"136 423 OFFCURVE",
"177 464 OFFCURVE",
"227 464 CURVE SMOOTH",
"277 464 OFFCURVE",
"318 423 OFFCURVE",
"318 373 CURVE SMOOTH",
"318 0 LINE",
"409 0 LINE",
"409 373 LINE SMOOTH",
"409 473 OFFCURVE",
"327 555 OFFCURVE",
"227 555 CURVE SMOOTH",
"216.559 555 OFFCURVE",
"206.366 554.011 OFFCURVE",
"196.419 552.28 CURVE",
"136 492 LINE",
"136 545 LINE",
"45 545 LINE",
"45 0 LINE"
);
}
);
width = 480;
}
);
unicode = 0148;
},
{
color = 4;
glyphname = ncommaaccent;
lastChange = "2025-05-06 20:11:14 +0000";
layers = (
{
layerId = "A5D64CBF-1778-47FF-82B6-0C31E83264E6";
paths = (
{
closed = 1;
nodes = (
"136 0 LINE",
"136 373 LINE SMOOTH",
"136 423 OFFCURVE",
"177 464 OFFCURVE",
"227 464 CURVE SMOOTH",
"277 464 OFFCURVE",
"318 423 OFFCURVE",
"318 373 CURVE SMOOTH",
"318 0 LINE",
"409 0 LINE",
"409 373 LINE SMOOTH",
"409 473 OFFCURVE",
"327 555 OFFCURVE",
"227 555 CURVE SMOOTH",
"216.559 555 OFFCURVE",
"206.366 554.011 OFFCURVE",
"196.419 552.28 CURVE",
"136 492 LINE",
"136 545 LINE",
"45 545 LINE",
"45 0 LINE"
);
},
{
closed = 1;
nodes = (
"191 -210 LINE",
"274 -48 LINE",
"233 -27 LINE",
"149 -188 LINE"
);
}
);
width = 480;
}
);
unicode = 0146;
},
{
color = 4;
glyphname = ntilde;
lastChange = "2025-05-06 20:11:14 +0000";
layers = (
{
hints = (
{
horizontal = 1;
place = "{0, 20}";
type = Stem;
},
{
place = "{136, 182}";
type = Stem;
}
);
layerId = "A5D64CBF-1778-47FF-82B6-0C31E83264E6";
paths = (
{
closed = 1;
nodes = (
"125 703 OFFCURVE",
"191 705 OFFCURVE",
"231 688 CURVE SMOOTH",
"265 673 OFFCURVE",
"312 670 OFFCURVE",
"365 694 CURVE",
"382 651 LINE",
"328 627 OFFCURVE",
"263 626 OFFCURVE",
"223 642 CURVE SMOOTH",
"186 657 OFFCURVE",
"142 660 OFFCURVE",
"88 636 CURVE",
"72 679 LINE"
);
},
{
closed = 1;
nodes = (
"136 0 LINE",
"136 373 LINE SMOOTH",
"136 423 OFFCURVE",
"177 464 OFFCURVE",
"227 464 CURVE SMOOTH",
"277 464 OFFCURVE",
"318 423 OFFCURVE",
"318 373 CURVE SMOOTH",
"318 0 LINE",
"409 0 LINE",
"409 373 LINE SMOOTH",
"409 473 OFFCURVE",
"327 555 OFFCURVE",
"227 555 CURVE SMOOTH",
"216.559 555 OFFCURVE",
"206.366 554.011 OFFCURVE",
"196.419 552.28 CURVE",
"136 492 LINE",
"136 545 LINE",
"45 545 LINE",
"45 0 LINE"
);
}
);
width = 480;
}
);
note = ntilde;
unicode = 00F1;
},
{
color = 4;
glyphname = o;
lastChange = "2025-05-06 20:11:14 +0000";
layers = (
{
anchors = (
{
name = bottom;
position = "{231, 0}";
},
{
name = ogonek;
position = "{351, 0}";
},
{
name = top;
position = "{231, 545}";
}
);
hints = (
{
horizontal = 1;
place = "{-9, 91}";
type = Stem;
},
{
horizontal = 1;
place = "{464, 91}";
type = Stem;
},
{
place = "{45, 91}";
type = Stem;
},
{
place = "{318, 91}";
type = Stem;
}
);
layerId = "A5D64CBF-1778-47FF-82B6-0C31E83264E6";
paths = (
{
closed = 1;
nodes = (
"55 67 OFFCURVE",
"137 -15 OFFCURVE",
"237 -15 CURVE SMOOTH",
"337 -15 OFFCURVE",
"419 67 OFFCURVE",
"419 167 CURVE SMOOTH",
"419 373 LINE SMOOTH",
"419 473 OFFCURVE",
"337 555 OFFCURVE",
"237 555 CURVE SMOOTH",
"137 555 OFFCURVE",
"55 473 OFFCURVE",
"55 373 CURVE SMOOTH",
"55 167 LINE SMOOTH"
);
},
{
closed = 1;
nodes = (
"146 373 LINE SMOOTH",
"146 423 OFFCURVE",
"187 464 OFFCURVE",
"237 464 CURVE SMOOTH",
"287 464 OFFCURVE",
"328 423 OFFCURVE",
"328 373 CURVE SMOOTH",
"328 167 LINE SMOOTH",
"328 117 OFFCURVE",
"287 76 OFFCURVE",
"237 76 CURVE SMOOTH",
"187 76 OFFCURVE",
"146 117 OFFCURVE",
"146 167 CURVE SMOOTH"
);
}
);
width = 480;
}
);
note = o;
unicode = 006F;
},
{
color = 4;
glyphname = oacute;
lastChange = "2025-05-06 20:11:14 +0000";
layers = (
{
hints = (
{
horizontal = 1;
place = "{-9, 91}";
type = Stem;
},
{
horizontal = 1;
place = "{464, 91}";
type = Stem;
},
{
place = "{45, 91}";
type = Stem;
},
{
place = "{318, 91}";
type = Stem;
}
);
layerId = "A5D64CBF-1778-47FF-82B6-0C31E83264E6";
paths = (
{
closed = 1;
nodes = (
"141 622 LINE",
"164 582 LINE",
"321 673 LINE",
"298 713 LINE"
);
},
{
closed = 1;
nodes = (
"55 67 OFFCURVE",
"137 -15 OFFCURVE",
"237 -15 CURVE SMOOTH",
"337 -15 OFFCURVE",
"419 67 OFFCURVE",
"419 167 CURVE SMOOTH",
"419 373 LINE SMOOTH",
"419 473 OFFCURVE",
"337 555 OFFCURVE",
"237 555 CURVE SMOOTH",
"137 555 OFFCURVE",
"55 473 OFFCURVE",
"55 373 CURVE SMOOTH",
"55 167 LINE SMOOTH"
);
},
{
closed = 1;
nodes = (
"146 373 LINE SMOOTH",
"146 423 OFFCURVE",
"187 464 OFFCURVE",
"237 464 CURVE SMOOTH",
"287 464 OFFCURVE",
"328 423 OFFCURVE",
"328 373 CURVE SMOOTH",
"328 167 LINE SMOOTH",
"328 117 OFFCURVE",
"287 76 OFFCURVE",
"237 76 CURVE SMOOTH",
"187 76 OFFCURVE",
"146 117 OFFCURVE",
"146 167 CURVE SMOOTH"
);
}
);
width = 480;
}
);
note = oacute;
unicode = 00F3;
},
{
color = 4;
glyphname = ocircumflex;
lastChange = "2025-05-06 20:11:14 +0000";
layers = (
{
hints = (
{
horizontal = 1;
place = "{-9, 91}";
type = Stem;
},
{
horizontal = 1;
place = "{464, 91}";
type = Stem;
},
{
place = "{45, 91}";
type = Stem;
},
{
place = "{318, 91}";
type = Stem;
}
);
layerId = "A5D64CBF-1778-47FF-82B6-0C31E83264E6";
paths = (
{
closed = 1;
nodes = (
"237 732 LINE",
"118 613 LINE",
"150 581 LINE",
"237 667 LINE",
"325 581 LINE",
"356 613 LINE"
);
},
{
closed = 1;
nodes = (
"55 67 OFFCURVE",
"137 -15 OFFCURVE",
"237 -15 CURVE SMOOTH",
"337 -15 OFFCURVE",
"419 67 OFFCURVE",
"419 167 CURVE SMOOTH",
"419 373 LINE SMOOTH",
"419 473 OFFCURVE",
"337 555 OFFCURVE",
"237 555 CURVE SMOOTH",
"137 555 OFFCURVE",
"55 473 OFFCURVE",
"55 373 CURVE SMOOTH",
"55 167 LINE SMOOTH"
);
},
{
closed = 1;
nodes = (
"146 373 LINE SMOOTH",
"146 423 OFFCURVE",
"187 464 OFFCURVE",
"237 464 CURVE SMOOTH",
"287 464 OFFCURVE",
"328 423 OFFCURVE",
"328 373 CURVE SMOOTH",
"328 167 LINE SMOOTH",
"328 117 OFFCURVE",
"287 76 OFFCURVE",
"237 76 CURVE SMOOTH",
"187 76 OFFCURVE",
"146 117 OFFCURVE",
"146 167 CURVE SMOOTH"
);
}
);
width = 480;
}
);
note = ocircumflex;
unicode = 00F4;
},
{
color = 4;
glyphname = odieresis;
lastChange = "2025-05-06 20:11:14 +0000";
layers = (
{
hints = (
{
horizontal = 1;
place = "{-9, 91}";
type = Stem;
},
{
horizontal = 1;
place = "{464, 91}";
type = Stem;
},
{
horizontal = 1;
place = "{605, 100}";
type = Stem;
},
{
place = "{45, 91}";
type = Stem;
},
{
place = "{318, 91}";
type = Stem;
}
);
layerId = "A5D64CBF-1778-47FF-82B6-0C31E83264E6";
paths = (
{
closed = 1;
nodes = (
"182 633 OFFCURVE",
"208 659 OFFCURVE",
"208 691 CURVE SMOOTH",
"208 722 OFFCURVE",
"182 748 OFFCURVE",
"151 748 CURVE SMOOTH",
"119 748 OFFCURVE",
"93 722 OFFCURVE",
"93 691 CURVE SMOOTH",
"93 659 OFFCURVE",
"119 633 OFFCURVE",
"151 633 CURVE SMOOTH"
);
},
{
closed = 1;
nodes = (
"55 67 OFFCURVE",
"137 -15 OFFCURVE",
"237 -15 CURVE SMOOTH",
"337 -15 OFFCURVE",
"419 67 OFFCURVE",
"419 167 CURVE SMOOTH",
"419 373 LINE SMOOTH",
"419 473 OFFCURVE",
"337 555 OFFCURVE",
"237 555 CURVE SMOOTH",
"137 555 OFFCURVE",
"55 473 OFFCURVE",
"55 373 CURVE SMOOTH",
"55 167 LINE SMOOTH"
);
},
{
closed = 1;
nodes = (
"146 373 LINE SMOOTH",
"146 423 OFFCURVE",
"187 464 OFFCURVE",
"237 464 CURVE SMOOTH",
"287 464 OFFCURVE",
"328 423 OFFCURVE",
"328 373 CURVE SMOOTH",
"328 167 LINE SMOOTH",
"328 117 OFFCURVE",
"287 76 OFFCURVE",
"237 76 CURVE SMOOTH",
"187 76 OFFCURVE",
"146 117 OFFCURVE",
"146 167 CURVE SMOOTH"
);
},
{
closed = 1;
nodes = (
"264 659 OFFCURVE",
"290 633 OFFCURVE",
"322 633 CURVE SMOOTH",
"353 633 OFFCURVE",
"379 659 OFFCURVE",
"379 691 CURVE SMOOTH",
"379 722 OFFCURVE",
"353 748 OFFCURVE",
"322 748 CURVE SMOOTH",
"290 748 OFFCURVE",
"264 722 OFFCURVE",
"264 691 CURVE SMOOTH"
);
}
);
width = 480;
}
);
note = odieresis;
unicode = 00F6;
},
{
color = 4;
glyphname = ograve;
lastChange = "2025-05-06 20:11:14 +0000";
layers = (
{
hints = (
{
horizontal = 1;
place = "{-9, 91}";
type = Stem;
},
{
horizontal = 1;
place = "{464, 91}";
type = Stem;
},
{
place = "{45, 91}";
type = Stem;
},
{
place = "{318, 91}";
type = Stem;
}
);
layerId = "A5D64CBF-1778-47FF-82B6-0C31E83264E6";
paths = (
{
closed = 1;
nodes = (
"297 582 LINE",
"321 622 LINE",
"163 713 LINE",
"141 673 LINE"
);
},
{
closed = 1;
nodes = (
"55 67 OFFCURVE",
"137 -15 OFFCURVE",
"237 -15 CURVE SMOOTH",
"337 -15 OFFCURVE",
"419 67 OFFCURVE",
"419 167 CURVE SMOOTH",
"419 373 LINE SMOOTH",
"419 473 OFFCURVE",
"337 555 OFFCURVE",
"237 555 CURVE SMOOTH",
"137 555 OFFCURVE",
"55 473 OFFCURVE",
"55 373 CURVE SMOOTH",
"55 167 LINE SMOOTH"
);
},
{
closed = 1;
nodes = (
"146 373 LINE SMOOTH",
"146 423 OFFCURVE",
"187 464 OFFCURVE",
"237 464 CURVE SMOOTH",
"287 464 OFFCURVE",
"328 423 OFFCURVE",
"328 373 CURVE SMOOTH",
"328 167 LINE SMOOTH",
"328 117 OFFCURVE",
"287 76 OFFCURVE",
"237 76 CURVE SMOOTH",
"187 76 OFFCURVE",
"146 117 OFFCURVE",
"146 167 CURVE SMOOTH"
);
}
);
width = 480;
}
);
note = ograve;
unicode = 00F2;
},
{
color = 4;
glyphname = ohungarumlaut;
lastChange = "2025-05-06 20:11:14 +0000";
layers = (
{
layerId = "A5D64CBF-1778-47FF-82B6-0C31E83264E6";
paths = (
{
closed = 0;
nodes = (
"272 704 LINE",
"238 736 LINE",
"146 638 LINE"
);
},
{
closed = 0;
nodes = (
"371 704 LINE",
"337 736 LINE",
"245 638 LINE"
);
},
{
closed = 1;
nodes = (
"146 638 LINE",
"180 606 LINE",
"272 704 LINE",
"238 736 LINE"
);
},
{
closed = 1;
nodes = (
"55 67 OFFCURVE",
"137 -15 OFFCURVE",
"237 -15 CURVE SMOOTH",
"337 -15 OFFCURVE",
"419 67 OFFCURVE",
"419 167 CURVE SMOOTH",
"419 373 LINE SMOOTH",
"419 473 OFFCURVE",
"337 555 OFFCURVE",
"237 555 CURVE SMOOTH",
"137 555 OFFCURVE",
"55 473 OFFCURVE",
"55 373 CURVE SMOOTH",
"55 167 LINE SMOOTH"
);
},
{
closed = 1;
nodes = (
"146 373 LINE SMOOTH",
"146 423 OFFCURVE",
"187 464 OFFCURVE",
"237 464 CURVE SMOOTH",
"287 464 OFFCURVE",
"328 423 OFFCURVE",
"328 373 CURVE SMOOTH",
"328 167 LINE SMOOTH",
"328 117 OFFCURVE",
"287 76 OFFCURVE",
"237 76 CURVE SMOOTH",
"187 76 OFFCURVE",
"146 117 OFFCURVE",
"146 167 CURVE SMOOTH"
);
},
{
closed = 1;
nodes = (
"279 606 LINE",
"371 704 LINE",
"337 736 LINE",
"245 638 LINE"
);
}
);
width = 480;
}
);
unicode = 0151;
},
{
color = 4;
glyphname = oslash;
lastChange = "2025-05-06 20:11:14 +0000";
layers = (
{
hints = (
{
horizontal = 1;
place = "{-9, 91}";
type = Stem;
},
{
horizontal = 1;
place = "{464, 91}";
type = Stem;
},
{
place = "{45, 91}";
type = Stem;
},
{
place = "{318, 91}";
type = Stem;
}
);
layerId = "A5D64CBF-1778-47FF-82B6-0C31E83264E6";
paths = (
{
closed = 1;
nodes = (
"132 -11 LINE",
"142 12 LINE",
"170 -5 OFFCURVE",
"203 -15 OFFCURVE",
"237 -15 CURVE SMOOTH",
"337 -15 OFFCURVE",
"419 67 OFFCURVE",
"419 167 CURVE SMOOTH",
"419 373 LINE SMOOTH",
"419 422 OFFCURVE",
"399 466 OFFCURVE",
"367 499 CURVE",
"382 531 LINE",
"341 550 LINE",
"331 528 LINE",
"304 545 OFFCURVE",
"272 555 OFFCURVE",
"237 555 CURVE SMOOTH",
"137 555 OFFCURVE",
"55 473 OFFCURVE",
"55 373 CURVE SMOOTH",
"55 167 LINE SMOOTH",
"55 118 OFFCURVE",
"75 74 OFFCURVE",
"106 41 CURVE",
"91 9 LINE"
);
},
{
closed = 1;
nodes = (
"146 373 LINE SMOOTH",
"146 423 OFFCURVE",
"187 464 OFFCURVE",
"237 464 CURVE SMOOTH",
"258 464 OFFCURVE",
"277 457 OFFCURVE",
"292 445 CURVE",
"151 138 LINE",
"148 147 OFFCURVE",
"146 157 OFFCURVE",
"146 167 CURVE SMOOTH"
);
},
{
closed = 1;
nodes = (
"323 404 LINE",
"326 395 OFFCURVE",
"328 384 OFFCURVE",
"328 373 CURVE SMOOTH",
"328 167 LINE SMOOTH",
"328 117 OFFCURVE",
"287 76 OFFCURVE",
"237 76 CURVE SMOOTH",
"216 76 OFFCURVE",
"196 83 OFFCURVE",
"181 95 CURVE"
);
}
);
width = 480;
}
);
note = oslash;
unicode = 00F8;
},
{
color = 4;
glyphname = otilde;
lastChange = "2025-05-06 20:11:14 +0000";
layers = (
{
hints = (
{
horizontal = 1;
place = "{-9, 91}";
type = Stem;
},
{
horizontal = 1;
place = "{464, 91}";
type = Stem;
},
{
place = "{45, 91}";
type = Stem;
},
{
place = "{318, 91}";
type = Stem;
}
);
layerId = "A5D64CBF-1778-47FF-82B6-0C31E83264E6";
paths = (
{
closed = 1;
nodes = (
"191 705 OFFCURVE",
"125 703 OFFCURVE",
"72 679 CURVE",
"88 636 LINE",
"142 660 OFFCURVE",
"186 657 OFFCURVE",
"223 642 CURVE SMOOTH",
"263 626 OFFCURVE",
"328 627 OFFCURVE",
"382 651 CURVE",
"365 694 LINE",
"312 670 OFFCURVE",
"265 673 OFFCURVE",
"231 688 CURVE SMOOTH"
);
},
{
closed = 1;
nodes = (
"55 67 OFFCURVE",
"137 -15 OFFCURVE",
"237 -15 CURVE SMOOTH",
"337 -15 OFFCURVE",
"419 67 OFFCURVE",
"419 167 CURVE SMOOTH",
"419 373 LINE SMOOTH",
"419 473 OFFCURVE",
"337 555 OFFCURVE",
"237 555 CURVE SMOOTH",
"137 555 OFFCURVE",
"55 473 OFFCURVE",
"55 373 CURVE SMOOTH",
"55 167 LINE SMOOTH"
);
},
{
closed = 1;
nodes = (
"146 373 LINE SMOOTH",
"146 423 OFFCURVE",
"187 464 OFFCURVE",
"237 464 CURVE SMOOTH",
"287 464 OFFCURVE",
"328 423 OFFCURVE",
"328 373 CURVE SMOOTH",
"328 167 LINE SMOOTH",
"328 117 OFFCURVE",
"287 76 OFFCURVE",
"237 76 CURVE SMOOTH",
"187 76 OFFCURVE",
"146 117 OFFCURVE",
"146 167 CURVE SMOOTH"
);
}
);
width = 480;
}
);
note = otilde;
unicode = 00F5;
},
{
color = 4;
glyphname = oe;
lastChange = "2025-05-06 20:11:14 +0000";
layers = (
{
hints = (
{
horizontal = 1;
place = "{-9, 91}";
type = Stem;
},
{
horizontal = 1;
place = "{267, 91}";
type = Stem;
},
{
horizontal = 1;
place = "{464, 91}";
type = Stem;
},
{
place = "{45, 91}";
type = Stem;
},
{
place = "{318, 91}";
type = Stem;
},
{
place = "{591, 91}";
type = Stem;
}
);
layerId = "A5D64CBF-1778-47FF-82B6-0C31E83264E6";
paths = (
{
closed = 1;
nodes = (
"409 343 LINE",
"409 373 LINE SMOOTH",
"409 418 OFFCURVE",
"450 464 OFFCURVE",
"500 464 CURVE SMOOTH",
"550 464 OFFCURVE",
"591 418 OFFCURVE",
"591 373 CURVE SMOOTH",
"591 343 LINE"
);
},
{
closed = 1;
nodes = (
"45 73 OFFCURVE",
"127 -9 OFFCURVE",
"227 -9 CURVE SMOOTH",
"282 -9 OFFCURVE",
"330 15 OFFCURVE",
"364 53 CURVE",
"397 15 OFFCURVE",
"446 -9 OFFCURVE",
"500 -9 CURVE SMOOTH",
"600 -9 OFFCURVE",
"682 73 OFFCURVE",
"682 173 CURVE",
"591 173 LINE",
"591 127 OFFCURVE",
"550 82 OFFCURVE",
"500 82 CURVE SMOOTH",
"450 82 OFFCURVE",
"409 127 OFFCURVE",
"409 173 CURVE SMOOTH",
"409 252 LINE",
"682 252 LINE",
"682 373 LINE SMOOTH",
"682 473 OFFCURVE",
"600 555 OFFCURVE",
"500 555 CURVE SMOOTH",
"446 555 OFFCURVE",
"398 529 OFFCURVE",
"365 492 CURVE",
"331 530 OFFCURVE",
"282 555 OFFCURVE",
"227 555 CURVE SMOOTH",
"127 555 OFFCURVE",
"45 473 OFFCURVE",
"45 373 CURVE SMOOTH",
"45 173 LINE SMOOTH"
);
},
{
closed = 1;
nodes = (
"136 373 LINE SMOOTH",
"136 423 OFFCURVE",
"177 464 OFFCURVE",
"227 464 CURVE SMOOTH",
"277 464 OFFCURVE",
"318 423 OFFCURVE",
"318 373 CURVE SMOOTH",
"318 173 LINE SMOOTH",
"318 123 OFFCURVE",
"277 82 OFFCURVE",
"227 82 CURVE SMOOTH",
"177 82 OFFCURVE",
"136 123 OFFCURVE",
"136 173 CURVE SMOOTH"
);
}
);
width = 720;
}
);
note = oe;
unicode = 0153;
},
{
color = 4;
glyphname = p;
lastChange = "2025-05-06 20:11:14 +0000";
layers = (
{
background = {
paths = (
{
closed = 1;
nodes = (
"136 373 LINE SMOOTH",
"136 423 OFFCURVE",
"177 464 OFFCURVE",
"227 464 CURVE SMOOTH",
"277 464 OFFCURVE",
"318 423 OFFCURVE",
"318 373 CURVE SMOOTH",
"318 173 LINE SMOOTH",
"318 123 OFFCURVE",
"277 82 OFFCURVE",
"227 82 CURVE SMOOTH",
"177 82 OFFCURVE",
"136 123 OFFCURVE",
"136 173 CURVE SMOOTH"
);
},
{
closed = 1;
nodes = (
"136 20 LINE",
"163 3 OFFCURVE",
"194 -9 OFFCURVE",
"227 -9 CURVE SMOOTH",
"327 -9 OFFCURVE",
"409 73 OFFCURVE",
"409 173 CURVE SMOOTH",
"409 373 LINE SMOOTH",
"409 473 OFFCURVE",
"327 555 OFFCURVE",
"227 555 CURVE SMOOTH",
"194 555 OFFCURVE",
"163 543 OFFCURVE",
"136 525 CURVE",
"136 545 LINE",
"45 545 LINE",
"45 -182 LINE",
"136 -182 LINE"
);
}
);
};
hints = (
{
horizontal = 1;
place = "{-9, 91}";
type = Stem;
},
{
horizontal = 1;
place = "{464, 91}";
type = Stem;
},
{
place = "{45, 91}";
type = Stem;
},
{
place = "{318, 91}";
type = Stem;
}
);
layerId = "A5D64CBF-1778-47FF-82B6-0C31E83264E6";
paths = (
{
closed = 1;
nodes = (
"136 423 OFFCURVE",
"177 464 OFFCURVE",
"227 464 CURVE SMOOTH",
"277 464 OFFCURVE",
"318 423 OFFCURVE",
"318 373 CURVE SMOOTH",
"318 173 LINE SMOOTH",
"318 123 OFFCURVE",
"277 82 OFFCURVE",
"227 82 CURVE SMOOTH",
"177 82 OFFCURVE",
"136 123 OFFCURVE",
"136 173 CURVE SMOOTH",
"136 373 LINE SMOOTH"
);
},
{
closed = 1;
nodes = (
"136 -182 LINE",
"136 43 LINE",
"196 -6 LINE",
"206 -8 OFFCURVE",
"217 -9 OFFCURVE",
"227 -9 CURVE SMOOTH",
"327 -9 OFFCURVE",
"409 73 OFFCURVE",
"409 173 CURVE SMOOTH",
"409 373 LINE SMOOTH",
"409 473 OFFCURVE",
"327 555 OFFCURVE",
"227 555 CURVE SMOOTH",
"217 555 OFFCURVE",
"206 554 OFFCURVE",
"196 552 CURVE",
"136 502 LINE",
"136 545 LINE",
"45 545 LINE",
"45 -182 LINE"
);
}
);
width = 480;
}
);
note = p;
unicode = 0070;
},
{
color = 4;
glyphname = thorn;
lastChange = "2025-05-06 20:11:14 +0000";
layers = (
{
layerId = "A5D64CBF-1778-47FF-82B6-0C31E83264E6";
paths = (
{
closed = 1;
nodes = (
"136 423 OFFCURVE",
"177 464 OFFCURVE",
"227 464 CURVE SMOOTH",
"277 464 OFFCURVE",
"318 423 OFFCURVE",
"318 373 CURVE SMOOTH",
"318 173 LINE SMOOTH",
"318 123 OFFCURVE",
"277 82 OFFCURVE",
"227 82 CURVE SMOOTH",
"177 82 OFFCURVE",
"136 123 OFFCURVE",
"136 173 CURVE SMOOTH",
"136 373 LINE SMOOTH"
);
},
{
closed = 1;
nodes = (
"136 -182 LINE",
"136 43 LINE",
"196 -6 LINE",
"206 -8 OFFCURVE",
"217 -9 OFFCURVE",
"227 -9 CURVE SMOOTH",
"327 -9 OFFCURVE",
"409 73 OFFCURVE",
"409 173 CURVE SMOOTH",
"409 373 LINE SMOOTH",
"409 473 OFFCURVE",
"327 555 OFFCURVE",
"227 555 CURVE SMOOTH",
"217 555 OFFCURVE",
"206 554 OFFCURVE",
"196 552 CURVE",
"136 502 LINE",
"136 720 LINE",
"45 720 LINE",
"45 -182 LINE"
);
}
);
width = 480;
}
);
unicode = 00FE;
},
{
color = 4;
glyphname = q;
lastChange = "2025-05-06 20:11:14 +0000";
layers = (
{
background = {
paths = (
{
closed = 0;
nodes = (
"227 82 LINE SMOOTH",
"277 82 OFFCURVE",
"318 123 OFFCURVE",
"318 173 CURVE SMOOTH",
"318 373 LINE SMOOTH",
"318 423 OFFCURVE",
"277 464 OFFCURVE",
"227 464 CURVE SMOOTH"
);
},
{
closed = 0;
nodes = (
"227 555 LINE SMOOTH",
"260 555 OFFCURVE",
"300 541 OFFCURVE",
"318 515 CURVE"
);
}
);
};
hints = (
{
horizontal = 1;
place = "{-9, 91}";
type = Stem;
},
{
horizontal = 1;
place = "{464, 91}";
type = Stem;
},
{
place = "{45, 91}";
type = Stem;
},
{
place = "{318, 91}";
type = Stem;
}
);
layerId = "A5D64CBF-1778-47FF-82B6-0C31E83264E6";
paths = (
{
closed = 1;
nodes = (
"318 173 LINE SMOOTH",
"318 123 OFFCURVE",
"277 82 OFFCURVE",
"227 82 CURVE SMOOTH",
"177 82 OFFCURVE",
"136 123 OFFCURVE",
"136 173 CURVE SMOOTH",
"136 373 LINE SMOOTH",
"136 423 OFFCURVE",
"177 464 OFFCURVE",
"227 464 CURVE SMOOTH",
"277 464 OFFCURVE",
"318 423 OFFCURVE",
"318 373 CURVE SMOOTH"
);
},
{
closed = 1;
nodes = (
"45 73 OFFCURVE",
"127 -9 OFFCURVE",
"227 -9 CURVE SMOOTH",
"237 -9 OFFCURVE",
"248 -8 OFFCURVE",
"258 -6 CURVE",
"318 43 LINE",
"318 -182 LINE",
"409 -182 LINE",
"409 545 LINE",
"318 545 LINE",
"318 502 LINE",
"258 552 LINE",
"248 554 OFFCURVE",
"237 555 OFFCURVE",
"227 555 CURVE SMOOTH",
"127 555 OFFCURVE",
"45 473 OFFCURVE",
"45 373 CURVE SMOOTH",
"45 173 LINE SMOOTH"
);
}
);
width = 480;
}
);
note = q;
unicode = 0071;
},
{
color = 4;
glyphname = r;
lastChange = "2025-05-06 20:11:14 +0000";
layers = (
{
anchors = (
{
name = bottom;
position = "{231, 0}";
},
{
name = ogonek;
position = "{351, 0}";
},
{
name = top;
position = "{231, 545}";
}
);
background = {
paths = (
{
closed = 1;
nodes = (
"240 555 OFFCURVE",
"201 538 OFFCURVE",
"173 505 CURVE",
"170 545 LINE",
"85 545 LINE",
"85 0 LINE",
"176 0 LINE",
"176 381 LINE SMOOTH",
"176 423 OFFCURVE",
"223 464 OFFCURVE",
"272 464 CURVE SMOOTH",
"306 464 OFFCURVE",
"340 450 OFFCURVE",
"362 425 CURVE",
"419 498 LINE",
"377 539 OFFCURVE",
"339 555 OFFCURVE",
"277 555 CURVE SMOOTH"
);
}
);
};
hints = (
{
horizontal = 1;
place = "{0, 20}";
type = Stem;
},
{
horizontal = 1;
place = "{464, 77}";
type = Stem;
},
{
place = "{45, 91}";
type = Stem;
}
);
layerId = "A5D64CBF-1778-47FF-82B6-0C31E83264E6";
paths = (
{
closed = 1;
nodes = (
"161 0 LINE",
"161 373 LINE SMOOTH",
"161 423 OFFCURVE",
"202 464 OFFCURVE",
"252 464 CURVE SMOOTH",
"292 464 OFFCURVE",
"327 437 OFFCURVE",
"338 401 CURVE",
"341.42 392.286 OFFCURVE",
"343 382.817 OFFCURVE",
"343 373 CURVE SMOOTH",
"343 353 LINE",
"434 353 LINE",
"434 373 LINE SMOOTH",
"435 472 OFFCURVE",
"352 555 OFFCURVE",
"252 555 CURVE SMOOTH",
"242 555 OFFCURVE",
"231 554 OFFCURVE",
"221 552 CURVE",
"161 502 LINE",
"161 545 LINE",
"70 545 LINE",
"70 0 LINE"
);
}
);
width = 480;
}
);
note = r;
unicode = 0072;
},
{
color = 4;
glyphname = racute;
lastChange = "2025-05-06 20:11:14 +0000";
layers = (
{
layerId = "A5D64CBF-1778-47FF-82B6-0C31E83264E6";
paths = (
{
closed = 1;
nodes = (
"161 0 LINE",
"161 373 LINE SMOOTH",
"161 423 OFFCURVE",
"202 464 OFFCURVE",
"252 464 CURVE SMOOTH",
"292 464 OFFCURVE",
"327 437 OFFCURVE",
"338 401 CURVE",
"341.42 392.286 OFFCURVE",
"343 382.817 OFFCURVE",
"343 373 CURVE SMOOTH",
"343 353 LINE",
"434 353 LINE",
"434 373 LINE SMOOTH",
"435 472 OFFCURVE",
"352 555 OFFCURVE",
"252 555 CURVE SMOOTH",
"242 555 OFFCURVE",
"231 554 OFFCURVE",
"221 552 CURVE",
"161 502 LINE",
"161 545 LINE",
"70 545 LINE",
"70 0 LINE"
);
},
{
closed = 1;
nodes = (
"326 713 LINE",
"349 673 LINE",
"192 582 LINE",
"169 622 LINE"
);
}
);
width = 480;
}
);
unicode = 0155;
},
{
color = 4;
glyphname = rcaron;
lastChange = "2025-05-06 20:11:14 +0000";
layers = (
{
layerId = "A5D64CBF-1778-47FF-82B6-0C31E83264E6";
paths = (
{
closed = 1;
nodes = (
"360 710 LINE",
"328 742 LINE",
"241 655 LINE",
"154 742 LINE",
"122 710 LINE",
"241 591 LINE"
);
},
{
closed = 1;
nodes = (
"161 0 LINE",
"161 373 LINE SMOOTH",
"161 423 OFFCURVE",
"202 464 OFFCURVE",
"252 464 CURVE SMOOTH",
"292 464 OFFCURVE",
"327 437 OFFCURVE",
"338 401 CURVE",
"341.42 392.286 OFFCURVE",
"343 382.817 OFFCURVE",
"343 373 CURVE SMOOTH",
"343 353 LINE",
"434 353 LINE",
"434 373 LINE SMOOTH",
"435 472 OFFCURVE",
"352 555 OFFCURVE",
"252 555 CURVE SMOOTH",
"242 555 OFFCURVE",
"231 554 OFFCURVE",
"221 552 CURVE",
"161 502 LINE",
"161 545 LINE",
"70 545 LINE",
"70 0 LINE"
);
}
);
width = 480;
}
);
unicode = 0159;
},
{
color = 4;
glyphname = s;
lastChange = "2025-05-06 20:11:14 +0000";
layers = (
{
anchors = (
{
name = bottom;
position = "{231, 0}";
},
{
name = ogonek;
position = "{351, 0}";
},
{
name = top;
position = "{231, 545}";
}
);
hints = (
{
horizontal = 1;
place = "{-9, 91}";
type = Stem;
},
{
horizontal = 1;
place = "{464, 91}";
type = Stem;
},
{
place = "{45, 91}";
type = Stem;
},
{
place = "{318, 91}";
type = Stem;
}
);
layerId = "A5D64CBF-1778-47FF-82B6-0C31E83264E6";
paths = (
{
closed = 1;
nodes = (
"433 234 OFFCURVE",
"361 302 OFFCURVE",
"248 322 CURVE SMOOTH",
"209 329 OFFCURVE",
"155 348 OFFCURVE",
"155 396 CURVE SMOOTH",
"155 441 OFFCURVE",
"202 474 OFFCURVE",
"246 474 CURVE SMOOTH",
"291 474 OFFCURVE",
"334 440 OFFCURVE",
"334 395 CURVE SMOOTH",
"334 370 LINE",
"425 370 LINE",
"425 395 LINE SMOOTH",
"425 482 OFFCURVE",
"346 555 OFFCURVE",
"246 555 CURVE SMOOTH",
"146 555 OFFCURVE",
"63 483 OFFCURVE",
"63 396 CURVE SMOOTH",
"63 306 OFFCURVE",
"131 252 OFFCURVE",
"244 236 CURVE SMOOTH",
"284 230 OFFCURVE",
"341 197 OFFCURVE",
"341 144 CURVE SMOOTH",
"341 99 OFFCURVE",
"291 66 OFFCURVE",
"246 66 CURVE SMOOTH",
"202 66 OFFCURVE",
"146 99 OFFCURVE",
"146 155 CURVE SMOOTH",
"146 180 LINE",
"55 180 LINE",
"55 155 LINE SMOOTH",
"55 58 OFFCURVE",
"146 -15 OFFCURVE",
"246 -15 CURVE SMOOTH",
"346 -15 OFFCURVE",
"433 58 OFFCURVE",
"433 144 CURVE SMOOTH"
);
}
);
width = 480;
}
);
note = s;
unicode = 0073;
},
{
color = 4;
glyphname = sacute;
lastChange = "2025-05-06 20:11:14 +0000";
layers = (
{
layerId = "A5D64CBF-1778-47FF-82B6-0C31E83264E6";
paths = (
{
closed = 1;
nodes = (
"433 234 OFFCURVE",
"361 302 OFFCURVE",
"248 322 CURVE SMOOTH",
"209 329 OFFCURVE",
"155 348 OFFCURVE",
"155 396 CURVE SMOOTH",
"155 441 OFFCURVE",
"202 474 OFFCURVE",
"246 474 CURVE SMOOTH",
"291 474 OFFCURVE",
"334 440 OFFCURVE",
"334 395 CURVE SMOOTH",
"334 370 LINE",
"425 370 LINE",
"425 395 LINE SMOOTH",
"425 482 OFFCURVE",
"346 555 OFFCURVE",
"246 555 CURVE SMOOTH",
"146 555 OFFCURVE",
"63 483 OFFCURVE",
"63 396 CURVE SMOOTH",
"63 306 OFFCURVE",
"131 252 OFFCURVE",
"244 236 CURVE SMOOTH",
"284 230 OFFCURVE",
"341 197 OFFCURVE",
"341 144 CURVE SMOOTH",
"341 99 OFFCURVE",
"291 66 OFFCURVE",
"246 66 CURVE SMOOTH",
"202 66 OFFCURVE",
"146 99 OFFCURVE",
"146 155 CURVE SMOOTH",
"146 180 LINE",
"55 180 LINE",
"55 155 LINE SMOOTH",
"55 58 OFFCURVE",
"146 -15 OFFCURVE",
"246 -15 CURVE SMOOTH",
"346 -15 OFFCURVE",
"433 58 OFFCURVE",
"433 144 CURVE SMOOTH"
);
},
{
closed = 1;
nodes = (
"308 713 LINE",
"331 673 LINE",
"174 582 LINE",
"151 622 LINE"
);
}
);
width = 480;
}
);
unicode = 015B;
},
{
color = 4;
glyphname = scaron;
lastChange = "2025-05-06 20:11:14 +0000";
layers = (
{
hints = (
{
horizontal = 1;
place = "{-9, 91}";
type = Stem;
},
{
horizontal = 1;
place = "{464, 91}";
type = Stem;
},
{
place = "{45, 91}";
type = Stem;
},
{
place = "{318, 91}";
type = Stem;
}
);
layerId = "A5D64CBF-1778-47FF-82B6-0C31E83264E6";
paths = (
{
closed = 1;
nodes = (
"360 710 LINE",
"328 742 LINE",
"241 655 LINE",
"154 742 LINE",
"122 710 LINE",
"241 591 LINE"
);
},
{
closed = 1;
nodes = (
"55 58 OFFCURVE",
"146 -15 OFFCURVE",
"246 -15 CURVE SMOOTH",
"346 -15 OFFCURVE",
"433 58 OFFCURVE",
"433 144 CURVE SMOOTH",
"433 234 OFFCURVE",
"361 302 OFFCURVE",
"248 322 CURVE SMOOTH",
"209 329 OFFCURVE",
"155 348 OFFCURVE",
"155 396 CURVE SMOOTH",
"155 441 OFFCURVE",
"202 474 OFFCURVE",
"246 474 CURVE SMOOTH",
"291 474 OFFCURVE",
"334 440 OFFCURVE",
"334 395 CURVE SMOOTH",
"334 370 LINE",
"425 370 LINE",
"425 395 LINE SMOOTH",
"425 482 OFFCURVE",
"346 555 OFFCURVE",
"246 555 CURVE SMOOTH",
"146 555 OFFCURVE",
"63 483 OFFCURVE",
"63 396 CURVE SMOOTH",
"63 306 OFFCURVE",
"131 252 OFFCURVE",
"244 236 CURVE SMOOTH",
"284 230 OFFCURVE",
"341 197 OFFCURVE",
"341 144 CURVE SMOOTH",
"341 99 OFFCURVE",
"291 66 OFFCURVE",
"246 66 CURVE SMOOTH",
"202 66 OFFCURVE",
"146 99 OFFCURVE",
"146 155 CURVE SMOOTH",
"146 180 LINE",
"55 180 LINE",
"55 155 LINE SMOOTH"
);
}
);
width = 480;
}
);
note = scaron;
unicode = 0161;
},
{
color = 4;
glyphname = scedilla;
lastChange = "2025-05-06 20:11:14 +0000";
layers = (
{
layerId = "A5D64CBF-1778-47FF-82B6-0C31E83264E6";
paths = (
{
closed = 1;
nodes = (
"433 234 OFFCURVE",
"361 302 OFFCURVE",
"248 322 CURVE SMOOTH",
"209 329 OFFCURVE",
"155 348 OFFCURVE",
"155 396 CURVE SMOOTH",
"155 441 OFFCURVE",
"202 474 OFFCURVE",
"246 474 CURVE SMOOTH",
"291 474 OFFCURVE",
"334 440 OFFCURVE",
"334 395 CURVE SMOOTH",
"334 370 LINE",
"425 370 LINE",
"425 395 LINE SMOOTH",
"425 482 OFFCURVE",
"346 555 OFFCURVE",
"246 555 CURVE SMOOTH",
"146 555 OFFCURVE",
"63 483 OFFCURVE",
"63 396 CURVE SMOOTH",
"63 306 OFFCURVE",
"131 252 OFFCURVE",
"244 236 CURVE SMOOTH",
"284 230 OFFCURVE",
"341 197 OFFCURVE",
"341 144 CURVE SMOOTH",
"341 99 OFFCURVE",
"291 66 OFFCURVE",
"246 66 CURVE SMOOTH",
"202 66 OFFCURVE",
"146 99 OFFCURVE",
"146 155 CURVE SMOOTH",
"146 180 LINE",
"55 180 LINE",
"55 155 LINE SMOOTH",
"55 68.149 OFFCURVE",
"127.953 0.539 OFFCURVE",
"215 -12.659 CURVE",
"215 -79 LINE",
"238 -79 LINE SMOOTH",
"263 -79 OFFCURVE",
"284 -99 OFFCURVE",
"284 -125 CURVE SMOOTH",
"284 -150 OFFCURVE",
"263 -170 OFFCURVE",
"238 -170 CURVE SMOOTH",
"213 -170 OFFCURVE",
"193 -150 OFFCURVE",
"193 -125 CURVE",
"148 -125 LINE",
"148 -175 OFFCURVE",
"188 -215 OFFCURVE",
"238 -215 CURVE SMOOTH",
"288 -215 OFFCURVE",
"329 -175 OFFCURVE",
"329 -125 CURVE SMOOTH",
"329 -82 OFFCURVE",
"299 -46 OFFCURVE",
"260 -37 CURVE",
"260 -14.523 LINE",
"353.982 -8.112 OFFCURVE",
"433 62.04 OFFCURVE",
"433 144 CURVE SMOOTH"
);
}
);
width = 480;
}
);
unicode = 015F;
},
{
color = 4;
glyphname = scommaaccent;
lastChange = "2025-05-06 20:11:14 +0000";
layers = (
{
layerId = "A5D64CBF-1778-47FF-82B6-0C31E83264E6";
paths = (
{
closed = 1;
nodes = (
"159 -188 LINE",
"201 -210 LINE",
"281 -57 LINE",
"240 -36 LINE"
);
},
{
closed = 1;
nodes = (
"55 58 OFFCURVE",
"146 -15 OFFCURVE",
"246 -15 CURVE SMOOTH",
"346 -15 OFFCURVE",
"433 58 OFFCURVE",
"433 144 CURVE SMOOTH",
"433 234 OFFCURVE",
"361 302 OFFCURVE",
"248 322 CURVE SMOOTH",
"209 329 OFFCURVE",
"155 348 OFFCURVE",
"155 396 CURVE SMOOTH",
"155 441 OFFCURVE",
"202 474 OFFCURVE",
"246 474 CURVE SMOOTH",
"291 474 OFFCURVE",
"334 440 OFFCURVE",
"334 395 CURVE SMOOTH",
"334 370 LINE",
"425 370 LINE",
"425 395 LINE SMOOTH",
"425 482 OFFCURVE",
"346 555 OFFCURVE",
"246 555 CURVE SMOOTH",
"146 555 OFFCURVE",
"63 483 OFFCURVE",
"63 396 CURVE SMOOTH",
"63 306 OFFCURVE",
"131 252 OFFCURVE",
"244 236 CURVE SMOOTH",
"284 230 OFFCURVE",
"341 197 OFFCURVE",
"341 144 CURVE SMOOTH",
"341 99 OFFCURVE",
"291 66 OFFCURVE",
"246 66 CURVE SMOOTH",
"202 66 OFFCURVE",
"146 99 OFFCURVE",
"146 155 CURVE SMOOTH",
"146 180 LINE",
"55 180 LINE",
"55 155 LINE SMOOTH"
);
}
);
width = 480;
}
);
unicode = 0219;
},
{
color = 4;
glyphname = germandbls;
lastChange = "2025-05-06 20:11:14 +0000";
layers = (
{
hints = (
{
horizontal = 1;
place = "{-9, 91}";
type = Stem;
},
{
horizontal = 1;
place = "{364, 91}";
type = Stem;
},
{
horizontal = 1;
place = "{636, 91}";
type = Stem;
},
{
place = "{45, 91}";
type = Stem;
},
{
place = "{318, 91}";
type = Stem;
}
);
layerId = "A5D64CBF-1778-47FF-82B6-0C31E83264E6";
paths = (
{
closed = 1;
nodes = (
"227 -9 LINE",
"327 -9 OFFCURVE",
"409 73 OFFCURVE",
"409 173 CURVE SMOOTH",
"409 273 LINE SMOOTH",
"409 337 OFFCURVE",
"375 380 OFFCURVE",
"337 409 CURVE",
"375 438 OFFCURVE",
"409 477 OFFCURVE",
"409 545 CURVE SMOOTH",
"409 645 OFFCURVE",
"327 727 OFFCURVE",
"227 727 CURVE SMOOTH",
"127 727 OFFCURVE",
"45 645 OFFCURVE",
"45 545 CURVE SMOOTH",
"45 0 LINE",
"136 0 LINE",
"136 545 LINE SMOOTH",
"136 595 OFFCURVE",
"177 636 OFFCURVE",
"227 636 CURVE SMOOTH",
"277 636 OFFCURVE",
"318 595 OFFCURVE",
"318 545 CURVE SMOOTH",
"318 495 OFFCURVE",
"277 455 OFFCURVE",
"227 455 CURVE",
"227 364 LINE",
"277 364 OFFCURVE",
"318 323 OFFCURVE",
"318 273 CURVE SMOOTH",
"318 173 LINE SMOOTH",
"318 123 OFFCURVE",
"277 82 OFFCURVE",
"227 82 CURVE"
);
}
);
width = 480;
}
);
note = germandbls;
unicode = 00DF;
},
{
color = 4;
glyphname = t;
lastChange = "2025-05-06 20:11:14 +0000";
layers = (
{
anchors = (
{
name = bottom;
position = "{231, 0}";
},
{
name = ogonek;
position = "{351, 0}";
},
{
name = top;
position = "{231, 545}";
}
);
hints = (
{
horizontal = 1;
place = "{-15, 91}";
type = Stem;
},
{
horizontal = 1;
place = "{454, 91}";
type = Stem;
},
{
place = "{114, 91}";
type = Stem;
}
);
layerId = "A5D64CBF-1778-47FF-82B6-0C31E83264E6";
paths = (
{
closed = 1;
nodes = (
"422 -5 LINE",
"422 86 LINE",
"328 86 LINE SMOOTH",
"278 86 OFFCURVE",
"238 127 OFFCURVE",
"238 177 CURVE SMOOTH",
"238 415 LINE",
"432 415 LINE",
"432 505 LINE",
"238 505 LINE",
"238 720 LINE",
"147 720 LINE",
"147 505 LINE",
"29 505 LINE",
"29 415 LINE",
"147 415 LINE",
"147 177 LINE SMOOTH",
"147 77 OFFCURVE",
"228 -5 OFFCURVE",
"328 -5 CURVE SMOOTH"
);
}
);
width = 480;
}
);
note = t;
unicode = 0074;
},
{
color = 4;
glyphname = tcaron;
lastChange = "2025-05-06 20:11:14 +0000";
layers = (
{
layerId = "A5D64CBF-1778-47FF-82B6-0C31E83264E6";
paths = (
{
closed = 1;
nodes = (
"422 -5 LINE",
"422 86 LINE",
"328 86 LINE SMOOTH",
"278 86 OFFCURVE",
"238 127 OFFCURVE",
"238 177 CURVE SMOOTH",
"238 415 LINE",
"432 415 LINE",
"432 505 LINE",
"238 505 LINE",
"238 720 LINE",
"147 720 LINE",
"147 505 LINE",
"29 505 LINE",
"29 415 LINE",
"147 415 LINE",
"147 177 LINE SMOOTH",
"147 77 OFFCURVE",
"228 -5 OFFCURVE",
"328 -5 CURVE SMOOTH"
);
},
{
closed = 1;
nodes = (
"301 532 LINE",
"384 694 LINE",
"343 715 LINE",
"259 554 LINE"
);
}
);
width = 480;
}
);
unicode = 0165;
},
{
color = 4;
glyphname = tcommaaccent;
lastChange = "2025-05-06 20:11:14 +0000";
layers = (
{
layerId = "A5D64CBF-1778-47FF-82B6-0C31E83264E6";
paths = (
{
closed = 1;
nodes = (
"149 -188 LINE",
"191 -210 LINE",
"274 -48 LINE",
"233 -27 LINE"
);
},
{
closed = 1;
nodes = (
"147 415 LINE",
"147 177 LINE SMOOTH",
"147 77 OFFCURVE",
"228 -5 OFFCURVE",
"328 -5 CURVE SMOOTH",
"422 -5 LINE",
"422 86 LINE",
"328 86 LINE SMOOTH",
"278 86 OFFCURVE",
"238 127 OFFCURVE",
"238 177 CURVE SMOOTH",
"238 415 LINE",
"432 415 LINE",
"432 505 LINE",
"238 505 LINE",
"238 720 LINE",
"147 720 LINE",
"147 505 LINE",
"29 505 LINE",
"29 415 LINE"
);
}
);
width = 480;
}
);
unicode = 021B;
},
{
color = 4;
glyphname = u;
lastChange = "2025-05-06 20:11:14 +0000";
layers = (
{
anchors = (
{
name = bottom;
position = "{231, 0}";
},
{
name = ogonek;
position = "{351, 0}";
},
{
name = top;
position = "{231, 545}";
}
);
background = {
paths = (
{
closed = 1;
nodes = (
"276 83 OFFCURVE",
"317 123 OFFCURVE",
"317 173 CURVE SMOOTH",
"317 223 OFFCURVE",
"276 264 OFFCURVE",
"226 264 CURVE SMOOTH",
"176 264 OFFCURVE",
"136 223 OFFCURVE",
"136 173 CURVE SMOOTH",
"136 123 OFFCURVE",
"176 83 OFFCURVE",
"226 83 CURVE SMOOTH"
);
},
{
closed = 1;
nodes = (
"326 -8 OFFCURVE",
"408 72 OFFCURVE",
"408 172 CURVE SMOOTH",
"408 273 OFFCURVE",
"326 355 OFFCURVE",
"225 355 CURVE SMOOTH",
"125 355 OFFCURVE",
"45 273 OFFCURVE",
"45 172 CURVE SMOOTH",
"45 72 OFFCURVE",
"125 -8 OFFCURVE",
"225 -8 CURVE SMOOTH"
);
}
);
};
hints = (
{
horizontal = 1;
place = "{-9, 91}";
type = Stem;
},
{
horizontal = 1;
place = "{545, -20}";
target = down;
type = TopGhost;
},
{
place = "{45, 91}";
type = Stem;
},
{
place = "{318, 91}";
type = Stem;
}
);
layerId = "A5D64CBF-1778-47FF-82B6-0C31E83264E6";
paths = (
{
closed = 1;
nodes = (
"45 173 LINE",
"46 173 LINE",
"46 73 OFFCURVE",
"128 -9 OFFCURVE",
"228 -9 CURVE SMOOTH",
"238 -9 OFFCURVE",
"249 -8 OFFCURVE",
"259 -6 CURVE",
"319 43 LINE",
"319 0 LINE",
"410 0 LINE",
"410 545 LINE",
"319 545 LINE",
"319 173 LINE SMOOTH",
"319 123 OFFCURVE",
"278 82 OFFCURVE",
"228 82 CURVE SMOOTH",
"178 82 OFFCURVE",
"137 123 OFFCURVE",
"137 173 CURVE",
"136 173 LINE",
"136 545 LINE",
"45 545 LINE"
);
}
);
width = 480;
}
);
note = u;
unicode = 0075;
},
{
color = 4;
glyphname = uacute;
lastChange = "2025-05-06 20:11:14 +0000";
layers = (
{
hints = (
{
horizontal = 1;
place = "{-9, 91}";
type = Stem;
},
{
place = "{45, 91}";
type = Stem;
},
{
place = "{318, 91}";
type = Stem;
}
);
layerId = "A5D64CBF-1778-47FF-82B6-0C31E83264E6";
paths = (
{
closed = 1;
nodes = (
"141 622 LINE",
"164 582 LINE",
"321 673 LINE",
"298 713 LINE"
);
},
{
closed = 1;
nodes = (
"46 173 LINE",
"46 73 OFFCURVE",
"128 -9 OFFCURVE",
"228 -9 CURVE SMOOTH",
"238 -9 OFFCURVE",
"249 -8 OFFCURVE",
"259 -6 CURVE",
"319 43 LINE",
"319 0 LINE",
"410 0 LINE",
"410 545 LINE",
"319 545 LINE",
"319 173 LINE SMOOTH",
"319 123 OFFCURVE",
"278 82 OFFCURVE",
"228 82 CURVE SMOOTH",
"178 82 OFFCURVE",
"137 123 OFFCURVE",
"137 173 CURVE",
"136 173 LINE",
"136 545 LINE",
"45 545 LINE",
"45 173 LINE"
);
}
);
width = 480;
}
);
note = uacute;
unicode = 00FA;
},
{
color = 4;
glyphname = ucircumflex;
lastChange = "2025-05-06 20:11:14 +0000";
layers = (
{
hints = (
{
horizontal = 1;
place = "{-9, 91}";
type = Stem;
},
{
place = "{45, 91}";
type = Stem;
},
{
place = "{318, 91}";
type = Stem;
}
);
layerId = "A5D64CBF-1778-47FF-82B6-0C31E83264E6";
paths = (
{
closed = 1;
nodes = (
"227 732 LINE",
"108 613 LINE",
"140 581 LINE",
"227 667 LINE",
"315 581 LINE",
"346 613 LINE"
);
},
{
closed = 1;
nodes = (
"46 173 LINE",
"46 73 OFFCURVE",
"128 -9 OFFCURVE",
"228 -9 CURVE SMOOTH",
"238 -9 OFFCURVE",
"249 -8 OFFCURVE",
"259 -6 CURVE",
"319 33 LINE",
"319 0 LINE",
"410 0 LINE",
"410 545 LINE",
"319 545 LINE",
"319 173 LINE SMOOTH",
"319 123 OFFCURVE",
"278 82 OFFCURVE",
"228 82 CURVE SMOOTH",
"178 82 OFFCURVE",
"137 123 OFFCURVE",
"137 173 CURVE",
"136 173 LINE",
"136 545 LINE",
"45 545 LINE",
"45 173 LINE"
);
}
);
width = 480;
}
);
note = ucircumflex;
unicode = 00FB;
},
{
color = 4;
glyphname = udieresis;
lastChange = "2025-05-06 20:11:14 +0000";
layers = (
{
anchors = (
{
name = top;
position = "{226, 545}";
}
);
hints = (
{
horizontal = 1;
place = "{-9, 91}";
type = Stem;
},
{
horizontal = 1;
place = "{605, 100}";
type = Stem;
},
{
place = "{45, 91}";
type = Stem;
},
{
place = "{318, 91}";
type = Stem;
}
);
layerId = "A5D64CBF-1778-47FF-82B6-0C31E83264E6";
paths = (
{
closed = 1;
nodes = (
"172 633 OFFCURVE",
"198 659 OFFCURVE",
"198 691 CURVE SMOOTH",
"198 722 OFFCURVE",
"172 748 OFFCURVE",
"141 748 CURVE SMOOTH",
"109 748 OFFCURVE",
"83 722 OFFCURVE",
"83 691 CURVE SMOOTH",
"83 659 OFFCURVE",
"109 633 OFFCURVE",
"141 633 CURVE SMOOTH"
);
},
{
closed = 1;
nodes = (
"46 173 LINE",
"46 73 OFFCURVE",
"128 -9 OFFCURVE",
"228 -9 CURVE SMOOTH",
"238 -9 OFFCURVE",
"249 -8 OFFCURVE",
"259 -6 CURVE",
"319 33 LINE",
"319 0 LINE",
"410 0 LINE",
"410 545 LINE",
"319 545 LINE",
"319 173 LINE SMOOTH",
"319 123 OFFCURVE",
"278 82 OFFCURVE",
"228 82 CURVE SMOOTH",
"178 82 OFFCURVE",
"137 123 OFFCURVE",
"137 173 CURVE",
"136 173 LINE",
"136 545 LINE",
"45 545 LINE",
"45 173 LINE"
);
},
{
closed = 1;
nodes = (
"254 659 OFFCURVE",
"280 633 OFFCURVE",
"312 633 CURVE SMOOTH",
"343 633 OFFCURVE",
"369 659 OFFCURVE",
"369 691 CURVE SMOOTH",
"369 722 OFFCURVE",
"343 748 OFFCURVE",
"312 748 CURVE SMOOTH",
"280 748 OFFCURVE",
"254 722 OFFCURVE",
"254 691 CURVE SMOOTH"
);
}
);
width = 480;
}
);
note = udieresis;
unicode = 00FC;
},
{
color = 4;
glyphname = ugrave;
lastChange = "2025-05-06 20:11:14 +0000";
layers = (
{
hints = (
{
horizontal = 1;
place = "{-9, 91}";
type = Stem;
},
{
place = "{45, 91}";
type = Stem;
},
{
place = "{318, 91}";
type = Stem;
}
);
layerId = "A5D64CBF-1778-47FF-82B6-0C31E83264E6";
paths = (
{
closed = 1;
nodes = (
"297 582 LINE",
"321 622 LINE",
"163 713 LINE",
"141 673 LINE"
);
},
{
closed = 1;
nodes = (
"46 173 LINE",
"46 73 OFFCURVE",
"128 -9 OFFCURVE",
"228 -9 CURVE SMOOTH",
"238 -9 OFFCURVE",
"249 -8 OFFCURVE",
"259 -6 CURVE",
"319 33 LINE",
"319 0 LINE",
"410 0 LINE",
"410 545 LINE",
"319 545 LINE",
"319 173 LINE SMOOTH",
"319 123 OFFCURVE",
"278 82 OFFCURVE",
"228 82 CURVE SMOOTH",
"178 82 OFFCURVE",
"137 123 OFFCURVE",
"137 173 CURVE",
"136 173 LINE",
"136 545 LINE",
"45 545 LINE",
"45 173 LINE"
);
}
);
width = 480;
}
);
note = ugrave;
unicode = 00F9;
},
{
color = 4;
glyphname = uhungarumlaut;
lastChange = "2025-05-06 20:11:14 +0000";
layers = (
{
layerId = "A5D64CBF-1778-47FF-82B6-0C31E83264E6";
paths = (
{
closed = 0;
nodes = (
"272 704 LINE",
"238 736 LINE",
"146 638 LINE"
);
},
{
closed = 0;
nodes = (
"371 704 LINE",
"337 736 LINE",
"245 638 LINE"
);
},
{
closed = 1;
nodes = (
"45 173 LINE",
"46 173 LINE",
"46 73 OFFCURVE",
"128 -9 OFFCURVE",
"228 -9 CURVE SMOOTH",
"238 -9 OFFCURVE",
"249 -8 OFFCURVE",
"259 -6 CURVE",
"319 43 LINE",
"319 0 LINE",
"410 0 LINE",
"410 545 LINE",
"319 545 LINE",
"319 173 LINE SMOOTH",
"319 123 OFFCURVE",
"278 82 OFFCURVE",
"228 82 CURVE SMOOTH",
"178 82 OFFCURVE",
"137 123 OFFCURVE",
"137 173 CURVE",
"136 173 LINE",
"136 545 LINE",
"45 545 LINE"
);
},
{
closed = 1;
nodes = (
"180 606 LINE",
"272 704 LINE",
"238 736 LINE",
"146 638 LINE"
);
},
{
closed = 1;
nodes = (
"279 606 LINE",
"371 704 LINE",
"337 736 LINE",
"245 638 LINE"
);
}
);
width = 480;
}
);
unicode = 0171;
},
{
color = 4;
glyphname = umacron;
lastChange = "2025-05-06 20:11:14 +0000";
layers = (
{
layerId = "A5D64CBF-1778-47FF-82B6-0C31E83264E6";
paths = (
{
closed = 1;
nodes = (
"325 614 LINE",
"325 660 LINE",
"143 660 LINE",
"143 614 LINE"
);
},
{
closed = 1;
nodes = (
"46 173 LINE",
"46 73 OFFCURVE",
"128 -9 OFFCURVE",
"228 -9 CURVE SMOOTH",
"238 -9 OFFCURVE",
"249 -8 OFFCURVE",
"259 -6 CURVE",
"319 43 LINE",
"319 0 LINE",
"410 0 LINE",
"410 545 LINE",
"319 545 LINE",
"319 173 LINE SMOOTH",
"319 123 OFFCURVE",
"278 82 OFFCURVE",
"228 82 CURVE SMOOTH",
"178 82 OFFCURVE",
"137 123 OFFCURVE",
"137 173 CURVE",
"136 173 LINE",
"136 545 LINE",
"45 545 LINE",
"45 173 LINE"
);
}
);
width = 480;
}
);
unicode = 016B;
},
{
color = 4;
glyphname = uogonek;
lastChange = "2025-05-06 20:11:14 +0000";
layers = (
{
layerId = "A5D64CBF-1778-47FF-82B6-0C31E83264E6";
paths = (
{
closed = 1;
nodes = (
"45 173 LINE",
"46 173 LINE",
"46 73 OFFCURVE",
"128 -9 OFFCURVE",
"228 -9 CURVE SMOOTH",
"238 -9 OFFCURVE",
"249 -8 OFFCURVE",
"259 -6 CURVE",
"319 33 LINE",
"319 0 LINE",
"354.154 0 LINE",
"333.302 -16.993 OFFCURVE",
"320 -43.166 OFFCURVE",
"320 -72 CURVE SMOOTH",
"320 -122 OFFCURVE",
"360 -163 OFFCURVE",
"410 -163 CURVE SMOOTH",
"433 -163 OFFCURVE",
"456 -154 OFFCURVE",
"474 -136 CURVE",
"442 -104 LINE",
"425 -122 OFFCURVE",
"397 -122 OFFCURVE",
"379 -104 CURVE",
"370 -96 OFFCURVE",
"365 -84 OFFCURVE",
"365 -72 CURVE SMOOTH",
"365 -63 OFFCURVE",
"368 -54 OFFCURVE",
"373 -46 CURVE",
"378 -40 LINE SMOOTH",
"386 -31 OFFCURVE",
"397 -26 OFFCURVE",
"410 -26 CURVE",
"410 545 LINE",
"319 545 LINE",
"319 173 LINE SMOOTH",
"319 123 OFFCURVE",
"278 82 OFFCURVE",
"228 82 CURVE SMOOTH",
"178 82 OFFCURVE",
"137 123 OFFCURVE",
"137 173 CURVE",
"136 173 LINE",
"136 545 LINE",
"45 545 LINE"
);
}
);
width = 480;
}
);
unicode = 0173;
},
{
color = 4;
glyphname = uring;
lastChange = "2025-05-06 20:11:14 +0000";
layers = (
{
layerId = "A5D64CBF-1778-47FF-82B6-0C31E83264E6";
paths = (
{
closed = 1;
nodes = (
"319 512 LINE",
"259 552 LINE",
"249 554 OFFCURVE",
"238 555 OFFCURVE",
"228 555 CURVE SMOOTH",
"128 555 OFFCURVE",
"46 473 OFFCURVE",
"46 373 CURVE SMOOTH",
"46 173 LINE SMOOTH",
"46 73 OFFCURVE",
"128 -9 OFFCURVE",
"228 -9 CURVE SMOOTH",
"238 -9 OFFCURVE",
"249 -8 OFFCURVE",
"259 -6 CURVE",
"319 43 LINE",
"319 0 LINE",
"410 0 LINE",
"410 545 LINE",
"319 545 LINE"
);
},
{
closed = 1;
nodes = (
"132 640 OFFCURVE",
"172 600 OFFCURVE",
"222 600 CURVE SMOOTH",
"272 600 OFFCURVE",
"313 640 OFFCURVE",
"313 690 CURVE SMOOTH",
"313 740 OFFCURVE",
"272 781 OFFCURVE",
"222 781 CURVE SMOOTH",
"172 781 OFFCURVE",
"132 740 OFFCURVE",
"132 690 CURVE SMOOTH"
);
},
{
closed = 1;
nodes = (
"137 373 LINE SMOOTH",
"137 423 OFFCURVE",
"178 464 OFFCURVE",
"228 464 CURVE SMOOTH",
"278 464 OFFCURVE",
"319 423 OFFCURVE",
"319 373 CURVE SMOOTH",
"319 173 LINE SMOOTH",
"319 123 OFFCURVE",
"278 82 OFFCURVE",
"228 82 CURVE SMOOTH",
"178 82 OFFCURVE",
"137 123 OFFCURVE",
"137 173 CURVE SMOOTH"
);
},
{
closed = 1;
nodes = (
"178 715 OFFCURVE",
"198 735 OFFCURVE",
"222 735 CURVE SMOOTH",
"248 735 OFFCURVE",
"268 715 OFFCURVE",
"268 690 CURVE SMOOTH",
"268 665 OFFCURVE",
"248 645 OFFCURVE",
"222 645 CURVE SMOOTH",
"198 645 OFFCURVE",
"178 665 OFFCURVE",
"178 690 CURVE SMOOTH"
);
}
);
width = 480;
}
);
unicode = 016F;
},
